G04 ===== Begin FILE IDENTIFICATION =====*
G04 File Format:  Gerber RS274X*
G04 ===== End FILE IDENTIFICATION =====*
%FSLAX24Y24*%
%MOIN*%
%SFA1.0000B1.0000*%
%OFA0.0B0.0*%
%ADD10C,0.000984*%
%LNboardBound*%
%IPPOS*%
%LPD*%
G75*
G36*
G01X787Y0D02*
G01X752Y1D01*
G01X717Y3D01*
G01X682Y7D01*
G01X647Y13D01*
G01X612Y20D01*
G01X578Y28D01*
G01X544Y39D01*
G01X511Y50D01*
G01X478Y63D01*
G01X446Y78D01*
G01X414Y94D01*
G01X384Y111D01*
G01X354Y130D01*
G01X325Y150D01*
G01X296Y172D01*
G01X269Y194D01*
G01X243Y218D01*
G01X218Y243D01*
G01X194Y269D01*
G01X172Y296D01*
G01X150Y325D01*
G01X130Y354D01*
G01X111Y384D01*
G01X94Y414D01*
G01X78Y446D01*
G01X63Y478D01*
G01X50Y511D01*
G01X39Y544D01*
G01X28Y578D01*
G01X20Y612D01*
G01X13Y647D01*
G01X7Y682D01*
G01X3Y717D01*
G01X1Y752D01*
G01X0Y787D01*
G01Y7480D01*
G01X1Y7516D01*
G01X3Y7551D01*
G01X7Y7586D01*
G01X13Y7621D01*
G01X20Y7656D01*
G01X28Y7690D01*
G01X39Y7724D01*
G01X50Y7757D01*
G01X63Y7790D01*
G01X78Y7822D01*
G01X94Y7853D01*
G01X111Y7884D01*
G01X130Y7914D01*
G01X150Y7943D01*
G01X172Y7971D01*
G01X194Y7998D01*
G01X218Y8024D01*
G01X243Y8049D01*
G01X269Y8073D01*
G01X296Y8096D01*
G01X325Y8117D01*
G01X354Y8137D01*
G01X384Y8156D01*
G01X414Y8174D01*
G01X446Y8190D01*
G01X478Y8204D01*
G01X511Y8218D01*
G01X544Y8229D01*
G01X578Y8239D01*
G01X612Y8248D01*
G01X647Y8255D01*
G01X682Y8261D01*
G01X717Y8265D01*
G01X752Y8267D01*
G01X787Y8268D01*
G01X7480D01*
G01X7516Y8267D01*
G01X7551Y8265D01*
G01X7586Y8261D01*
G01X7621Y8255D01*
G01X7656Y8248D01*
G01X7690Y8239D01*
G01X7724Y8229D01*
G01X7757Y8218D01*
G01X7790Y8204D01*
G01X7822Y8190D01*
G01X7853Y8174D01*
G01X7884Y8156D01*
G01X7914Y8137D01*
G01X7943Y8117D01*
G01X7971Y8096D01*
G01X7998Y8073D01*
G01X8024Y8049D01*
G01X8049Y8024D01*
G01X8073Y7998D01*
G01X8096Y7971D01*
G01X8117Y7943D01*
G01X8137Y7914D01*
G01X8156Y7884D01*
G01X8174Y7853D01*
G01X8190Y7822D01*
G01X8204Y7790D01*
G01X8218Y7757D01*
G01X8229Y7724D01*
G01X8239Y7690D01*
G01X8248Y7656D01*
G01X8255Y7621D01*
G01X8261Y7586D01*
G01X8265Y7551D01*
G01X8267Y7516D01*
G01X8268Y7480D01*
G01Y787D01*
G01X8267Y752D01*
G01X8265Y717D01*
G01X8261Y682D01*
G01X8255Y647D01*
G01X8248Y612D01*
G01X8239Y578D01*
G01X8229Y544D01*
G01X8218Y511D01*
G01X8204Y478D01*
G01X8190Y446D01*
G01X8174Y414D01*
G01X8156Y384D01*
G01X8137Y354D01*
G01X8117Y325D01*
G01X8096Y296D01*
G01X8073Y269D01*
G01X8049Y243D01*
G01X8024Y218D01*
G01X7998Y194D01*
G01X7971Y172D01*
G01X7943Y150D01*
G01X7914Y130D01*
G01X7884Y111D01*
G01X7853Y94D01*
G01X7822Y78D01*
G01X7790Y63D01*
G01X7757Y50D01*
G01X7724Y39D01*
G01X7690Y28D01*
G01X7656Y20D01*
G01X7621Y13D01*
G01X7586Y7D01*
G01X7551Y3D01*
G01X7516Y1D01*
G01X7480Y0D01*
G01X787D01*
G37*
M02*

