G04 ===== Begin FILE IDENTIFICATION =====*
G04 File Format:  Gerber RS274X*
G04 ===== End FILE IDENTIFICATION =====*
%FSLAX24Y24*%
%MOIN*%
%SFA1.0000B1.0000*%
%OFA0.0B0.0*%
%ADD10C,0.000984*%
%LNbottom*%
%IPPOS*%
%LPD*%
G75*
G36*
G01X0Y787D02*
G01X1Y752D01*
G01X3Y717D01*
G01X7Y682D01*
G01X13Y647D01*
G01X20Y612D01*
G01X28Y578D01*
G01X39Y544D01*
G01X50Y511D01*
G01X63Y478D01*
G01X78Y446D01*
G01X94Y414D01*
G01X111Y384D01*
G01X130Y354D01*
G01X150Y325D01*
G01X172Y296D01*
G01X194Y269D01*
G01X218Y243D01*
G01X243Y218D01*
G01X269Y194D01*
G01X296Y172D01*
G01X325Y150D01*
G01X354Y130D01*
G01X384Y111D01*
G01X414Y94D01*
G01X446Y78D01*
G01X478Y63D01*
G01X511Y50D01*
G01X544Y39D01*
G01X578Y28D01*
G01X612Y20D01*
G01X647Y13D01*
G01X682Y7D01*
G01X717Y3D01*
G01X752Y1D01*
G01X787Y0D01*
G01X7480D01*
G01X7516Y1D01*
G01X7551Y3D01*
G01X7586Y7D01*
G01X7621Y13D01*
G01X7656Y20D01*
G01X7690Y28D01*
G01X7724Y39D01*
G01X7757Y50D01*
G01X7790Y63D01*
G01X7822Y78D01*
G01X7853Y94D01*
G01X7884Y111D01*
G01X7914Y130D01*
G01X7943Y150D01*
G01X7971Y172D01*
G01X7998Y194D01*
G01X8024Y218D01*
G01X8049Y243D01*
G01X8073Y269D01*
G01X8096Y296D01*
G01X8117Y325D01*
G01X8137Y354D01*
G01X8156Y384D01*
G01X8174Y414D01*
G01X8190Y446D01*
G01X8204Y478D01*
G01X8218Y511D01*
G01X8229Y544D01*
G01X8239Y578D01*
G01X8248Y612D01*
G01X8255Y647D01*
G01X8261Y682D01*
G01X8265Y717D01*
G01X8267Y752D01*
G01X8268Y787D01*
G01Y7480D01*
G01X8267Y7516D01*
G01X8265Y7551D01*
G01X8261Y7586D01*
G01X8255Y7621D01*
G01X8248Y7656D01*
G01X8239Y7690D01*
G01X8229Y7724D01*
G01X8218Y7757D01*
G01X8204Y7790D01*
G01X8190Y7822D01*
G01X8174Y7853D01*
G01X8156Y7884D01*
G01X8137Y7914D01*
G01X8117Y7943D01*
G01X8096Y7971D01*
G01X8073Y7998D01*
G01X8049Y8024D01*
G01X8024Y8049D01*
G01X7998Y8073D01*
G01X7971Y8096D01*
G01X7943Y8117D01*
G01X7914Y8137D01*
G01X7884Y8156D01*
G01X7853Y8174D01*
G01X7822Y8190D01*
G01X7790Y8204D01*
G01X7757Y8218D01*
G01X7724Y8229D01*
G01X7690Y8239D01*
G01X7656Y8248D01*
G01X7621Y8255D01*
G01X7586Y8261D01*
G01X7551Y8265D01*
G01X7516Y8267D01*
G01X7480Y8268D01*
G01X2063D01*
G01Y6279D01*
G01X2074D01*
G01X2084Y6278D01*
G01X2095Y6274D01*
G01X2104Y6270D01*
G01X2113Y6264D01*
G01X2121Y6258D01*
G01X2129Y6250D01*
G01X2135Y6241D01*
G01X2139Y6232D01*
G01X2143Y6222D01*
G01X2145Y6211D01*
G01X2146Y6201D01*
G01X6122D01*
G01X6123Y6211D01*
G01X6125Y6222D01*
G01X6128Y6232D01*
G01X6133Y6241D01*
G01X6139Y6250D01*
G01X6146Y6258D01*
G01X6154Y6264D01*
G01X6163Y6270D01*
G01X6173Y6274D01*
G01X6183Y6278D01*
G01X6194Y6279D01*
G01X6204D01*
G01X6215Y6278D01*
G01X6225Y6276D01*
G01X6235Y6272D01*
G01X6244Y6266D01*
G01X6253Y6260D01*
G01X6260Y6253D01*
G01X6266Y6244D01*
G01X6272Y6235D01*
G01X6276Y6225D01*
G01X6278Y6215D01*
G01X6279Y6204D01*
G01Y6194D01*
G01X6278Y6183D01*
G01X6274Y6173D01*
G01X6270Y6163D01*
G01X6264Y6154D01*
G01X6258Y6146D01*
G01X6250Y6139D01*
G01X6241Y6133D01*
G01X6232Y6128D01*
G01X6222Y6125D01*
G01X6211Y6123D01*
G01X6201Y6122D01*
G01Y2146D01*
G01X6211Y2145D01*
G01X6222Y2143D01*
G01X6232Y2139D01*
G01X6241Y2135D01*
G01X6250Y2129D01*
G01X6258Y2121D01*
G01X6264Y2113D01*
G01X6270Y2104D01*
G01X6274Y2095D01*
G01X6278Y2084D01*
G01X6279Y2074D01*
G01Y2063D01*
G01X6278Y2053D01*
G01X6276Y2043D01*
G01X6272Y2033D01*
G01X6266Y2024D01*
G01X6260Y2015D01*
G01X6253Y2008D01*
G01X6244Y2001D01*
G01X6235Y1996D01*
G01X6225Y1992D01*
G01X6215Y1989D01*
G01X6204Y1988D01*
G01X6194Y1989D01*
G01X6183Y1990D01*
G01X6173Y1993D01*
G01X6163Y1998D01*
G01X6154Y2003D01*
G01X6146Y2010D01*
G01X6139Y2018D01*
G01X6133Y2027D01*
G01X6128Y2036D01*
G01X6125Y2046D01*
G01X6123Y2056D01*
G01X6122Y2067D01*
G01X2146D01*
G01X2145Y2056D01*
G01X2143Y2046D01*
G01X2139Y2036D01*
G01X2135Y2027D01*
G01X2129Y2018D01*
G01X2121Y2010D01*
G01X2113Y2003D01*
G01X2104Y1998D01*
G01X2095Y1993D01*
G01X2084Y1990D01*
G01X2074Y1989D01*
G01X2063Y1988D01*
G01X2053Y1989D01*
G01X2043Y1992D01*
G01X2033Y1996D01*
G01X2024Y2001D01*
G01X2015Y2008D01*
G01X2008Y2015D01*
G01X2001Y2024D01*
G01X1996Y2033D01*
G01X1992Y2043D01*
G01X1989Y2053D01*
G01X1988Y2063D01*
G01X1989Y2074D01*
G01X1990Y2084D01*
G01X1993Y2095D01*
G01X1998Y2104D01*
G01X2003Y2113D01*
G01X2010Y2121D01*
G01X2018Y2129D01*
G01X2027Y2135D01*
G01X2036Y2139D01*
G01X2046Y2143D01*
G01X2056Y2145D01*
G01X2067Y2146D01*
G01Y6122D01*
G01X2056Y6123D01*
G01X2046Y6125D01*
G01X2036Y6128D01*
G01X2027Y6133D01*
G01X2018Y6139D01*
G01X2010Y6146D01*
G01X2003Y6154D01*
G01X1998Y6163D01*
G01X1993Y6173D01*
G01X1990Y6183D01*
G01X1989Y6194D01*
G01X1988Y6204D01*
G01X1989Y6215D01*
G01X1992Y6225D01*
G01X1996Y6235D01*
G01X2001Y6244D01*
G01X2008Y6253D01*
G01X2015Y6260D01*
G01X2024Y6266D01*
G01X2033Y6272D01*
G01X2043Y6276D01*
G01X2053Y6278D01*
G01X2063Y6279D01*
G01Y8268D01*
G01X787D01*
G01X752Y8267D01*
G01X717Y8265D01*
G01X682Y8261D01*
G01X647Y8255D01*
G01X612Y8248D01*
G01X578Y8239D01*
G01X544Y8229D01*
G01X511Y8218D01*
G01X478Y8204D01*
G01X446Y8190D01*
G01X414Y8174D01*
G01X384Y8156D01*
G01X354Y8137D01*
G01X325Y8117D01*
G01X296Y8096D01*
G01X269Y8073D01*
G01X243Y8049D01*
G01X218Y8024D01*
G01X194Y7998D01*
G01X172Y7971D01*
G01X150Y7943D01*
G01X130Y7914D01*
G01X111Y7884D01*
G01X94Y7853D01*
G01X78Y7822D01*
G01X63Y7790D01*
G01X50Y7757D01*
G01X39Y7724D01*
G01X28Y7690D01*
G01X20Y7656D01*
G01X13Y7621D01*
G01X7Y7586D01*
G01X3Y7551D01*
G01X1Y7516D01*
G01X0Y7480D01*
G01Y787D01*
G37*
M02*

