G04 ===== Begin FILE IDENTIFICATION =====*
G04 File Format:  Gerber RS274X*
G04 ===== End FILE IDENTIFICATION =====*
%FSLAX24Y24*%
%MOIN*%
%SFA1.0000B1.0000*%
%OFA0.0B0.0*%
%ADD10C,0.000984*%
%LNsilk_screen2*%
%IPPOS*%
%LPD*%
G75*
G36*
G01X4095Y435D02*
G01X4019Y449D01*
G01X3946Y476D01*
G01X3879Y516D01*
G01X3821Y567D01*
G01X3772Y628D01*
G01X3736Y696D01*
G01X3712Y770D01*
G01X3701Y847D01*
G01X3705Y924D01*
G01X3722Y1000D01*
G01X3752Y1071D01*
G01X3795Y1136D01*
G01X3849Y1192D01*
G01X3912Y1238D01*
G01X3982Y1272D01*
G01X4057Y1292D01*
G01X4134Y1299D01*
G01X4211Y1292D01*
G01X4286Y1272D01*
G01X4356Y1238D01*
G01X4419Y1192D01*
G01X4472Y1136D01*
G01X4515Y1071D01*
G01X4546Y1000D01*
G01X4563Y924D01*
G01X4566Y847D01*
G01X4556Y770D01*
G01X4532Y696D01*
G01X4495Y628D01*
G01X4447Y567D01*
G01X4388Y516D01*
G01X4322Y476D01*
G01X4249Y449D01*
G01X4173Y435D01*
G01X4095D01*
G37*
G36*
G01X7421Y3701D02*
G01X7343Y3705D01*
G01X7268Y3722D01*
G01X7196Y3752D01*
G01X7132Y3795D01*
G01X7075Y3849D01*
G01X7030Y3912D01*
G01X6996Y3982D01*
G01X6975Y4057D01*
G01X6969Y4134D01*
G01X6975Y4211D01*
G01X6996Y4286D01*
G01X7030Y4356D01*
G01X7075Y4419D01*
G01X7132Y4472D01*
G01X7196Y4515D01*
G01X7268Y4546D01*
G01X7343Y4563D01*
G01X7421Y4566D01*
G01X7498Y4556D01*
G01X7572Y4532D01*
G01X7640Y4495D01*
G01X7701Y4447D01*
G01X7752Y4388D01*
G01X7792Y4322D01*
G01X7819Y4249D01*
G01X7833Y4173D01*
G01Y4095D01*
G01X7819Y4019D01*
G01X7792Y3946D01*
G01X7752Y3879D01*
G01X7701Y3821D01*
G01X7640Y3772D01*
G01X7572Y3736D01*
G01X7498Y3712D01*
G01X7421Y3701D01*
G37*
G36*
G01X4134Y6969D02*
G01X4057Y6975D01*
G01X3982Y6996D01*
G01X3912Y7030D01*
G01X3849Y7075D01*
G01X3795Y7132D01*
G01X3752Y7196D01*
G01X3722Y7268D01*
G01X3705Y7343D01*
G01X3701Y7421D01*
G01X3712Y7498D01*
G01X3736Y7572D01*
G01X3772Y7640D01*
G01X3821Y7701D01*
G01X3879Y7752D01*
G01X3946Y7792D01*
G01X4019Y7819D01*
G01X4095Y7833D01*
G01X4173D01*
G01X4249Y7819D01*
G01X4322Y7792D01*
G01X4388Y7752D01*
G01X4447Y7701D01*
G01X4495Y7640D01*
G01X4532Y7572D01*
G01X4556Y7498D01*
G01X4566Y7421D01*
G01X4563Y7343D01*
G01X4546Y7268D01*
G01X4515Y7196D01*
G01X4472Y7132D01*
G01X4419Y7075D01*
G01X4356Y7030D01*
G01X4286Y6996D01*
G01X4211Y6975D01*
G01X4134Y6969D01*
G37*
G36*
G01X847Y3701D02*
G01X770Y3712D01*
G01X696Y3736D01*
G01X628Y3772D01*
G01X567Y3821D01*
G01X516Y3879D01*
G01X476Y3946D01*
G01X449Y4019D01*
G01X435Y4095D01*
G01Y4173D01*
G01X449Y4249D01*
G01X476Y4322D01*
G01X516Y4388D01*
G01X567Y4447D01*
G01X628Y4495D01*
G01X696Y4532D01*
G01X770Y4556D01*
G01X847Y4566D01*
G01X924Y4563D01*
G01X1000Y4546D01*
G01X1071Y4515D01*
G01X1136Y4472D01*
G01X1192Y4419D01*
G01X1238Y4356D01*
G01X1272Y4286D01*
G01X1292Y4211D01*
G01X1299Y4134D01*
G01X1292Y4057D01*
G01X1272Y3982D01*
G01X1238Y3912D01*
G01X1192Y3849D01*
G01X1136Y3795D01*
G01X1071Y3752D01*
G01X1000Y3722D01*
G01X924Y3705D01*
G01X847Y3701D01*
G37*
M02*

