G04 ===== Begin FILE IDENTIFICATION =====*
G04 File Format:  Gerber RS274X*
G04 ===== End FILE IDENTIFICATION =====*
%FSLAX24Y24*%
%MOIN*%
%SFA1.0000B1.0000*%
%OFA0.0B0.0*%
%ADD10C,0.000984*%
%LNsilk_screen*%
%IPPOS*%
%LPD*%
G75*
G36*
G01X2063Y1988D02*
G01X2053Y1989D01*
G01X2043Y1992D01*
G01X2033Y1996D01*
G01X2024Y2001D01*
G01X2015Y2008D01*
G01X2008Y2015D01*
G01X2001Y2024D01*
G01X1996Y2033D01*
G01X1992Y2043D01*
G01X1989Y2053D01*
G01X1988Y2063D01*
G01X1989Y2074D01*
G01X1990Y2084D01*
G01X1993Y2095D01*
G01X1998Y2104D01*
G01X2003Y2113D01*
G01X2010Y2121D01*
G01X2018Y2129D01*
G01X2027Y2135D01*
G01X2036Y2139D01*
G01X2046Y2143D01*
G01X2056Y2145D01*
G01X2067Y2146D01*
G01Y6122D01*
G01X2056Y6123D01*
G01X2046Y6125D01*
G01X2036Y6128D01*
G01X2027Y6133D01*
G01X2018Y6139D01*
G01X2010Y6146D01*
G01X2003Y6154D01*
G01X1998Y6163D01*
G01X1993Y6173D01*
G01X1990Y6183D01*
G01X1989Y6194D01*
G01X1988Y6204D01*
G01X1989Y6215D01*
G01X1992Y6225D01*
G01X1996Y6235D01*
G01X2001Y6244D01*
G01X2008Y6253D01*
G01X2015Y6260D01*
G01X2024Y6266D01*
G01X2033Y6272D01*
G01X2043Y6276D01*
G01X2053Y6278D01*
G01X2063Y6279D01*
G01X2074D01*
G01X2084Y6278D01*
G01X2095Y6274D01*
G01X2104Y6270D01*
G01X2113Y6264D01*
G01X2121Y6258D01*
G01X2129Y6250D01*
G01X2135Y6241D01*
G01X2139Y6232D01*
G01X2143Y6222D01*
G01X2145Y6211D01*
G01X2146Y6201D01*
G01X6122D01*
G01X6123Y6211D01*
G01X6125Y6222D01*
G01X6128Y6232D01*
G01X6133Y6241D01*
G01X6139Y6250D01*
G01X6146Y6258D01*
G01X6154Y6264D01*
G01X6163Y6270D01*
G01X6173Y6274D01*
G01X6183Y6278D01*
G01X6194Y6279D01*
G01X6204D01*
G01X6215Y6278D01*
G01X6225Y6276D01*
G01X6235Y6272D01*
G01X6244Y6266D01*
G01X6253Y6260D01*
G01X6260Y6253D01*
G01X6266Y6244D01*
G01X6272Y6235D01*
G01X6276Y6225D01*
G01X6278Y6215D01*
G01X6279Y6204D01*
G01Y6194D01*
G01X6278Y6183D01*
G01X6274Y6173D01*
G01X6270Y6163D01*
G01X6264Y6154D01*
G01X6258Y6146D01*
G01X6250Y6139D01*
G01X6241Y6133D01*
G01X6232Y6128D01*
G01X6222Y6125D01*
G01X6211Y6123D01*
G01X6201Y6122D01*
G01Y2146D01*
G01X6211Y2145D01*
G01X6222Y2143D01*
G01X6232Y2139D01*
G01X6241Y2135D01*
G01X6250Y2129D01*
G01X6258Y2121D01*
G01X6264Y2113D01*
G01X6270Y2104D01*
G01X6274Y2095D01*
G01X6278Y2084D01*
G01X6279Y2074D01*
G01Y2063D01*
G01X6278Y2053D01*
G01X6276Y2043D01*
G01X6272Y2033D01*
G01X6266Y2024D01*
G01X6260Y2015D01*
G01X6253Y2008D01*
G01X6244Y2001D01*
G01X6235Y1996D01*
G01X6225Y1992D01*
G01X6215Y1989D01*
G01X6204Y1988D01*
G01X6194Y1989D01*
G01X6183Y1990D01*
G01X6173Y1993D01*
G01X6163Y1998D01*
G01X6154Y2003D01*
G01X6146Y2010D01*
G01X6139Y2018D01*
G01X6133Y2027D01*
G01X6128Y2036D01*
G01X6125Y2046D01*
G01X6123Y2056D01*
G01X6122Y2067D01*
G01X2146D01*
G01X2145Y2056D01*
G01X2143Y2046D01*
G01X2139Y2036D01*
G01X2135Y2027D01*
G01X2129Y2018D01*
G01X2121Y2010D01*
G01X2113Y2003D01*
G01X2104Y1998D01*
G01X2095Y1993D01*
G01X2084Y1990D01*
G01X2074Y1989D01*
G01X2063Y1988D01*
G37*
M02*

