G04 ===== Begin FILE IDENTIFICATION =====*
G04 File Format:  Gerber RS274X*
G04 ===== End FILE IDENTIFICATION =====*
%FSLAX24Y24*%
%MOIN*%
%SFA1.0000B1.0000*%
%OFA0.0B0.0*%
%ADD10C,0.000984*%
%LNtop*%
%IPPOS*%
%LPD*%
G75*
G36*
G01X6201Y5150D02*
G01Y6122D01*
G01X6211Y6123D01*
G01X6222Y6125D01*
G01X6232Y6128D01*
G01X6241Y6133D01*
G01X6250Y6139D01*
G01X6258Y6146D01*
G01X6264Y6154D01*
G01X6270Y6163D01*
G01X6274Y6173D01*
G01X6278Y6183D01*
G01X6279Y6194D01*
G01Y6204D01*
G01X6278Y6215D01*
G01X6276Y6225D01*
G01X6272Y6235D01*
G01X6266Y6244D01*
G01X6260Y6253D01*
G01X6253Y6260D01*
G01X6244Y6266D01*
G01X6235Y6272D01*
G01X6225Y6276D01*
G01X6215Y6278D01*
G01X6204Y6279D01*
G01X6194D01*
G01X6183Y6278D01*
G01X6173Y6274D01*
G01X6163Y6270D01*
G01X6154Y6264D01*
G01X6146Y6258D01*
G01X6139Y6250D01*
G01X6133Y6241D01*
G01X6128Y6232D01*
G01X6125Y6222D01*
G01X6123Y6211D01*
G01X6122Y6201D01*
G01X5150D01*
G01Y6240D01*
G01X5151Y6279D01*
G01X5156Y6317D01*
G01X5165Y6354D01*
G01X5176Y6391D01*
G01X5191Y6426D01*
G01X5209Y6461D01*
G01X5229Y6493D01*
G01X5253Y6524D01*
G01X5279Y6552D01*
G01X5307Y6578D01*
G01X5338Y6601D01*
G01X5370Y6622D01*
G01X5404Y6640D01*
G01X5440Y6655D01*
G01X5476Y6666D01*
G01X5514Y6674D01*
G01X5552Y6679D01*
G01X5591Y6681D01*
G01X5709D01*
G01X5773Y6684D01*
G01X5837Y6692D01*
G01X5900Y6706D01*
G01X5962Y6726D01*
G01X6021Y6750D01*
G01X6079Y6780D01*
G01X6133Y6815D01*
G01X6184Y6854D01*
G01X6232Y6898D01*
G01X6276Y6946D01*
G01X6315Y6997D01*
G01X6350Y7051D01*
G01X6379Y7108D01*
G01X6404Y7168D01*
G01X6424Y7230D01*
G01X6438Y7293D01*
G01X6446Y7357D01*
G01X6449Y7421D01*
G01X6768Y7677D01*
G01Y8268D01*
G01X7480D01*
G01X7516Y8267D01*
G01X7551Y8265D01*
G01X7586Y8261D01*
G01X7621Y8255D01*
G01X7656Y8248D01*
G01X7690Y8239D01*
G01X7724Y8229D01*
G01X7757Y8218D01*
G01X7790Y8204D01*
G01X7822Y8190D01*
G01X7853Y8174D01*
G01X7884Y8156D01*
G01X7914Y8137D01*
G01X7943Y8117D01*
G01X7971Y8096D01*
G01X7998Y8073D01*
G01X8024Y8049D01*
G01X8049Y8024D01*
G01X8073Y7998D01*
G01X8096Y7971D01*
G01X8117Y7943D01*
G01X8137Y7914D01*
G01X8156Y7884D01*
G01X8174Y7853D01*
G01X8190Y7822D01*
G01X8204Y7790D01*
G01X8218Y7757D01*
G01X8229Y7724D01*
G01X8239Y7690D01*
G01X8248Y7656D01*
G01X8255Y7621D01*
G01X8261Y7586D01*
G01X8265Y7551D01*
G01X8267Y7516D01*
G01X8268Y7480D01*
G01Y6768D01*
G01X7677D01*
G01X7459Y6496D01*
G01X7421Y6449D01*
G01X7357Y6446D01*
G01X7293Y6438D01*
G01X7230Y6424D01*
G01X7168Y6404D01*
G01X7108Y6379D01*
G01X7051Y6350D01*
G01X6997Y6315D01*
G01X6946Y6276D01*
G01X6898Y6232D01*
G01X6854Y6184D01*
G01X6815Y6133D01*
G01X6780Y6079D01*
G01X6750Y6021D01*
G01X6726Y5962D01*
G01X6706Y5900D01*
G01X6692Y5837D01*
G01X6684Y5773D01*
G01X6681Y5709D01*
G01Y5591D01*
G01X6679Y5552D01*
G01X6674Y5514D01*
G01X6666Y5476D01*
G01X6655Y5440D01*
G01X6640Y5404D01*
G01X6622Y5370D01*
G01X6601Y5338D01*
G01X6578Y5307D01*
G01X6552Y5279D01*
G01X6524Y5253D01*
G01X6493Y5229D01*
G01X6461Y5209D01*
G01X6426Y5191D01*
G01X6391Y5176D01*
G01X6354Y5165D01*
G01X6317Y5156D01*
G01X6279Y5151D01*
G01X6240Y5150D01*
G01X6201D01*
G37*
G36*
G01X3417Y6201D02*
G01Y6240D01*
G01X3416Y6279D01*
G01X3414Y6305D01*
G01X3406Y6369D01*
G01X3392Y6432D01*
G01X3373Y6493D01*
G01X3348Y6553D01*
G01X3318Y6610D01*
G01X3283Y6665D01*
G01X3244Y6716D01*
G01X3201Y6764D01*
G01X3153Y6807D01*
G01X3102Y6846D01*
G01X3047Y6881D01*
G01X2990Y6911D01*
G01X2930Y6936D01*
G01X2869Y6955D01*
G01X2806Y6969D01*
G01X2742Y6977D01*
G01X2677Y6980D01*
G01X2559D01*
G01X2521Y6982D01*
G01X2482Y6987D01*
G01X2445Y6995D01*
G01X2408Y7007D01*
G01X2373Y7022D01*
G01X2339Y7039D01*
G01X2306Y7060D01*
G01X2276Y7083D01*
G01X2247Y7109D01*
G01X2221Y7138D01*
G01X2198Y7168D01*
G01X2177Y7201D01*
G01X2159Y7235D01*
G01X2145Y7270D01*
G01X2133Y7307D01*
G01X2125Y7345D01*
G01X2120Y7383D01*
G01X2118Y7421D01*
G01X2437Y7677D01*
G01Y8268D01*
G01X5831D01*
G01Y7677D01*
G01X6150Y7421D01*
G01X6148Y7383D01*
G01X6143Y7345D01*
G01X6135Y7307D01*
G01X6123Y7270D01*
G01X6108Y7235D01*
G01X6091Y7201D01*
G01X6070Y7168D01*
G01X6046Y7138D01*
G01X6020Y7109D01*
G01X5992Y7083D01*
G01X5962Y7060D01*
G01X5929Y7039D01*
G01X5895Y7022D01*
G01X5859Y7007D01*
G01X5823Y6995D01*
G01X5785Y6987D01*
G01X5747Y6982D01*
G01X5709Y6980D01*
G01X5591D01*
G01X5526Y6977D01*
G01X5462Y6969D01*
G01X5399Y6955D01*
G01X5337Y6936D01*
G01X5278Y6911D01*
G01X5220Y6881D01*
G01X5166Y6846D01*
G01X5115Y6807D01*
G01X5067Y6764D01*
G01X5024Y6716D01*
G01X4984Y6665D01*
G01X4950Y6610D01*
G01X4920Y6553D01*
G01X4895Y6493D01*
G01X4876Y6432D01*
G01X4862Y6369D01*
G01X4853Y6305D01*
G01X4852Y6279D01*
G01X4850Y6240D01*
G01Y6201D01*
G01X3417D01*
G37*
G36*
G01X2028Y5150D02*
G01X1989Y5151D01*
G01X1951Y5156D01*
G01X1913Y5165D01*
G01X1877Y5176D01*
G01X1841Y5191D01*
G01X1807Y5209D01*
G01X1775Y5229D01*
G01X1744Y5253D01*
G01X1716Y5279D01*
G01X1690Y5307D01*
G01X1666Y5338D01*
G01X1646Y5370D01*
G01X1628Y5404D01*
G01X1613Y5440D01*
G01X1602Y5476D01*
G01X1593Y5514D01*
G01X1588Y5552D01*
G01X1587Y5591D01*
G01Y5709D01*
G01X1584Y5773D01*
G01X1575Y5837D01*
G01X1561Y5900D01*
G01X1542Y5962D01*
G01X1517Y6021D01*
G01X1487Y6079D01*
G01X1453Y6133D01*
G01X1413Y6184D01*
G01X1370Y6232D01*
G01X1322Y6276D01*
G01X1317Y6279D01*
G01X1271Y6315D01*
G01X1217Y6350D01*
G01X1159Y6379D01*
G01X1100Y6404D01*
G01X1038Y6424D01*
G01X975Y6438D01*
G01X911Y6446D01*
G01X846Y6449D01*
G01X591Y6768D01*
G01X0D01*
G01Y7480D01*
G01X1Y7516D01*
G01X3Y7551D01*
G01X7Y7586D01*
G01X13Y7621D01*
G01X20Y7656D01*
G01X28Y7690D01*
G01X39Y7724D01*
G01X50Y7757D01*
G01X63Y7790D01*
G01X78Y7822D01*
G01X94Y7853D01*
G01X111Y7884D01*
G01X130Y7914D01*
G01X150Y7943D01*
G01X172Y7971D01*
G01X194Y7998D01*
G01X218Y8024D01*
G01X243Y8049D01*
G01X269Y8073D01*
G01X296Y8096D01*
G01X325Y8117D01*
G01X354Y8137D01*
G01X384Y8156D01*
G01X414Y8174D01*
G01X446Y8190D01*
G01X478Y8204D01*
G01X511Y8218D01*
G01X544Y8229D01*
G01X578Y8239D01*
G01X612Y8248D01*
G01X647Y8255D01*
G01X682Y8261D01*
G01X717Y8265D01*
G01X752Y8267D01*
G01X787Y8268D01*
G01X1500D01*
G01Y7677D01*
G01X1819Y7421D01*
G01X1822Y7357D01*
G01X1830Y7293D01*
G01X1844Y7230D01*
G01X1864Y7168D01*
G01X1888Y7108D01*
G01X1918Y7051D01*
G01X1953Y6997D01*
G01X1992Y6946D01*
G01X2036Y6898D01*
G01X2083Y6854D01*
G01X2135Y6815D01*
G01X2189Y6780D01*
G01X2246Y6750D01*
G01X2306Y6726D01*
G01X2367Y6706D01*
G01X2431Y6692D01*
G01X2495Y6684D01*
G01X2559Y6681D01*
G01X2677D01*
G01X2716Y6679D01*
G01X2754Y6674D01*
G01X2791Y6666D01*
G01X2828Y6655D01*
G01X2864Y6640D01*
G01X2898Y6622D01*
G01X2930Y6601D01*
G01X2961Y6578D01*
G01X2989Y6552D01*
G01X3015Y6524D01*
G01X3038Y6493D01*
G01X3059Y6461D01*
G01X3077Y6426D01*
G01X3092Y6391D01*
G01X3103Y6354D01*
G01X3111Y6317D01*
G01X3116Y6279D01*
G01X3118Y6240D01*
G01Y6201D01*
G01X2146D01*
G01X2145Y6211D01*
G01X2143Y6222D01*
G01X2139Y6232D01*
G01X2135Y6241D01*
G01X2129Y6250D01*
G01X2121Y6258D01*
G01X2113Y6264D01*
G01X2104Y6270D01*
G01X2095Y6274D01*
G01X2084Y6278D01*
G01X2074Y6279D01*
G01X2063D01*
G01X2053Y6278D01*
G01X2043Y6276D01*
G01X2033Y6272D01*
G01X2024Y6266D01*
G01X2015Y6260D01*
G01X2008Y6253D01*
G01X2001Y6244D01*
G01X1996Y6235D01*
G01X1992Y6225D01*
G01X1989Y6215D01*
G01X1988Y6204D01*
G01X1989Y6194D01*
G01X1990Y6183D01*
G01X1993Y6173D01*
G01X1998Y6163D01*
G01X2003Y6154D01*
G01X2010Y6146D01*
G01X2018Y6139D01*
G01X2027Y6133D01*
G01X2036Y6128D01*
G01X2046Y6125D01*
G01X2056Y6123D01*
G01X2067Y6122D01*
G01Y5150D01*
G01X2028D01*
G37*
G36*
G01X4890Y6240D02*
G01X4891Y6279D01*
G01X4892Y6301D01*
G01X4900Y6362D01*
G01X4914Y6422D01*
G01X4932Y6480D01*
G01X4955Y6536D01*
G01X4984Y6591D01*
G01X5016Y6642D01*
G01X5054Y6691D01*
G01X5095Y6736D01*
G01X5140Y6777D01*
G01X5189Y6814D01*
G01X5240Y6847D01*
G01X5294Y6875D01*
G01X5351Y6899D01*
G01X5409Y6917D01*
G01X5469Y6930D01*
G01X5529Y6938D01*
G01X5591Y6941D01*
G01X5709D01*
G01X5751Y6943D01*
G01X5792Y6948D01*
G01X5833Y6957D01*
G01X5873Y6970D01*
G01X5912Y6986D01*
G01X5949Y7005D01*
G01X5984Y7028D01*
G01X6017Y7053D01*
G01X6048Y7082D01*
G01X6077Y7113D01*
G01X6102Y7146D01*
G01X6125Y7181D01*
G01X6144Y7218D01*
G01X6160Y7257D01*
G01X6173Y7297D01*
G01X6182Y7338D01*
G01X6187Y7379D01*
G01X6189Y7421D01*
G01X6102Y7677D01*
G01Y8189D01*
G01X6496D01*
G01Y7677D01*
G01X6409Y7421D01*
G01X6407Y7360D01*
G01X6399Y7300D01*
G01X6386Y7240D01*
G01X6367Y7182D01*
G01X6344Y7125D01*
G01X6316Y7071D01*
G01X6283Y7019D01*
G01X6246Y6971D01*
G01X6204Y6926D01*
G01X6159Y6884D01*
G01X6111Y6847D01*
G01X6059Y6814D01*
G01X6005Y6786D01*
G01X5948Y6763D01*
G01X5890Y6744D01*
G01X5830Y6731D01*
G01X5770Y6723D01*
G01X5709Y6720D01*
G01X5591D01*
G01X5549Y6719D01*
G01X5507Y6713D01*
G01X5466Y6704D01*
G01X5426Y6691D01*
G01X5388Y6675D01*
G01X5350Y6656D01*
G01X5315Y6634D01*
G01X5282Y6608D01*
G01X5251Y6580D01*
G01X5223Y6549D01*
G01X5197Y6516D01*
G01X5175Y6480D01*
G01X5155Y6443D01*
G01X5139Y6404D01*
G01X5127Y6364D01*
G01X5118Y6324D01*
G01X5112Y6282D01*
G01Y6279D01*
G01X5110Y6240D01*
G01X4890D01*
G37*
G36*
G01X3157Y6240D02*
G01X3156Y6279D01*
G01Y6282D01*
G01X3150Y6324D01*
G01X3141Y6364D01*
G01X3129Y6404D01*
G01X3112Y6443D01*
G01X3093Y6480D01*
G01X3071Y6516D01*
G01X3045Y6549D01*
G01X3017Y6580D01*
G01X2986Y6608D01*
G01X2953Y6634D01*
G01X2917Y6656D01*
G01X2880Y6675D01*
G01X2841Y6691D01*
G01X2801Y6704D01*
G01X2761Y6713D01*
G01X2719Y6719D01*
G01X2677Y6720D01*
G01X2559D01*
G01X2498Y6723D01*
G01X2437Y6731D01*
G01X2378Y6744D01*
G01X2319Y6763D01*
G01X2263Y6786D01*
G01X2209Y6814D01*
G01X2157Y6847D01*
G01X2109Y6884D01*
G01X2064Y6926D01*
G01X2022Y6971D01*
G01X1985Y7019D01*
G01X1952Y7071D01*
G01X1924Y7125D01*
G01X1901Y7182D01*
G01X1882Y7240D01*
G01X1869Y7300D01*
G01X1861Y7360D01*
G01X1858Y7421D01*
G01X1772Y7677D01*
G01Y8189D01*
G01X2165D01*
G01Y7677D01*
G01X2079Y7421D01*
G01X2081Y7379D01*
G01X2086Y7338D01*
G01X2095Y7297D01*
G01X2108Y7257D01*
G01X2124Y7218D01*
G01X2143Y7181D01*
G01X2166Y7146D01*
G01X2191Y7113D01*
G01X2219Y7082D01*
G01X2250Y7053D01*
G01X2284Y7028D01*
G01X2319Y7005D01*
G01X2356Y6986D01*
G01X2395Y6970D01*
G01X2435Y6957D01*
G01X2476Y6948D01*
G01X2517Y6943D01*
G01X2559Y6941D01*
G01X2677D01*
G01X2738Y6938D01*
G01X2799Y6930D01*
G01X2859Y6917D01*
G01X2917Y6899D01*
G01X2973Y6875D01*
G01X3028Y6847D01*
G01X3079Y6814D01*
G01X3128Y6777D01*
G01X3173Y6736D01*
G01X3214Y6691D01*
G01X3251Y6642D01*
G01X3284Y6591D01*
G01X3312Y6536D01*
G01X3336Y6480D01*
G01X3354Y6422D01*
G01X3367Y6362D01*
G01X3375Y6301D01*
G01X3376Y6279D01*
G01X3378Y6240D01*
G01X3157D01*
G37*
G36*
G01X6240Y4890D02*
G01Y5110D01*
G01X6282Y5112D01*
G01X6324Y5118D01*
G01X6364Y5127D01*
G01X6404Y5139D01*
G01X6443Y5155D01*
G01X6480Y5175D01*
G01X6516Y5197D01*
G01X6549Y5223D01*
G01X6580Y5251D01*
G01X6608Y5282D01*
G01X6634Y5315D01*
G01X6656Y5350D01*
G01X6675Y5388D01*
G01X6691Y5426D01*
G01X6704Y5466D01*
G01X6713Y5507D01*
G01X6719Y5549D01*
G01X6720Y5591D01*
G01Y5709D01*
G01X6723Y5770D01*
G01X6731Y5830D01*
G01X6744Y5890D01*
G01X6763Y5948D01*
G01X6786Y6005D01*
G01X6814Y6059D01*
G01X6847Y6111D01*
G01X6884Y6159D01*
G01X6926Y6204D01*
G01X6971Y6246D01*
G01X7019Y6283D01*
G01X7071Y6316D01*
G01X7125Y6344D01*
G01X7182Y6367D01*
G01X7240Y6386D01*
G01X7300Y6399D01*
G01X7360Y6407D01*
G01X7421Y6409D01*
G01X7677Y6496D01*
G01X8189D01*
G01Y6102D01*
G01X7677D01*
G01X7421Y6189D01*
G01X7379Y6187D01*
G01X7338Y6182D01*
G01X7297Y6173D01*
G01X7257Y6160D01*
G01X7218Y6144D01*
G01X7181Y6125D01*
G01X7146Y6102D01*
G01X7113Y6077D01*
G01X7082Y6048D01*
G01X7053Y6017D01*
G01X7028Y5984D01*
G01X7005Y5949D01*
G01X6986Y5912D01*
G01X6970Y5873D01*
G01X6957Y5833D01*
G01X6948Y5792D01*
G01X6943Y5751D01*
G01X6941Y5709D01*
G01Y5591D01*
G01X6938Y5529D01*
G01X6930Y5469D01*
G01X6917Y5409D01*
G01X6899Y5351D01*
G01X6875Y5294D01*
G01X6847Y5240D01*
G01X6814Y5189D01*
G01X6777Y5140D01*
G01X6736Y5095D01*
G01X6691Y5054D01*
G01X6642Y5016D01*
G01X6591Y4984D01*
G01X6536Y4955D01*
G01X6480Y4932D01*
G01X6422Y4914D01*
G01X6362Y4900D01*
G01X6301Y4892D01*
G01X6240Y4890D01*
G37*
G36*
G01X2028Y4890D02*
G01X1966Y4892D01*
G01X1906Y4900D01*
G01X1846Y4914D01*
G01X1788Y4932D01*
G01X1731Y4955D01*
G01X1677Y4984D01*
G01X1626Y5016D01*
G01X1577Y5054D01*
G01X1532Y5095D01*
G01X1491Y5140D01*
G01X1454Y5189D01*
G01X1421Y5240D01*
G01X1392Y5294D01*
G01X1369Y5351D01*
G01X1351Y5409D01*
G01X1337Y5469D01*
G01X1329Y5529D01*
G01X1327Y5591D01*
G01Y5709D01*
G01X1325Y5751D01*
G01X1319Y5792D01*
G01X1310Y5833D01*
G01X1298Y5873D01*
G01X1282Y5912D01*
G01X1262Y5949D01*
G01X1240Y5984D01*
G01X1214Y6017D01*
G01X1186Y6048D01*
G01X1155Y6077D01*
G01X1122Y6102D01*
G01X1087Y6125D01*
G01X1049Y6144D01*
G01X1011Y6160D01*
G01X971Y6173D01*
G01X930Y6182D01*
G01X888Y6187D01*
G01X846Y6189D01*
G01X591Y6102D01*
G01X79D01*
G01Y6496D01*
G01X591D01*
G01X846Y6409D01*
G01X908Y6407D01*
G01X968Y6399D01*
G01X1028Y6386D01*
G01X1086Y6367D01*
G01X1143Y6344D01*
G01X1197Y6316D01*
G01X1248Y6283D01*
G01X1253Y6279D01*
G01X1297Y6246D01*
G01X1342Y6204D01*
G01X1383Y6159D01*
G01X1421Y6111D01*
G01X1453Y6059D01*
G01X1482Y6005D01*
G01X1505Y5948D01*
G01X1523Y5890D01*
G01X1537Y5830D01*
G01X1545Y5770D01*
G01X1547Y5709D01*
G01Y5591D01*
G01X1549Y5549D01*
G01X1555Y5507D01*
G01X1564Y5466D01*
G01X1576Y5426D01*
G01X1592Y5388D01*
G01X1612Y5350D01*
G01X1634Y5315D01*
G01X1660Y5282D01*
G01X1688Y5251D01*
G01X1719Y5223D01*
G01X1752Y5197D01*
G01X1787Y5175D01*
G01X1825Y5155D01*
G01X1863Y5139D01*
G01X1903Y5127D01*
G01X1944Y5118D01*
G01X1986Y5112D01*
G01X2028Y5110D01*
G01Y4890D01*
G37*
G36*
G01X7421Y2118D02*
G01X7383Y2120D01*
G01X7345Y2125D01*
G01X7307Y2133D01*
G01X7270Y2145D01*
G01X7235Y2159D01*
G01X7201Y2177D01*
G01X7168Y2198D01*
G01X7138Y2221D01*
G01X7109Y2247D01*
G01X7083Y2276D01*
G01X7060Y2306D01*
G01X7039Y2339D01*
G01X7022Y2373D01*
G01X7007Y2408D01*
G01X6995Y2445D01*
G01X6987Y2482D01*
G01X6982Y2521D01*
G01X6980Y2559D01*
G01Y2677D01*
G01X6977Y2742D01*
G01X6969Y2806D01*
G01X6955Y2869D01*
G01X6936Y2930D01*
G01X6911Y2990D01*
G01X6881Y3047D01*
G01X6846Y3102D01*
G01X6807Y3153D01*
G01X6764Y3201D01*
G01X6716Y3244D01*
G01X6665Y3283D01*
G01X6610Y3318D01*
G01X6553Y3348D01*
G01X6493Y3373D01*
G01X6432Y3392D01*
G01X6369Y3406D01*
G01X6305Y3414D01*
G01X6240Y3417D01*
G01X6201D01*
G01Y4850D01*
G01X6240D01*
G01X6305Y4853D01*
G01X6369Y4862D01*
G01X6432Y4876D01*
G01X6493Y4895D01*
G01X6553Y4920D01*
G01X6610Y4950D01*
G01X6665Y4984D01*
G01X6716Y5024D01*
G01X6764Y5067D01*
G01X6807Y5115D01*
G01X6846Y5166D01*
G01X6881Y5220D01*
G01X6911Y5278D01*
G01X6936Y5337D01*
G01X6955Y5399D01*
G01X6969Y5462D01*
G01X6977Y5526D01*
G01X6980Y5591D01*
G01Y5709D01*
G01X6982Y5747D01*
G01X6987Y5785D01*
G01X6995Y5823D01*
G01X7007Y5859D01*
G01X7022Y5895D01*
G01X7039Y5929D01*
G01X7060Y5962D01*
G01X7083Y5992D01*
G01X7109Y6020D01*
G01X7138Y6046D01*
G01X7168Y6070D01*
G01X7201Y6091D01*
G01X7235Y6108D01*
G01X7270Y6123D01*
G01X7307Y6135D01*
G01X7345Y6143D01*
G01X7383Y6148D01*
G01X7421Y6150D01*
G01X7677Y5831D01*
G01X8268D01*
G01Y2437D01*
G01X7677D01*
G01X7421Y2118D01*
G37*
G36*
G01X846Y2118D02*
G01X591Y2437D01*
G01X0D01*
G01Y5831D01*
G01X591D01*
G01X846Y6150D01*
G01X885Y6148D01*
G01X923Y6143D01*
G01X961Y6135D01*
G01X997Y6123D01*
G01X1033Y6108D01*
G01X1067Y6091D01*
G01X1099Y6070D01*
G01X1130Y6046D01*
G01X1158Y6020D01*
G01X1184Y5992D01*
G01X1208Y5962D01*
G01X1228Y5929D01*
G01X1246Y5895D01*
G01X1261Y5859D01*
G01X1272Y5823D01*
G01X1281Y5785D01*
G01X1286Y5747D01*
G01X1287Y5709D01*
G01Y5591D01*
G01X1290Y5526D01*
G01X1299Y5462D01*
G01X1313Y5399D01*
G01X1332Y5337D01*
G01X1357Y5278D01*
G01X1387Y5220D01*
G01X1421Y5166D01*
G01X1461Y5115D01*
G01X1504Y5067D01*
G01X1552Y5024D01*
G01X1603Y4984D01*
G01X1657Y4950D01*
G01X1715Y4920D01*
G01X1774Y4895D01*
G01X1836Y4876D01*
G01X1899Y4862D01*
G01X1963Y4853D01*
G01X2028Y4850D01*
G01X2067D01*
G01Y3417D01*
G01X2028D01*
G01X1963Y3414D01*
G01X1899Y3406D01*
G01X1836Y3392D01*
G01X1791Y3378D01*
G01X1774Y3373D01*
G01X1715Y3348D01*
G01X1657Y3318D01*
G01X1603Y3283D01*
G01X1552Y3244D01*
G01X1504Y3201D01*
G01X1461Y3153D01*
G01X1421Y3102D01*
G01X1387Y3047D01*
G01X1357Y2990D01*
G01X1332Y2930D01*
G01X1313Y2869D01*
G01X1299Y2806D01*
G01X1290Y2742D01*
G01X1287Y2677D01*
G01Y2559D01*
G01X1286Y2521D01*
G01X1281Y2482D01*
G01X1272Y2445D01*
G01X1261Y2408D01*
G01X1246Y2373D01*
G01X1228Y2339D01*
G01X1208Y2306D01*
G01X1184Y2276D01*
G01X1158Y2247D01*
G01X1130Y2221D01*
G01X1099Y2198D01*
G01X1067Y2177D01*
G01X1033Y2159D01*
G01X997Y2145D01*
G01X961Y2133D01*
G01X923Y2125D01*
G01X885Y2120D01*
G01X846Y2118D01*
G37*
G36*
G01X7677Y1772D02*
G01X7421Y1858D01*
G01X7360Y1861D01*
G01X7300Y1869D01*
G01X7240Y1882D01*
G01X7182Y1901D01*
G01X7125Y1924D01*
G01X7071Y1952D01*
G01X7019Y1985D01*
G01X6971Y2022D01*
G01X6926Y2064D01*
G01X6884Y2109D01*
G01X6847Y2157D01*
G01X6814Y2209D01*
G01X6786Y2263D01*
G01X6763Y2319D01*
G01X6744Y2378D01*
G01X6731Y2437D01*
G01X6723Y2498D01*
G01X6720Y2559D01*
G01Y2677D01*
G01X6719Y2719D01*
G01X6713Y2761D01*
G01X6704Y2801D01*
G01X6691Y2841D01*
G01X6675Y2880D01*
G01X6656Y2917D01*
G01X6634Y2953D01*
G01X6608Y2986D01*
G01X6580Y3017D01*
G01X6549Y3045D01*
G01X6516Y3071D01*
G01X6480Y3093D01*
G01X6443Y3112D01*
G01X6404Y3129D01*
G01X6364Y3141D01*
G01X6324Y3150D01*
G01X6282Y3156D01*
G01X6240Y3157D01*
G01Y3378D01*
G01X6301Y3375D01*
G01X6362Y3367D01*
G01X6422Y3354D01*
G01X6480Y3336D01*
G01X6536Y3312D01*
G01X6591Y3284D01*
G01X6642Y3251D01*
G01X6691Y3214D01*
G01X6736Y3173D01*
G01X6777Y3128D01*
G01X6814Y3079D01*
G01X6847Y3028D01*
G01X6875Y2973D01*
G01X6899Y2917D01*
G01X6917Y2859D01*
G01X6930Y2799D01*
G01X6938Y2738D01*
G01X6941Y2677D01*
G01Y2559D01*
G01X6943Y2517D01*
G01X6948Y2476D01*
G01X6957Y2435D01*
G01X6970Y2395D01*
G01X6986Y2356D01*
G01X7005Y2319D01*
G01X7028Y2284D01*
G01X7053Y2250D01*
G01X7082Y2219D01*
G01X7113Y2191D01*
G01X7146Y2166D01*
G01X7181Y2143D01*
G01X7218Y2124D01*
G01X7257Y2108D01*
G01X7297Y2095D01*
G01X7338Y2086D01*
G01X7379Y2081D01*
G01X7421Y2079D01*
G01X7677Y2165D01*
G01X8189D01*
G01Y1772D01*
G01X7677D01*
G37*
G36*
G01X79Y1772D02*
G01Y2165D01*
G01X591D01*
G01X846Y2079D01*
G01X888Y2081D01*
G01X930Y2086D01*
G01X971Y2095D01*
G01X1011Y2108D01*
G01X1049Y2124D01*
G01X1087Y2143D01*
G01X1122Y2166D01*
G01X1155Y2191D01*
G01X1186Y2219D01*
G01X1214Y2250D01*
G01X1240Y2284D01*
G01X1262Y2319D01*
G01X1282Y2356D01*
G01X1298Y2395D01*
G01X1310Y2435D01*
G01X1319Y2476D01*
G01X1325Y2517D01*
G01X1327Y2559D01*
G01Y2677D01*
G01X1329Y2738D01*
G01X1337Y2799D01*
G01X1351Y2859D01*
G01X1369Y2917D01*
G01X1392Y2973D01*
G01X1421Y3028D01*
G01X1454Y3079D01*
G01X1491Y3128D01*
G01X1532Y3173D01*
G01X1577Y3214D01*
G01X1626Y3251D01*
G01X1677Y3284D01*
G01X1731Y3312D01*
G01X1788Y3336D01*
G01X1846Y3354D01*
G01X1906Y3367D01*
G01X1966Y3375D01*
G01X2028Y3378D01*
G01Y3157D01*
G01X1986Y3156D01*
G01X1944Y3150D01*
G01X1903Y3141D01*
G01X1863Y3129D01*
G01X1825Y3112D01*
G01X1787Y3093D01*
G01X1752Y3071D01*
G01X1719Y3045D01*
G01X1688Y3017D01*
G01X1660Y2986D01*
G01X1634Y2953D01*
G01X1612Y2917D01*
G01X1592Y2880D01*
G01X1576Y2841D01*
G01X1564Y2801D01*
G01X1555Y2761D01*
G01X1549Y2719D01*
G01X1547Y2677D01*
G01Y2559D01*
G01X1545Y2498D01*
G01X1537Y2437D01*
G01X1523Y2378D01*
G01X1505Y2319D01*
G01X1482Y2263D01*
G01X1453Y2209D01*
G01X1421Y2157D01*
G01X1383Y2109D01*
G01X1342Y2064D01*
G01X1297Y2022D01*
G01X1248Y1985D01*
G01X1197Y1952D01*
G01X1143Y1924D01*
G01X1086Y1901D01*
G01X1028Y1882D01*
G01X968Y1869D01*
G01X908Y1861D01*
G01X846Y1858D01*
G01X591Y1772D01*
G01X79D01*
G37*
G36*
G01X6768Y0D02*
G01Y591D01*
G01X6449Y846D01*
G01X6446Y911D01*
G01X6438Y975D01*
G01X6424Y1038D01*
G01X6404Y1100D01*
G01X6379Y1159D01*
G01X6350Y1217D01*
G01X6315Y1271D01*
G01X6276Y1322D01*
G01X6232Y1370D01*
G01X6184Y1413D01*
G01X6133Y1453D01*
G01X6079Y1487D01*
G01X6021Y1517D01*
G01X5962Y1542D01*
G01X5900Y1561D01*
G01X5837Y1575D01*
G01X5773Y1584D01*
G01X5709Y1587D01*
G01X5591D01*
G01X5552Y1588D01*
G01X5514Y1593D01*
G01X5476Y1602D01*
G01X5440Y1613D01*
G01X5404Y1628D01*
G01X5370Y1646D01*
G01X5338Y1666D01*
G01X5307Y1690D01*
G01X5279Y1716D01*
G01X5253Y1744D01*
G01X5229Y1775D01*
G01X5209Y1807D01*
G01X5191Y1841D01*
G01X5176Y1877D01*
G01X5165Y1913D01*
G01X5156Y1951D01*
G01X5151Y1989D01*
G01X5150Y2028D01*
G01Y2067D01*
G01X6122D01*
G01X6123Y2056D01*
G01X6125Y2046D01*
G01X6128Y2036D01*
G01X6133Y2027D01*
G01X6139Y2018D01*
G01X6146Y2010D01*
G01X6154Y2003D01*
G01X6163Y1998D01*
G01X6173Y1993D01*
G01X6183Y1990D01*
G01X6194Y1989D01*
G01X6204Y1988D01*
G01X6215Y1989D01*
G01X6225Y1992D01*
G01X6235Y1996D01*
G01X6244Y2001D01*
G01X6253Y2008D01*
G01X6260Y2015D01*
G01X6266Y2024D01*
G01X6272Y2033D01*
G01X6276Y2043D01*
G01X6278Y2053D01*
G01X6279Y2063D01*
G01Y2074D01*
G01X6278Y2084D01*
G01X6274Y2095D01*
G01X6270Y2104D01*
G01X6264Y2113D01*
G01X6258Y2121D01*
G01X6250Y2129D01*
G01X6241Y2135D01*
G01X6232Y2139D01*
G01X6222Y2143D01*
G01X6211Y2145D01*
G01X6201Y2146D01*
G01Y3118D01*
G01X6240D01*
G01X6279Y3116D01*
G01X6317Y3111D01*
G01X6354Y3103D01*
G01X6391Y3092D01*
G01X6426Y3077D01*
G01X6461Y3059D01*
G01X6493Y3038D01*
G01X6524Y3015D01*
G01X6552Y2989D01*
G01X6578Y2961D01*
G01X6601Y2930D01*
G01X6622Y2898D01*
G01X6640Y2864D01*
G01X6655Y2828D01*
G01X6666Y2791D01*
G01X6674Y2754D01*
G01X6679Y2716D01*
G01X6681Y2677D01*
G01Y2559D01*
G01X6684Y2495D01*
G01X6692Y2431D01*
G01X6706Y2367D01*
G01X6726Y2306D01*
G01X6750Y2246D01*
G01X6780Y2189D01*
G01X6815Y2135D01*
G01X6854Y2083D01*
G01X6898Y2036D01*
G01X6946Y1992D01*
G01X6997Y1953D01*
G01X7051Y1918D01*
G01X7108Y1888D01*
G01X7168Y1864D01*
G01X7230Y1844D01*
G01X7293Y1830D01*
G01X7357Y1822D01*
G01X7421Y1819D01*
G01X7677Y1500D01*
G01X8268D01*
G01Y787D01*
G01X8267Y752D01*
G01X8265Y717D01*
G01X8261Y682D01*
G01X8255Y647D01*
G01X8248Y612D01*
G01X8239Y578D01*
G01X8229Y544D01*
G01X8218Y511D01*
G01X8204Y478D01*
G01X8190Y446D01*
G01X8174Y414D01*
G01X8156Y384D01*
G01X8137Y354D01*
G01X8117Y325D01*
G01X8096Y296D01*
G01X8073Y269D01*
G01X8049Y243D01*
G01X8024Y218D01*
G01X7998Y194D01*
G01X7971Y172D01*
G01X7943Y150D01*
G01X7914Y130D01*
G01X7884Y111D01*
G01X7853Y94D01*
G01X7822Y78D01*
G01X7790Y63D01*
G01X7757Y50D01*
G01X7724Y39D01*
G01X7690Y28D01*
G01X7656Y20D01*
G01X7621Y13D01*
G01X7586Y7D01*
G01X7551Y3D01*
G01X7516Y1D01*
G01X7480Y0D01*
G01X6768D01*
G37*
G36*
G01X787Y0D02*
G01X752Y1D01*
G01X717Y3D01*
G01X682Y7D01*
G01X647Y13D01*
G01X612Y20D01*
G01X578Y28D01*
G01X544Y39D01*
G01X511Y50D01*
G01X478Y63D01*
G01X446Y78D01*
G01X414Y94D01*
G01X384Y111D01*
G01X354Y130D01*
G01X325Y150D01*
G01X296Y172D01*
G01X269Y194D01*
G01X243Y218D01*
G01X218Y243D01*
G01X194Y269D01*
G01X172Y296D01*
G01X150Y325D01*
G01X130Y354D01*
G01X111Y384D01*
G01X94Y414D01*
G01X78Y446D01*
G01X63Y478D01*
G01X50Y511D01*
G01X39Y544D01*
G01X28Y578D01*
G01X20Y612D01*
G01X13Y647D01*
G01X7Y682D01*
G01X3Y717D01*
G01X1Y752D01*
G01X0Y787D01*
G01Y1500D01*
G01X591D01*
G01X846Y1819D01*
G01X911Y1822D01*
G01X975Y1830D01*
G01X1038Y1844D01*
G01X1100Y1864D01*
G01X1159Y1888D01*
G01X1217Y1918D01*
G01X1271Y1953D01*
G01X1322Y1992D01*
G01X1370Y2036D01*
G01X1413Y2083D01*
G01X1453Y2135D01*
G01X1487Y2189D01*
G01X1517Y2246D01*
G01X1542Y2306D01*
G01X1561Y2367D01*
G01X1575Y2431D01*
G01X1584Y2495D01*
G01X1587Y2559D01*
G01Y2677D01*
G01X1588Y2716D01*
G01X1593Y2754D01*
G01X1602Y2791D01*
G01X1613Y2828D01*
G01X1628Y2864D01*
G01X1646Y2898D01*
G01X1666Y2930D01*
G01X1690Y2961D01*
G01X1716Y2989D01*
G01X1744Y3015D01*
G01X1775Y3038D01*
G01X1807Y3059D01*
G01X1841Y3077D01*
G01X1877Y3092D01*
G01X1913Y3103D01*
G01X1951Y3111D01*
G01X1989Y3116D01*
G01X2028Y3118D01*
G01X2067D01*
G01Y2146D01*
G01X2056Y2145D01*
G01X2046Y2143D01*
G01X2036Y2139D01*
G01X2027Y2135D01*
G01X2018Y2129D01*
G01X2010Y2121D01*
G01X2003Y2113D01*
G01X1998Y2104D01*
G01X1993Y2095D01*
G01X1990Y2084D01*
G01X1989Y2074D01*
G01X1988Y2063D01*
G01X1989Y2053D01*
G01X1992Y2043D01*
G01X1996Y2033D01*
G01X2001Y2024D01*
G01X2008Y2015D01*
G01X2015Y2008D01*
G01X2024Y2001D01*
G01X2033Y1996D01*
G01X2043Y1992D01*
G01X2053Y1989D01*
G01X2063Y1988D01*
G01X2074Y1989D01*
G01X2084Y1990D01*
G01X2095Y1993D01*
G01X2104Y1998D01*
G01X2113Y2003D01*
G01X2121Y2010D01*
G01X2129Y2018D01*
G01X2135Y2027D01*
G01X2139Y2036D01*
G01X2143Y2046D01*
G01X2145Y2056D01*
G01X2146Y2067D01*
G01X3118D01*
G01Y2028D01*
G01X3116Y1989D01*
G01X3111Y1951D01*
G01X3103Y1913D01*
G01X3092Y1877D01*
G01X3077Y1841D01*
G01X3059Y1807D01*
G01X3038Y1775D01*
G01X3015Y1744D01*
G01X2989Y1716D01*
G01X2961Y1690D01*
G01X2930Y1666D01*
G01X2898Y1646D01*
G01X2864Y1628D01*
G01X2828Y1613D01*
G01X2791Y1602D01*
G01X2754Y1593D01*
G01X2716Y1588D01*
G01X2677Y1587D01*
G01X2559D01*
G01X2495Y1584D01*
G01X2431Y1575D01*
G01X2367Y1561D01*
G01X2306Y1542D01*
G01X2246Y1517D01*
G01X2189Y1487D01*
G01X2135Y1453D01*
G01X2083Y1413D01*
G01X2036Y1370D01*
G01X1992Y1322D01*
G01X1953Y1271D01*
G01X1918Y1217D01*
G01X1888Y1159D01*
G01X1864Y1100D01*
G01X1844Y1038D01*
G01X1830Y975D01*
G01X1822Y911D01*
G01X1819Y846D01*
G01X1500Y591D01*
G01Y0D01*
G01X787D01*
G37*
G36*
G01X2437Y0D02*
G01Y591D01*
G01X2118Y846D01*
G01X2120Y885D01*
G01X2125Y923D01*
G01X2133Y961D01*
G01X2145Y997D01*
G01X2159Y1033D01*
G01X2177Y1067D01*
G01X2198Y1099D01*
G01X2221Y1130D01*
G01X2247Y1158D01*
G01X2276Y1184D01*
G01X2306Y1208D01*
G01X2339Y1228D01*
G01X2373Y1246D01*
G01X2408Y1261D01*
G01X2445Y1272D01*
G01X2482Y1281D01*
G01X2521Y1286D01*
G01X2559Y1287D01*
G01X2677D01*
G01X2742Y1290D01*
G01X2806Y1299D01*
G01X2869Y1313D01*
G01X2930Y1332D01*
G01X2990Y1357D01*
G01X3047Y1387D01*
G01X3102Y1421D01*
G01X3153Y1461D01*
G01X3201Y1504D01*
G01X3244Y1552D01*
G01X3283Y1603D01*
G01X3318Y1657D01*
G01X3348Y1715D01*
G01X3373Y1774D01*
G01X3392Y1836D01*
G01X3406Y1899D01*
G01X3414Y1963D01*
G01X3417Y2028D01*
G01Y2067D01*
G01X4850D01*
G01Y2028D01*
G01X4853Y1963D01*
G01X4862Y1899D01*
G01X4876Y1836D01*
G01X4895Y1774D01*
G01X4920Y1715D01*
G01X4950Y1657D01*
G01X4984Y1603D01*
G01X5024Y1552D01*
G01X5067Y1504D01*
G01X5115Y1461D01*
G01X5166Y1421D01*
G01X5220Y1387D01*
G01X5278Y1357D01*
G01X5337Y1332D01*
G01X5399Y1313D01*
G01X5462Y1299D01*
G01X5526Y1290D01*
G01X5591Y1287D01*
G01X5709D01*
G01X5747Y1286D01*
G01X5785Y1281D01*
G01X5823Y1272D01*
G01X5859Y1261D01*
G01X5895Y1246D01*
G01X5929Y1228D01*
G01X5962Y1208D01*
G01X5992Y1184D01*
G01X6020Y1158D01*
G01X6046Y1130D01*
G01X6070Y1099D01*
G01X6091Y1067D01*
G01X6108Y1033D01*
G01X6123Y997D01*
G01X6135Y961D01*
G01X6143Y923D01*
G01X6148Y885D01*
G01X6150Y846D01*
G01X5831Y591D01*
G01Y0D01*
G01X2437D01*
G37*
G36*
G01X6102Y79D02*
G01Y591D01*
G01X6189Y846D01*
G01X6187Y888D01*
G01X6182Y930D01*
G01X6173Y971D01*
G01X6160Y1011D01*
G01X6144Y1049D01*
G01X6125Y1087D01*
G01X6102Y1122D01*
G01X6077Y1155D01*
G01X6048Y1186D01*
G01X6017Y1214D01*
G01X5984Y1240D01*
G01X5949Y1262D01*
G01X5912Y1282D01*
G01X5873Y1298D01*
G01X5833Y1310D01*
G01X5792Y1319D01*
G01X5751Y1325D01*
G01X5709Y1327D01*
G01X5591D01*
G01X5529Y1329D01*
G01X5469Y1337D01*
G01X5409Y1351D01*
G01X5351Y1369D01*
G01X5294Y1392D01*
G01X5240Y1421D01*
G01X5189Y1454D01*
G01X5140Y1491D01*
G01X5095Y1532D01*
G01X5054Y1577D01*
G01X5016Y1626D01*
G01X4984Y1677D01*
G01X4955Y1731D01*
G01X4932Y1788D01*
G01X4914Y1846D01*
G01X4900Y1906D01*
G01X4892Y1966D01*
G01X4890Y2028D01*
G01X5110D01*
G01X5112Y1986D01*
G01X5118Y1944D01*
G01X5127Y1903D01*
G01X5139Y1863D01*
G01X5155Y1825D01*
G01X5175Y1787D01*
G01X5197Y1752D01*
G01X5223Y1719D01*
G01X5251Y1688D01*
G01X5282Y1660D01*
G01X5315Y1634D01*
G01X5350Y1612D01*
G01X5388Y1592D01*
G01X5426Y1576D01*
G01X5466Y1564D01*
G01X5507Y1555D01*
G01X5549Y1549D01*
G01X5591Y1547D01*
G01X5709D01*
G01X5770Y1545D01*
G01X5830Y1537D01*
G01X5890Y1523D01*
G01X5948Y1505D01*
G01X6005Y1482D01*
G01X6059Y1453D01*
G01X6111Y1421D01*
G01X6159Y1383D01*
G01X6204Y1342D01*
G01X6246Y1297D01*
G01X6283Y1248D01*
G01X6316Y1197D01*
G01X6344Y1143D01*
G01X6367Y1086D01*
G01X6386Y1028D01*
G01X6399Y968D01*
G01X6407Y908D01*
G01X6409Y846D01*
G01X6496Y591D01*
G01Y79D01*
G01X6102D01*
G37*
G36*
G01X1772Y79D02*
G01Y591D01*
G01X1858Y846D01*
G01X1861Y908D01*
G01X1869Y968D01*
G01X1882Y1028D01*
G01X1901Y1086D01*
G01X1924Y1143D01*
G01X1952Y1197D01*
G01X1985Y1248D01*
G01X2022Y1297D01*
G01X2064Y1342D01*
G01X2109Y1383D01*
G01X2157Y1421D01*
G01X2209Y1453D01*
G01X2263Y1482D01*
G01X2319Y1505D01*
G01X2378Y1523D01*
G01X2437Y1537D01*
G01X2498Y1545D01*
G01X2559Y1547D01*
G01X2677D01*
G01X2719Y1549D01*
G01X2761Y1555D01*
G01X2801Y1564D01*
G01X2841Y1576D01*
G01X2880Y1592D01*
G01X2917Y1612D01*
G01X2953Y1634D01*
G01X2986Y1660D01*
G01X3017Y1688D01*
G01X3045Y1719D01*
G01X3071Y1752D01*
G01X3093Y1787D01*
G01X3112Y1825D01*
G01X3129Y1863D01*
G01X3141Y1903D01*
G01X3150Y1944D01*
G01X3156Y1986D01*
G01X3157Y2028D01*
G01X3378D01*
G01X3375Y1966D01*
G01X3367Y1906D01*
G01X3354Y1846D01*
G01X3336Y1788D01*
G01X3312Y1731D01*
G01X3284Y1677D01*
G01X3251Y1626D01*
G01X3214Y1577D01*
G01X3173Y1532D01*
G01X3128Y1491D01*
G01X3079Y1454D01*
G01X3028Y1421D01*
G01X2973Y1392D01*
G01X2917Y1369D01*
G01X2859Y1351D01*
G01X2799Y1337D01*
G01X2738Y1329D01*
G01X2677Y1327D01*
G01X2559D01*
G01X2517Y1325D01*
G01X2476Y1319D01*
G01X2435Y1310D01*
G01X2395Y1298D01*
G01X2356Y1282D01*
G01X2319Y1262D01*
G01X2284Y1240D01*
G01X2250Y1214D01*
G01X2219Y1186D01*
G01X2191Y1155D01*
G01X2166Y1122D01*
G01X2143Y1087D01*
G01X2124Y1049D01*
G01X2108Y1011D01*
G01X2095Y971D01*
G01X2086Y930D01*
G01X2081Y888D01*
G01X2079Y846D01*
G01X2165Y591D01*
G01Y79D01*
G01X1772D01*
G37*
M02*

