G04 ===== Begin FILE IDENTIFICATION =====*
G04 File Format:  Gerber RS274X*
G04 ===== End FILE IDENTIFICATION =====*
%FSLAX24Y24*%
%MOIN*%
%SFA1.0000B1.0000*%
%OFA0.0B0.0*%
%ADD10C,0.000984*%
%LNvia*%
%IPPOS*%
%LPD*%
G75*
G36*
G01X1303Y8102D02*
G01X1296Y8103D01*
G01X1289Y8105D01*
G01X1283Y8108D01*
G01X1277Y8112D01*
G01X1272Y8117D01*
G01X1268Y8123D01*
G01X1266Y8130D01*
G01X1264Y8136D01*
G01Y8144D01*
G01X1265Y8151D01*
G01X1267Y8157D01*
G01X1270Y8163D01*
G01X1275Y8169D01*
G01X1280Y8174D01*
G01X1286Y8177D01*
G01X1293Y8180D01*
G01X1300Y8181D01*
G01X1307D01*
G01X1314Y8180D01*
G01X1320Y8177D01*
G01X1326Y8174D01*
G01X1332Y8169D01*
G01X1336Y8163D01*
G01X1339Y8157D01*
G01X1342Y8151D01*
G01Y8144D01*
G01Y8136D01*
G01X1341Y8130D01*
G01X1338Y8123D01*
G01X1334Y8117D01*
G01X1329Y8112D01*
G01X1323Y8108D01*
G01X1317Y8105D01*
G01X1310Y8103D01*
G01X1303Y8102D01*
G37*
G36*
G01X2724Y7137D02*
G01X2717D01*
G01X2711Y7139D01*
G01X2704Y7142D01*
G01X2699Y7146D01*
G01X2694Y7151D01*
G01X2690Y7157D01*
G01X2687Y7164D01*
G01X2685Y7171D01*
G01Y7178D01*
G01X2686Y7185D01*
G01X2688Y7191D01*
G01X2692Y7198D01*
G01X2696Y7203D01*
G01X2701Y7208D01*
G01X2707Y7211D01*
G01X2714Y7214D01*
G01X2721Y7215D01*
G01X2728D01*
G01X2735Y7214D01*
G01X2742Y7211D01*
G01X2748Y7208D01*
G01X2753Y7203D01*
G01X2757Y7198D01*
G01X2761Y7191D01*
G01X2763Y7185D01*
G01X2764Y7178D01*
G01Y7171D01*
G01X2762Y7164D01*
G01X2759Y7157D01*
G01X2755Y7151D01*
G01X2750Y7146D01*
G01X2745Y7142D01*
G01X2738Y7139D01*
G01X2732Y7137D01*
G01X2724Y7137D01*
G37*
G36*
G01X6534Y2225D02*
G01X6527D01*
G01X6520Y2227D01*
G01X6513Y2230D01*
G01X6507Y2233D01*
G01X6502Y2238D01*
G01X6498Y2244D01*
G01X6495Y2250D01*
G01X6493Y2257D01*
G01X6492Y2264D01*
G01X6493Y2271D01*
G01X6495Y2278D01*
G01X6498Y2284D01*
G01X6502Y2290D01*
G01X6507Y2295D01*
G01X6513Y2299D01*
G01X6520Y2302D01*
G01X6527Y2303D01*
G01X6534Y2304D01*
G01X6541Y2303D01*
G01X6547Y2300D01*
G01X6554Y2297D01*
G01X6559Y2293D01*
G01X6564Y2287D01*
G01X6567Y2281D01*
G01X6570Y2275D01*
G01X6571Y2268D01*
G01Y2261D01*
G01X6570Y2254D01*
G01X6567Y2247D01*
G01X6564Y2241D01*
G01X6559Y2236D01*
G01X6554Y2231D01*
G01X6547Y2228D01*
G01X6541Y2226D01*
G01X6534Y2225D01*
G37*
G36*
G01X6486Y2532D02*
G01X6479D01*
G01X6472Y2533D01*
G01X6466Y2536D01*
G01X6460Y2540D01*
G01X6455Y2545D01*
G01X6450Y2551D01*
G01X6447Y2557D01*
G01X6446Y2564D01*
G01X6445Y2571D01*
G01X6446Y2578D01*
G01X6447Y2585D01*
G01X6450Y2591D01*
G01X6455Y2597D01*
G01X6460Y2602D01*
G01X6466Y2606D01*
G01X6472Y2608D01*
G01X6479Y2610D01*
G01X6486D01*
G01X6493Y2609D01*
G01X6500Y2607D01*
G01X6506Y2604D01*
G01X6511Y2599D01*
G01X6516Y2594D01*
G01X6520Y2588D01*
G01X6522Y2581D01*
G01X6523Y2574D01*
G01Y2567D01*
G01X6522Y2560D01*
G01X6520Y2554D01*
G01X6516Y2548D01*
G01X6511Y2542D01*
G01X6506Y2538D01*
G01X6500Y2535D01*
G01X6493Y2532D01*
G01X6486Y2532D01*
G37*
G36*
G01X7514Y6716D02*
G01X7507D01*
G01X7500Y6718D01*
G01X7493Y6721D01*
G01X7487Y6725D01*
G01X7482Y6729D01*
G01X7478Y6735D01*
G01X7475Y6741D01*
G01X7473Y6748D01*
G01X7472Y6755D01*
G01X7473Y6762D01*
G01X7475Y6769D01*
G01X7478Y6775D01*
G01X7482Y6781D01*
G01X7487Y6786D01*
G01X7493Y6790D01*
G01X7500Y6793D01*
G01X7507Y6794D01*
G01X7514Y6795D01*
G01X7521Y6794D01*
G01X7527Y6791D01*
G01X7534Y6788D01*
G01X7539Y6784D01*
G01X7544Y6778D01*
G01X7547Y6772D01*
G01X7550Y6766D01*
G01X7551Y6759D01*
G01Y6752D01*
G01X7550Y6745D01*
G01X7547Y6738D01*
G01X7544Y6732D01*
G01X7539Y6727D01*
G01X7534Y6722D01*
G01X7527Y6719D01*
G01X7521Y6717D01*
G01X7514Y6716D01*
G37*
G36*
G01X6400Y2824D02*
G01X6393D01*
G01X6386Y2826D01*
G01X6379Y2829D01*
G01X6374Y2833D01*
G01X6368Y2837D01*
G01X6364Y2843D01*
G01X6361Y2849D01*
G01X6359Y2856D01*
G01Y2863D01*
G01Y2870D01*
G01X6361Y2877D01*
G01X6364Y2884D01*
G01X6368Y2889D01*
G01X6374Y2894D01*
G01X6379Y2898D01*
G01X6386Y2901D01*
G01X6393Y2902D01*
G01X6400Y2903D01*
G01X6407Y2902D01*
G01X6414Y2899D01*
G01X6420Y2896D01*
G01X6425Y2892D01*
G01X6430Y2886D01*
G01X6434Y2880D01*
G01X6436Y2874D01*
G01X6437Y2867D01*
G01Y2860D01*
G01X6436Y2853D01*
G01X6434Y2846D01*
G01X6430Y2840D01*
G01X6425Y2835D01*
G01X6420Y2830D01*
G01X6414Y2827D01*
G01X6407Y2825D01*
G01X6400Y2824D01*
G37*
G36*
G01X8136Y2595D02*
G01X8129D01*
G01X8122Y2596D01*
G01X8115Y2599D01*
G01X8109Y2603D01*
G01X8104Y2608D01*
G01X8100Y2614D01*
G01X8097Y2620D01*
G01X8095Y2627D01*
G01X8094Y2634D01*
G01X8095Y2641D01*
G01X8097Y2648D01*
G01X8100Y2654D01*
G01X8104Y2660D01*
G01X8109Y2665D01*
G01X8115Y2669D01*
G01X8122Y2671D01*
G01X8129Y2673D01*
G01X8136D01*
G01X8143Y2672D01*
G01X8149Y2670D01*
G01X8156Y2667D01*
G01X8161Y2662D01*
G01X8166Y2657D01*
G01X8169Y2651D01*
G01X8172Y2644D01*
G01X8173Y2637D01*
G01Y2630D01*
G01X8172Y2623D01*
G01X8169Y2617D01*
G01X8166Y2611D01*
G01X8161Y2605D01*
G01X8156Y2601D01*
G01X8149Y2598D01*
G01X8143Y2595D01*
G01X8136Y2595D01*
G37*
G36*
G01X7821Y2595D02*
G01X7814D01*
G01X7807Y2596D01*
G01X7800Y2599D01*
G01X7794Y2603D01*
G01X7789Y2608D01*
G01X7785Y2614D01*
G01X7782Y2620D01*
G01X7780Y2627D01*
G01Y2634D01*
G01Y2641D01*
G01X7782Y2648D01*
G01X7785Y2654D01*
G01X7789Y2660D01*
G01X7794Y2665D01*
G01X7800Y2669D01*
G01X7807Y2671D01*
G01X7814Y2673D01*
G01X7821D01*
G01X7828Y2672D01*
G01X7834Y2670D01*
G01X7841Y2667D01*
G01X7846Y2662D01*
G01X7851Y2657D01*
G01X7854Y2651D01*
G01X7857Y2644D01*
G01X7858Y2637D01*
G01Y2630D01*
G01X7857Y2623D01*
G01X7854Y2617D01*
G01X7851Y2611D01*
G01X7846Y2605D01*
G01X7841Y2601D01*
G01X7834Y2598D01*
G01X7828Y2595D01*
G01X7821Y2595D01*
G37*
G36*
G01X7506Y2375D02*
G01X7499Y2376D01*
G01X7492Y2377D01*
G01X7485Y2380D01*
G01X7479Y2384D01*
G01X7474Y2389D01*
G01X7470Y2394D01*
G01X7467Y2401D01*
G01X7465Y2408D01*
G01Y2415D01*
G01Y2422D01*
G01X7467Y2428D01*
G01X7470Y2435D01*
G01X7474Y2441D01*
G01X7479Y2445D01*
G01X7485Y2449D01*
G01X7492Y2452D01*
G01X7499Y2454D01*
G01X7506D01*
G01X7513Y2453D01*
G01X7519Y2451D01*
G01X7526Y2447D01*
G01X7531Y2443D01*
G01X7536Y2438D01*
G01X7539Y2432D01*
G01X7542Y2425D01*
G01X7543Y2418D01*
G01Y2411D01*
G01X7542Y2404D01*
G01X7539Y2398D01*
G01X7536Y2391D01*
G01X7531Y2386D01*
G01X7526Y2382D01*
G01X7519Y2378D01*
G01X7513Y2376D01*
G01X7506Y2375D01*
G37*
G36*
G01X7222Y2381D02*
G01X7215D01*
G01X7208Y2383D01*
G01X7202Y2385D01*
G01X7196Y2389D01*
G01X7191Y2394D01*
G01X7187Y2400D01*
G01X7184Y2406D01*
G01X7182Y2413D01*
G01X7181Y2420D01*
G01X7182Y2427D01*
G01X7184Y2434D01*
G01X7187Y2440D01*
G01X7191Y2446D01*
G01X7196Y2451D01*
G01X7202Y2455D01*
G01X7208Y2458D01*
G01X7215Y2459D01*
G01X7222D01*
G01X7229D01*
G01X7236Y2456D01*
G01X7242Y2453D01*
G01X7248Y2449D01*
G01X7252Y2443D01*
G01X7256Y2437D01*
G01X7259Y2431D01*
G01X7260Y2424D01*
G01Y2417D01*
G01X7259Y2410D01*
G01X7256Y2403D01*
G01X7252Y2397D01*
G01X7248Y2392D01*
G01X7242Y2387D01*
G01X7236Y2384D01*
G01X7229Y2382D01*
G01X7222Y2381D01*
G37*
G36*
G01X7178Y2685D02*
G01X7171D01*
G01X7164Y2687D01*
G01X7157Y2690D01*
G01X7151Y2694D01*
G01X7146Y2699D01*
G01X7142Y2704D01*
G01X7139Y2711D01*
G01X7137Y2717D01*
G01Y2724D01*
G01Y2732D01*
G01X7139Y2738D01*
G01X7142Y2745D01*
G01X7146Y2750D01*
G01X7151Y2755D01*
G01X7157Y2759D01*
G01X7164Y2762D01*
G01X7171Y2764D01*
G01X7178D01*
G01X7185Y2763D01*
G01X7191Y2761D01*
G01X7198Y2757D01*
G01X7203Y2753D01*
G01X7208Y2748D01*
G01X7211Y2742D01*
G01X7214Y2735D01*
G01X7215Y2728D01*
G01Y2721D01*
G01X7214Y2714D01*
G01X7211Y2707D01*
G01X7208Y2701D01*
G01X7203Y2696D01*
G01X7198Y2692D01*
G01X7191Y2688D01*
G01X7185Y2686D01*
G01X7178Y2685D01*
G37*
G36*
G01X7109Y2992D02*
G01X7102D01*
G01X7096Y2994D01*
G01X7089Y2996D01*
G01X7083Y3000D01*
G01X7078Y3005D01*
G01X7074Y3011D01*
G01X7071Y3017D01*
G01X7069Y3024D01*
G01X7068Y3031D01*
G01X7069Y3038D01*
G01X7071Y3045D01*
G01X7074Y3051D01*
G01X7078Y3057D01*
G01X7083Y3062D01*
G01X7089Y3066D01*
G01X7096Y3069D01*
G01X7102Y3070D01*
G01X7109Y3071D01*
G01X7116Y3070D01*
G01X7123Y3067D01*
G01X7129Y3064D01*
G01X7135Y3060D01*
G01X7140Y3054D01*
G01X7143Y3048D01*
G01X7146Y3042D01*
G01X7147Y3035D01*
G01Y3028D01*
G01X7146Y3021D01*
G01X7143Y3014D01*
G01X7140Y3008D01*
G01X7135Y3003D01*
G01X7129Y2998D01*
G01X7123Y2995D01*
G01X7116Y2993D01*
G01X7109Y2992D01*
G37*
G36*
G01X6944Y3259D02*
G01X6937D01*
G01X6930Y3261D01*
G01X6923Y3263D01*
G01X6917Y3267D01*
G01X6912Y3272D01*
G01X6908Y3278D01*
G01X6905Y3284D01*
G01X6903Y3291D01*
G01Y3298D01*
G01Y3305D01*
G01X6905Y3312D01*
G01X6908Y3318D01*
G01X6912Y3324D01*
G01X6917Y3329D01*
G01X6923Y3333D01*
G01X6930Y3336D01*
G01X6937Y3337D01*
G01X6944D01*
G01X6951Y3336D01*
G01X6957Y3334D01*
G01X6964Y3331D01*
G01X6969Y3327D01*
G01X6974Y3321D01*
G01X6977Y3315D01*
G01X6980Y3309D01*
G01X6981Y3302D01*
G01Y3295D01*
G01X6980Y3288D01*
G01X6977Y3281D01*
G01X6974Y3275D01*
G01X6969Y3270D01*
G01X6964Y3265D01*
G01X6957Y3262D01*
G01X6951Y3260D01*
G01X6944Y3259D01*
G37*
G36*
G01X6699Y3456D02*
G01X6692D01*
G01X6685Y3458D01*
G01X6679Y3460D01*
G01X6673Y3464D01*
G01X6668Y3469D01*
G01X6663Y3475D01*
G01X6660Y3481D01*
G01X6659Y3488D01*
G01X6658Y3495D01*
G01X6659Y3502D01*
G01X6660Y3509D01*
G01X6663Y3515D01*
G01X6668Y3521D01*
G01X6673Y3526D01*
G01X6679Y3530D01*
G01X6685Y3533D01*
G01X6692Y3534D01*
G01X6699D01*
G01X6706D01*
G01X6713Y3531D01*
G01X6719Y3528D01*
G01X6724Y3524D01*
G01X6729Y3518D01*
G01X6733Y3512D01*
G01X6735Y3506D01*
G01X6736Y3499D01*
G01Y3492D01*
G01X6735Y3485D01*
G01X6733Y3478D01*
G01X6729Y3472D01*
G01X6724Y3467D01*
G01X6719Y3462D01*
G01X6713Y3459D01*
G01X6706Y3457D01*
G01X6699Y3456D01*
G37*
G36*
G01X6403Y3561D02*
G01X6396D01*
G01X6389Y3563D01*
G01X6382Y3566D01*
G01X6377Y3569D01*
G01X6371Y3574D01*
G01X6367Y3580D01*
G01X6364Y3586D01*
G01X6362Y3593D01*
G01Y3600D01*
G01Y3607D01*
G01X6364Y3614D01*
G01X6367Y3620D01*
G01X6371Y3626D01*
G01X6377Y3631D01*
G01X6382Y3635D01*
G01X6389Y3638D01*
G01X6396Y3639D01*
G01X6403Y3640D01*
G01X6410Y3639D01*
G01X6417Y3636D01*
G01X6423Y3633D01*
G01X6428Y3629D01*
G01X6433Y3623D01*
G01X6437Y3617D01*
G01X6439Y3611D01*
G01X6440Y3604D01*
G01Y3597D01*
G01X6439Y3590D01*
G01X6437Y3583D01*
G01X6433Y3577D01*
G01X6428Y3572D01*
G01X6423Y3567D01*
G01X6417Y3564D01*
G01X6410Y3562D01*
G01X6403Y3561D01*
G37*
G36*
G01X7022Y1201D02*
G01X7015Y1202D01*
G01X7008Y1205D01*
G01X7002Y1208D01*
G01X6997Y1213D01*
G01X6992Y1218D01*
G01X6989Y1225D01*
G01X6987Y1231D01*
G01X6986Y1238D01*
G01Y1245D01*
G01X6988Y1252D01*
G01X6991Y1259D01*
G01X6994Y1265D01*
G01X6999Y1270D01*
G01X7005Y1274D01*
G01X7011Y1277D01*
G01X7018Y1279D01*
G01X7025Y1280D01*
G01X7032Y1279D01*
G01X7039Y1277D01*
G01X7045Y1274D01*
G01X7051Y1270D01*
G01X7056Y1265D01*
G01X7060Y1259D01*
G01X7063Y1252D01*
G01X7064Y1245D01*
G01X7065Y1238D01*
G01X7064Y1231D01*
G01X7061Y1225D01*
G01X7058Y1218D01*
G01X7054Y1213D01*
G01X7048Y1208D01*
G01X7042Y1205D01*
G01X7036Y1202D01*
G01X7029Y1201D01*
G01X7022D01*
G37*
G36*
G01X6706Y1516D02*
G01X6699Y1517D01*
G01X6693Y1520D01*
G01X6686Y1523D01*
G01X6681Y1528D01*
G01X6677Y1533D01*
G01X6673Y1540D01*
G01X6671Y1546D01*
G01X6670Y1553D01*
G01X6671Y1560D01*
G01X6672Y1567D01*
G01X6675Y1574D01*
G01X6679Y1580D01*
G01X6684Y1585D01*
G01X6689Y1589D01*
G01X6696Y1592D01*
G01X6703Y1594D01*
G01X6710D01*
G01X6717D01*
G01X6723Y1592D01*
G01X6730Y1589D01*
G01X6736Y1585D01*
G01X6740Y1580D01*
G01X6744Y1574D01*
G01X6747Y1567D01*
G01X6749Y1560D01*
G01Y1553D01*
G01X6748Y1546D01*
G01X6746Y1540D01*
G01X6742Y1533D01*
G01X6738Y1528D01*
G01X6733Y1523D01*
G01X6727Y1520D01*
G01X6720Y1517D01*
G01X6713Y1516D01*
G01X6706D01*
G37*
G36*
G01X6391Y1831D02*
G01X6384Y1832D01*
G01X6377Y1835D01*
G01X6371Y1838D01*
G01X6366Y1843D01*
G01X6361Y1848D01*
G01X6358Y1855D01*
G01X6356Y1861D01*
G01X6355Y1868D01*
G01Y1875D01*
G01X6357Y1882D01*
G01X6359Y1889D01*
G01X6363Y1895D01*
G01X6368Y1900D01*
G01X6374Y1904D01*
G01X6380Y1907D01*
G01X6387Y1909D01*
G01X6394D01*
G01X6401D01*
G01X6408Y1907D01*
G01X6414Y1904D01*
G01X6420Y1900D01*
G01X6425Y1895D01*
G01X6429Y1889D01*
G01X6431Y1882D01*
G01X6433Y1875D01*
G01Y1868D01*
G01X6432Y1861D01*
G01X6430Y1855D01*
G01X6427Y1848D01*
G01X6423Y1843D01*
G01X6417Y1838D01*
G01X6411Y1835D01*
G01X6405Y1832D01*
G01X6398Y1831D01*
G01X6391D01*
G37*
G36*
G01X7968Y256D02*
G01X7961Y257D01*
G01X7955Y260D01*
G01X7949Y263D01*
G01X7943Y268D01*
G01X7939Y274D01*
G01X7936Y280D01*
G01X7934Y286D01*
G01X7933Y294D01*
G01Y301D01*
G01X7934Y307D01*
G01X7937Y314D01*
G01X7941Y320D01*
G01X7946Y325D01*
G01X7952Y329D01*
G01X7958Y332D01*
G01X7965Y334D01*
G01X7972Y335D01*
G01X7979Y334D01*
G01X7986Y332D01*
G01X7992Y329D01*
G01X7998Y325D01*
G01X8003Y320D01*
G01X8007Y314D01*
G01X8009Y307D01*
G01X8011Y301D01*
G01Y294D01*
G01X8010Y286D01*
G01X8008Y280D01*
G01X8005Y274D01*
G01X8000Y268D01*
G01X7995Y263D01*
G01X7989Y260D01*
G01X7982Y257D01*
G01X7975Y256D01*
G01X7968D01*
G37*
G36*
G01X7653Y571D02*
G01X7646Y572D01*
G01X7639Y575D01*
G01X7633Y578D01*
G01X7628Y583D01*
G01X7623Y589D01*
G01X7620Y595D01*
G01X7618Y601D01*
G01X7617Y608D01*
G01Y616D01*
G01X7619Y622D01*
G01X7622Y629D01*
G01X7626Y635D01*
G01X7630Y640D01*
G01X7636Y644D01*
G01X7642Y647D01*
G01X7649Y649D01*
G01X7656Y650D01*
G01X7663Y649D01*
G01X7670Y647D01*
G01X7676Y644D01*
G01X7682Y640D01*
G01X7687Y635D01*
G01X7691Y629D01*
G01X7694Y622D01*
G01X7695Y616D01*
G01X7696Y608D01*
G01X7695Y601D01*
G01X7693Y595D01*
G01X7689Y589D01*
G01X7685Y583D01*
G01X7679Y578D01*
G01X7673Y575D01*
G01X7667Y572D01*
G01X7660Y571D01*
G01X7653D01*
G37*
G36*
G01X7337Y886D02*
G01X7330Y887D01*
G01X7324Y890D01*
G01X7318Y893D01*
G01X7312Y898D01*
G01X7308Y904D01*
G01X7305Y910D01*
G01X7302Y916D01*
G01X7301Y923D01*
G01X7302Y930D01*
G01X7303Y937D01*
G01X7306Y944D01*
G01X7310Y950D01*
G01X7315Y955D01*
G01X7321Y959D01*
G01X7327Y962D01*
G01X7334Y964D01*
G01X7341Y965D01*
G01X7348Y964D01*
G01X7355Y962D01*
G01X7361Y959D01*
G01X7367Y955D01*
G01X7372Y950D01*
G01X7375Y944D01*
G01X7378Y937D01*
G01X7380Y930D01*
G01Y923D01*
G01X7379Y916D01*
G01X7377Y910D01*
G01X7374Y904D01*
G01X7369Y898D01*
G01X7364Y893D01*
G01X7358Y890D01*
G01X7351Y887D01*
G01X7344Y886D01*
G01X7337D01*
G37*
G36*
G01X6961Y87D02*
G01X6954Y88D01*
G01X6947Y91D01*
G01X6941Y94D01*
G01X6936Y99D01*
G01X6932Y104D01*
G01X6928Y111D01*
G01X6926Y117D01*
G01X6925Y124D01*
G01X6926Y131D01*
G01X6927Y138D01*
G01X6930Y145D01*
G01X6934Y151D01*
G01X6939Y156D01*
G01X6944Y160D01*
G01X6951Y163D01*
G01X6958Y165D01*
G01X6965D01*
G01X6972D01*
G01X6978Y163D01*
G01X6985Y160D01*
G01X6990Y156D01*
G01X6995Y151D01*
G01X6999Y145D01*
G01X7002Y138D01*
G01X7004Y131D01*
G01Y124D01*
G01X7003Y117D01*
G01X7001Y111D01*
G01X6997Y104D01*
G01X6993Y99D01*
G01X6988Y94D01*
G01X6982Y91D01*
G01X6975Y88D01*
G01X6968Y87D01*
G01X6961D01*
G37*
G36*
G01X6961Y402D02*
G01X6954Y403D01*
G01X6947Y405D01*
G01X6941Y409D01*
G01X6936Y414D01*
G01X6932Y419D01*
G01X6928Y425D01*
G01X6926Y432D01*
G01X6925Y439D01*
G01X6926Y446D01*
G01X6927Y453D01*
G01X6930Y460D01*
G01X6934Y465D01*
G01X6939Y471D01*
G01X6944Y475D01*
G01X6951Y478D01*
G01X6958Y480D01*
G01X6965D01*
G01X6972D01*
G01X6978Y478D01*
G01X6985Y475D01*
G01X6990Y471D01*
G01X6995Y465D01*
G01X6999Y460D01*
G01X7002Y453D01*
G01X7004Y446D01*
G01Y439D01*
G01X7003Y432D01*
G01X7001Y425D01*
G01X6997Y419D01*
G01X6993Y414D01*
G01X6988Y409D01*
G01X6982Y405D01*
G01X6975Y403D01*
G01X6968Y402D01*
G01X6961D01*
G37*
G36*
G01X6752Y717D02*
G01X6745Y718D01*
G01X6738Y720D01*
G01X6732Y724D01*
G01X6727Y729D01*
G01X6722Y734D01*
G01X6719Y740D01*
G01X6717Y747D01*
G01X6716Y754D01*
G01Y761D01*
G01X6718Y768D01*
G01X6721Y775D01*
G01X6725Y780D01*
G01X6729Y786D01*
G01X6735Y790D01*
G01X6741Y793D01*
G01X6748Y795D01*
G01X6755D01*
G01X6762D01*
G01X6769Y793D01*
G01X6775Y790D01*
G01X6781Y786D01*
G01X6786Y780D01*
G01X6790Y775D01*
G01X6793Y768D01*
G01X6794Y761D01*
G01X6795Y754D01*
G01X6794Y747D01*
G01X6791Y740D01*
G01X6788Y734D01*
G01X6784Y729D01*
G01X6778Y724D01*
G01X6772Y720D01*
G01X6766Y718D01*
G01X6759Y717D01*
G01X6752D01*
G37*
G36*
G01X6615Y1030D02*
G01X6608Y1031D01*
G01X6602Y1034D01*
G01X6596Y1037D01*
G01X6590Y1042D01*
G01X6586Y1048D01*
G01X6583Y1054D01*
G01X6580Y1060D01*
G01X6579Y1067D01*
G01X6580Y1075D01*
G01X6581Y1081D01*
G01X6584Y1088D01*
G01X6588Y1094D01*
G01X6593Y1099D01*
G01X6599Y1103D01*
G01X6605Y1106D01*
G01X6612Y1108D01*
G01X6619Y1109D01*
G01X6626Y1108D01*
G01X6633Y1106D01*
G01X6639Y1103D01*
G01X6645Y1099D01*
G01X6650Y1094D01*
G01X6653Y1088D01*
G01X6656Y1081D01*
G01X6658Y1075D01*
G01Y1067D01*
G01X6657Y1060D01*
G01X6655Y1054D01*
G01X6652Y1048D01*
G01X6647Y1042D01*
G01X6642Y1037D01*
G01X6636Y1034D01*
G01X6629Y1031D01*
G01X6622Y1030D01*
G01X6615D01*
G37*
G36*
G01X7506Y5814D02*
G01X7499D01*
G01X7492Y5816D01*
G01X7485Y5818D01*
G01X7479Y5822D01*
G01X7474Y5827D01*
G01X7470Y5833D01*
G01X7467Y5839D01*
G01X7465Y5846D01*
G01Y5853D01*
G01Y5860D01*
G01X7467Y5867D01*
G01X7470Y5873D01*
G01X7474Y5879D01*
G01X7479Y5884D01*
G01X7485Y5888D01*
G01X7492Y5891D01*
G01X7499Y5892D01*
G01X7506D01*
G01X7513Y5891D01*
G01X7519Y5889D01*
G01X7526Y5886D01*
G01X7531Y5882D01*
G01X7536Y5876D01*
G01X7539Y5870D01*
G01X7542Y5864D01*
G01X7543Y5857D01*
G01Y5850D01*
G01X7542Y5843D01*
G01X7539Y5836D01*
G01X7536Y5830D01*
G01X7531Y5825D01*
G01X7526Y5820D01*
G01X7519Y5817D01*
G01X7513Y5815D01*
G01X7506Y5814D01*
G37*
G36*
G01X1865Y4628D02*
G01X1858Y4629D01*
G01X1851Y4631D01*
G01X1845Y4635D01*
G01X1839Y4639D01*
G01X1835Y4644D01*
G01X1831Y4650D01*
G01X1829Y4657D01*
G01X1827Y4664D01*
G01Y4671D01*
G01X1829Y4678D01*
G01X1831Y4685D01*
G01X1835Y4691D01*
G01X1839Y4696D01*
G01X1845Y4700D01*
G01X1851Y4704D01*
G01X1858Y4706D01*
G01X1865Y4707D01*
G01X1872Y4706D01*
G01X1879Y4705D01*
G01X1885Y4702D01*
G01X1891Y4698D01*
G01X1896Y4693D01*
G01X1900Y4688D01*
G01X1903Y4681D01*
G01X1905Y4674D01*
G01X1906Y4667D01*
G01X1905Y4660D01*
G01X1903Y4654D01*
G01X1900Y4647D01*
G01X1896Y4642D01*
G01X1891Y4637D01*
G01X1885Y4633D01*
G01X1879Y4630D01*
G01X1872Y4628D01*
G01X1865Y4628D01*
G37*
G36*
G01X6490Y1318D02*
G01X6484Y1320D01*
G01X6477Y1322D01*
G01X6471Y1326D01*
G01X6466Y1330D01*
G01X6461Y1336D01*
G01X6458Y1342D01*
G01X6456Y1349D01*
G01X6455Y1356D01*
G01Y1363D01*
G01X6457Y1370D01*
G01X6459Y1376D01*
G01X6463Y1382D01*
G01X6468Y1387D01*
G01X6474Y1391D01*
G01X6480Y1394D01*
G01X6487Y1396D01*
G01X6494Y1397D01*
G01X6501Y1396D01*
G01X6508Y1394D01*
G01X6514Y1391D01*
G01X6520Y1387D01*
G01X6525Y1382D01*
G01X6529Y1376D01*
G01X6531Y1370D01*
G01X6533Y1363D01*
G01Y1356D01*
G01X6532Y1349D01*
G01X6530Y1342D01*
G01X6527Y1336D01*
G01X6522Y1330D01*
G01X6517Y1326D01*
G01X6511Y1322D01*
G01X6504Y1320D01*
G01X6498Y1318D01*
G01X6490D01*
G37*
G36*
G01X6277Y1549D02*
G01X6270Y1550D01*
G01X6264Y1553D01*
G01X6258Y1557D01*
G01X6252Y1561D01*
G01X6248Y1567D01*
G01X6245Y1573D01*
G01X6243Y1580D01*
G01X6242Y1587D01*
G01Y1594D01*
G01X6243Y1601D01*
G01X6246Y1607D01*
G01X6250Y1613D01*
G01X6255Y1618D01*
G01X6261Y1622D01*
G01X6267Y1625D01*
G01X6274Y1627D01*
G01X6281Y1628D01*
G01X6288Y1627D01*
G01X6295Y1625D01*
G01X6301Y1622D01*
G01X6307Y1618D01*
G01X6312Y1613D01*
G01X6316Y1607D01*
G01X6318Y1601D01*
G01X6320Y1594D01*
G01Y1587D01*
G01X6319Y1580D01*
G01X6317Y1573D01*
G01X6314Y1567D01*
G01X6309Y1561D01*
G01X6304Y1557D01*
G01X6298Y1553D01*
G01X6291Y1550D01*
G01X6284Y1549D01*
G01X6277D01*
G37*
G36*
G01X6000Y1697D02*
G01X5993Y1698D01*
G01X5986Y1700D01*
G01X5980Y1704D01*
G01X5975Y1709D01*
G01X5971Y1714D01*
G01X5967Y1720D01*
G01X5965Y1727D01*
G01X5964Y1734D01*
G01Y1741D01*
G01X5966Y1748D01*
G01X5969Y1755D01*
G01X5973Y1760D01*
G01X5978Y1766D01*
G01X5983Y1770D01*
G01X5990Y1773D01*
G01X5996Y1775D01*
G01X6003D01*
G01X6010D01*
G01X6017Y1773D01*
G01X6024Y1770D01*
G01X6029Y1766D01*
G01X6034Y1760D01*
G01X6038Y1755D01*
G01X6041Y1748D01*
G01X6042Y1741D01*
G01X6043Y1734D01*
G01X6042Y1727D01*
G01X6040Y1720D01*
G01X6036Y1714D01*
G01X6032Y1709D01*
G01X6027Y1704D01*
G01X6021Y1700D01*
G01X6014Y1698D01*
G01X6007Y1697D01*
G01X6000D01*
G37*
G36*
G01X5693Y1744D02*
G01X5686Y1746D01*
G01X5680Y1748D01*
G01X5674Y1752D01*
G01X5668Y1756D01*
G01X5664Y1762D01*
G01X5661Y1768D01*
G01X5658Y1775D01*
G01Y1782D01*
G01Y1789D01*
G01X5659Y1796D01*
G01X5662Y1802D01*
G01X5666Y1808D01*
G01X5671Y1813D01*
G01X5677Y1817D01*
G01X5683Y1820D01*
G01X5690Y1822D01*
G01X5697Y1823D01*
G01X5704Y1822D01*
G01X5711Y1820D01*
G01X5717Y1817D01*
G01X5723Y1813D01*
G01X5728Y1808D01*
G01X5732Y1802D01*
G01X5734Y1796D01*
G01X5736Y1789D01*
G01Y1782D01*
G01X5735Y1775D01*
G01X5733Y1768D01*
G01X5730Y1762D01*
G01X5725Y1756D01*
G01X5720Y1752D01*
G01X5714Y1748D01*
G01X5707Y1746D01*
G01X5700Y1744D01*
G01X5693D01*
G37*
G36*
G01X1774Y6871D02*
G01X1767D01*
G01X1760Y6873D01*
G01X1754Y6876D01*
G01X1748Y6881D01*
G01X1743Y6886D01*
G01X1739Y6891D01*
G01X1736Y6898D01*
G01X1735Y6905D01*
G01X1734Y6912D01*
G01X1735Y6919D01*
G01X1738Y6926D01*
G01X1741Y6932D01*
G01X1745Y6937D01*
G01X1751Y6942D01*
G01X1757Y6946D01*
G01X1763Y6948D01*
G01X1770Y6949D01*
G01X1777D01*
G01X1784Y6948D01*
G01X1791Y6946D01*
G01X1797Y6942D01*
G01X1802Y6937D01*
G01X1807Y6932D01*
G01X1810Y6926D01*
G01X1812Y6919D01*
G01X1813Y6912D01*
G01Y6905D01*
G01X1811Y6898D01*
G01X1808Y6891D01*
G01X1804Y6886D01*
G01X1800Y6881D01*
G01X1794Y6876D01*
G01X1788Y6873D01*
G01X1781Y6871D01*
G01X1774Y6871D01*
G37*
G36*
G01X608Y572D02*
G01X601Y573D01*
G01X595Y575D01*
G01X589Y579D01*
G01X583Y583D01*
G01X578Y588D01*
G01X575Y594D01*
G01X572Y601D01*
G01X571Y608D01*
G01Y615D01*
G01X572Y622D01*
G01X575Y628D01*
G01X578Y635D01*
G01X583Y640D01*
G01X589Y644D01*
G01X595Y648D01*
G01X601Y650D01*
G01X608Y651D01*
G01X616Y650D01*
G01X622Y649D01*
G01X629Y646D01*
G01X635Y642D01*
G01X640Y637D01*
G01X644Y632D01*
G01X647Y625D01*
G01X649Y618D01*
G01X650Y611D01*
G01X649Y604D01*
G01X647Y598D01*
G01X644Y591D01*
G01X640Y586D01*
G01X635Y581D01*
G01X629Y577D01*
G01X622Y574D01*
G01X616Y572D01*
G01X608Y572D01*
G37*
G36*
G01X2721Y1053D02*
G01X2714Y1054D01*
G01X2707Y1056D01*
G01X2701Y1060D01*
G01X2696Y1065D01*
G01X2692Y1070D01*
G01X2688Y1076D01*
G01X2686Y1083D01*
G01X2685Y1090D01*
G01Y1097D01*
G01X2687Y1104D01*
G01X2690Y1110D01*
G01X2694Y1116D01*
G01X2699Y1121D01*
G01X2704Y1126D01*
G01X2711Y1129D01*
G01X2717Y1130D01*
G01X2724Y1131D01*
G01X2732Y1130D01*
G01X2738Y1129D01*
G01X2745Y1126D01*
G01X2750Y1121D01*
G01X2755Y1116D01*
G01X2759Y1110D01*
G01X2762Y1104D01*
G01X2764Y1097D01*
G01Y1090D01*
G01X2763Y1083D01*
G01X2761Y1076D01*
G01X2757Y1070D01*
G01X2753Y1065D01*
G01X2748Y1060D01*
G01X2742Y1056D01*
G01X2735Y1054D01*
G01X2728Y1053D01*
G01X2721D01*
G37*
G36*
G01X5401Y1830D02*
G01X5394Y1832D01*
G01X5387Y1834D01*
G01X5381Y1838D01*
G01X5376Y1842D01*
G01X5372Y1848D01*
G01X5368Y1854D01*
G01X5366Y1861D01*
G01X5365Y1868D01*
G01Y1875D01*
G01X5367Y1882D01*
G01X5370Y1888D01*
G01X5374Y1894D01*
G01X5379Y1899D01*
G01X5384Y1903D01*
G01X5391Y1906D01*
G01X5397Y1908D01*
G01X5404Y1909D01*
G01X5411Y1908D01*
G01X5418Y1906D01*
G01X5425Y1903D01*
G01X5430Y1899D01*
G01X5435Y1894D01*
G01X5439Y1888D01*
G01X5442Y1882D01*
G01X5443Y1875D01*
G01X5444Y1868D01*
G01X5443Y1861D01*
G01X5441Y1854D01*
G01X5437Y1848D01*
G01X5433Y1842D01*
G01X5428Y1838D01*
G01X5421Y1834D01*
G01X5415Y1832D01*
G01X5408Y1830D01*
G01X5401D01*
G37*
G36*
G01X5630Y95D02*
G01X5623Y96D01*
G01X5617Y98D01*
G01X5611Y102D01*
G01X5605Y107D01*
G01X5601Y112D01*
G01X5598Y118D01*
G01X5595Y125D01*
G01Y132D01*
G01Y139D01*
G01X5596Y146D01*
G01X5599Y153D01*
G01X5603Y158D01*
G01X5608Y164D01*
G01X5614Y168D01*
G01X5620Y171D01*
G01X5627Y173D01*
G01X5634D01*
G01X5641D01*
G01X5648Y171D01*
G01X5654Y168D01*
G01X5660Y164D01*
G01X5665Y158D01*
G01X5669Y153D01*
G01X5671Y146D01*
G01X5673Y139D01*
G01Y132D01*
G01X5672Y125D01*
G01X5670Y118D01*
G01X5667Y112D01*
G01X5662Y107D01*
G01X5657Y102D01*
G01X5651Y98D01*
G01X5644Y96D01*
G01X5637Y95D01*
G01X5630D01*
G37*
G36*
G01X3295Y1287D02*
G01X3288Y1288D01*
G01X3281Y1290D01*
G01X3275Y1294D01*
G01X3270Y1299D01*
G01X3265Y1304D01*
G01X3262Y1310D01*
G01X3260Y1317D01*
G01X3259Y1324D01*
G01Y1331D01*
G01X3261Y1338D01*
G01X3263Y1344D01*
G01X3267Y1350D01*
G01X3272Y1355D01*
G01X3278Y1360D01*
G01X3284Y1363D01*
G01X3291Y1365D01*
G01X3298D01*
G01X3305D01*
G01X3312Y1363D01*
G01X3318Y1360D01*
G01X3324Y1355D01*
G01X3329Y1350D01*
G01X3333Y1344D01*
G01X3336Y1338D01*
G01X3337Y1331D01*
G01Y1324D01*
G01X3336Y1317D01*
G01X3334Y1310D01*
G01X3331Y1304D01*
G01X3327Y1299D01*
G01X3321Y1294D01*
G01X3315Y1290D01*
G01X3309Y1288D01*
G01X3302Y1287D01*
G01X3295D01*
G37*
G36*
G01X5630Y410D02*
G01X5623Y411D01*
G01X5617Y413D01*
G01X5611Y417D01*
G01X5605Y422D01*
G01X5601Y427D01*
G01X5598Y433D01*
G01X5595Y440D01*
G01Y447D01*
G01Y454D01*
G01X5596Y461D01*
G01X5599Y467D01*
G01X5603Y473D01*
G01X5608Y478D01*
G01X5614Y483D01*
G01X5620Y486D01*
G01X5627Y488D01*
G01X5634D01*
G01X5641D01*
G01X5648Y486D01*
G01X5654Y483D01*
G01X5660Y478D01*
G01X5665Y473D01*
G01X5669Y467D01*
G01X5671Y461D01*
G01X5673Y454D01*
G01Y447D01*
G01X5672Y440D01*
G01X5670Y433D01*
G01X5667Y427D01*
G01X5662Y422D01*
G01X5657Y417D01*
G01X5651Y413D01*
G01X5644Y411D01*
G01X5637Y410D01*
G01X5630D01*
G37*
G36*
G01X5850Y725D02*
G01X5843Y726D01*
G01X5836Y728D01*
G01X5830Y732D01*
G01X5825Y737D01*
G01X5820Y742D01*
G01X5817Y748D01*
G01X5815Y755D01*
G01X5814Y762D01*
G01Y769D01*
G01X5816Y776D01*
G01X5818Y782D01*
G01X5822Y788D01*
G01X5827Y793D01*
G01X5833Y798D01*
G01X5839Y801D01*
G01X5846Y803D01*
G01X5853D01*
G01X5860D01*
G01X5867Y801D01*
G01X5873Y798D01*
G01X5879Y793D01*
G01X5884Y788D01*
G01X5888Y782D01*
G01X5891Y776D01*
G01X5892Y769D01*
G01Y762D01*
G01X5891Y755D01*
G01X5889Y748D01*
G01X5886Y742D01*
G01X5882Y737D01*
G01X5876Y732D01*
G01X5870Y728D01*
G01X5864Y726D01*
G01X5857Y725D01*
G01X5850D01*
G37*
G36*
G01X5844Y1008D02*
G01X5837Y1009D01*
G01X5831Y1012D01*
G01X5824Y1015D01*
G01X5819Y1020D01*
G01X5815Y1025D01*
G01X5811Y1032D01*
G01X5809Y1038D01*
G01X5808Y1045D01*
G01X5809Y1052D01*
G01X5810Y1059D01*
G01X5813Y1066D01*
G01X5817Y1072D01*
G01X5822Y1077D01*
G01X5827Y1081D01*
G01X5834Y1084D01*
G01X5841Y1086D01*
G01X5848Y1087D01*
G01X5855Y1086D01*
G01X5861Y1084D01*
G01X5868Y1081D01*
G01X5873Y1077D01*
G01X5878Y1072D01*
G01X5882Y1066D01*
G01X5885Y1059D01*
G01X5887Y1052D01*
G01Y1045D01*
G01X5886Y1038D01*
G01X5884Y1032D01*
G01X5880Y1025D01*
G01X5876Y1020D01*
G01X5871Y1015D01*
G01X5865Y1012D01*
G01X5858Y1009D01*
G01X5851Y1008D01*
G01X5844D01*
G37*
G36*
G01X7200Y6579D02*
G01X7193Y6580D01*
G01X7186Y6581D01*
G01X7180Y6584D01*
G01X7174Y6588D01*
G01X7169Y6593D01*
G01X7165Y6599D01*
G01X7162Y6605D01*
G01X7160Y6612D01*
G01X7159Y6619D01*
G01X7160Y6626D01*
G01X7162Y6633D01*
G01X7165Y6639D01*
G01X7169Y6645D01*
G01X7174Y6650D01*
G01X7180Y6653D01*
G01X7186Y6656D01*
G01X7193Y6658D01*
G01X7200D01*
G01X7207Y6657D01*
G01X7214Y6655D01*
G01X7220Y6652D01*
G01X7226Y6647D01*
G01X7230Y6642D01*
G01X7234Y6636D01*
G01X7236Y6629D01*
G01X7238Y6622D01*
G01Y6615D01*
G01X7236Y6608D01*
G01X7234Y6602D01*
G01X7230Y6596D01*
G01X7226Y6590D01*
G01X7220Y6586D01*
G01X7214Y6583D01*
G01X7207Y6580D01*
G01X7200Y6579D01*
G37*
G36*
G01X5540Y1053D02*
G01X5533Y1054D01*
G01X5526Y1056D01*
G01X5520Y1060D01*
G01X5515Y1065D01*
G01X5510Y1070D01*
G01X5507Y1076D01*
G01X5505Y1083D01*
G01X5504Y1090D01*
G01Y1097D01*
G01X5506Y1104D01*
G01X5509Y1110D01*
G01X5512Y1116D01*
G01X5517Y1121D01*
G01X5523Y1126D01*
G01X5529Y1129D01*
G01X5536Y1130D01*
G01X5543Y1131D01*
G01X5550Y1130D01*
G01X5557Y1129D01*
G01X5563Y1126D01*
G01X5569Y1121D01*
G01X5574Y1116D01*
G01X5578Y1110D01*
G01X5581Y1104D01*
G01X5582Y1097D01*
G01X5583Y1090D01*
G01X5582Y1083D01*
G01X5579Y1076D01*
G01X5576Y1070D01*
G01X5572Y1065D01*
G01X5566Y1060D01*
G01X5560Y1056D01*
G01X5554Y1054D01*
G01X5547Y1053D01*
G01X5540D01*
G37*
G36*
G01X5233Y1121D02*
G01X5226Y1122D01*
G01X5219Y1125D01*
G01X5213Y1128D01*
G01X5208Y1133D01*
G01X5204Y1138D01*
G01X5200Y1145D01*
G01X5198Y1151D01*
G01X5197Y1158D01*
G01X5198Y1165D01*
G01X5199Y1172D01*
G01X5202Y1179D01*
G01X5206Y1185D01*
G01X5211Y1190D01*
G01X5216Y1194D01*
G01X5223Y1197D01*
G01X5229Y1199D01*
G01X5237D01*
G01X5244D01*
G01X5250Y1197D01*
G01X5257Y1194D01*
G01X5262Y1190D01*
G01X5267Y1185D01*
G01X5271Y1179D01*
G01X5274Y1172D01*
G01X5276Y1165D01*
G01Y1158D01*
G01X5275Y1151D01*
G01X5273Y1145D01*
G01X5269Y1138D01*
G01X5265Y1133D01*
G01X5260Y1128D01*
G01X5254Y1125D01*
G01X5247Y1122D01*
G01X5240Y1121D01*
G01X5233D01*
G37*
G36*
G01X4966Y1287D02*
G01X4959Y1288D01*
G01X4953Y1290D01*
G01X4946Y1294D01*
G01X4941Y1299D01*
G01X4937Y1304D01*
G01X4933Y1310D01*
G01X4931Y1317D01*
G01X4930Y1324D01*
G01X4931Y1331D01*
G01X4932Y1338D01*
G01X4935Y1344D01*
G01X4939Y1350D01*
G01X4944Y1355D01*
G01X4949Y1360D01*
G01X4956Y1363D01*
G01X4963Y1365D01*
G01X4970D01*
G01X4977D01*
G01X4984Y1363D01*
G01X4990Y1360D01*
G01X4996Y1355D01*
G01X5000Y1350D01*
G01X5004Y1344D01*
G01X5007Y1338D01*
G01X5009Y1331D01*
G01Y1324D01*
G01X5008Y1317D01*
G01X5006Y1310D01*
G01X5003Y1304D01*
G01X4998Y1299D01*
G01X4993Y1294D01*
G01X4987Y1290D01*
G01X4980Y1288D01*
G01X4973Y1287D01*
G01X4966D01*
G37*
G36*
G01X2634Y8094D02*
G01X2627Y8095D01*
G01X2620Y8097D01*
G01X2614Y8100D01*
G01X2608Y8104D01*
G01X2603Y8109D01*
G01X2599Y8115D01*
G01X2596Y8122D01*
G01X2595Y8129D01*
G01Y8136D01*
G01Y8143D01*
G01X2598Y8149D01*
G01X2601Y8156D01*
G01X2605Y8161D01*
G01X2611Y8166D01*
G01X2617Y8169D01*
G01X2623Y8172D01*
G01X2630Y8173D01*
G01X2637D01*
G01X2644Y8172D01*
G01X2651Y8169D01*
G01X2657Y8166D01*
G01X2662Y8161D01*
G01X2667Y8156D01*
G01X2670Y8149D01*
G01X2672Y8143D01*
G01X2673Y8136D01*
G01Y8129D01*
G01X2671Y8122D01*
G01X2669Y8115D01*
G01X2665Y8109D01*
G01X2660Y8104D01*
G01X2654Y8100D01*
G01X2648Y8097D01*
G01X2641Y8095D01*
G01X2634Y8094D01*
G37*
G36*
G01X3492Y1531D02*
G01X3485Y1533D01*
G01X3478Y1535D01*
G01X3472Y1539D01*
G01X3467Y1543D01*
G01X3462Y1549D01*
G01X3459Y1555D01*
G01X3457Y1562D01*
G01X3456Y1569D01*
G01Y1576D01*
G01X3458Y1583D01*
G01X3460Y1589D01*
G01X3464Y1595D01*
G01X3469Y1600D01*
G01X3475Y1604D01*
G01X3481Y1607D01*
G01X3488Y1609D01*
G01X3495Y1610D01*
G01X3502Y1609D01*
G01X3509Y1607D01*
G01X3515Y1604D01*
G01X3521Y1600D01*
G01X3526Y1595D01*
G01X3530Y1589D01*
G01X3533Y1583D01*
G01X3534Y1576D01*
G01Y1569D01*
G01Y1562D01*
G01X3531Y1555D01*
G01X3528Y1549D01*
G01X3524Y1543D01*
G01X3518Y1539D01*
G01X3512Y1535D01*
G01X3506Y1533D01*
G01X3499Y1531D01*
G01X3492D01*
G37*
G36*
G01X4769Y1531D02*
G01X4762Y1533D01*
G01X4756Y1535D01*
G01X4749Y1539D01*
G01X4744Y1543D01*
G01X4740Y1549D01*
G01X4736Y1555D01*
G01X4734Y1562D01*
G01X4733Y1569D01*
G01X4734Y1576D01*
G01X4735Y1583D01*
G01X4738Y1589D01*
G01X4742Y1595D01*
G01X4747Y1600D01*
G01X4752Y1604D01*
G01X4759Y1607D01*
G01X4766Y1609D01*
G01X4773Y1610D01*
G01X4780Y1609D01*
G01X4786Y1607D01*
G01X4793Y1604D01*
G01X4799Y1600D01*
G01X4803Y1595D01*
G01X4807Y1589D01*
G01X4810Y1583D01*
G01X4812Y1576D01*
G01Y1569D01*
G01X4811Y1562D01*
G01X4809Y1555D01*
G01X4805Y1549D01*
G01X4801Y1543D01*
G01X4796Y1539D01*
G01X4790Y1535D01*
G01X4783Y1533D01*
G01X4776Y1531D01*
G01X4769D01*
G37*
G36*
G01X4664Y1827D02*
G01X4657Y1829D01*
G01X4650Y1831D01*
G01X4644Y1835D01*
G01X4639Y1839D01*
G01X4635Y1845D01*
G01X4631Y1851D01*
G01X4629Y1858D01*
G01X4628Y1865D01*
G01Y1872D01*
G01X4630Y1879D01*
G01X4633Y1885D01*
G01X4637Y1891D01*
G01X4642Y1896D01*
G01X4647Y1900D01*
G01X4654Y1903D01*
G01X4660Y1905D01*
G01X4667Y1906D01*
G01X4674Y1905D01*
G01X4681Y1903D01*
G01X4688Y1900D01*
G01X4693Y1896D01*
G01X4698Y1891D01*
G01X4702Y1885D01*
G01X4705Y1879D01*
G01X4706Y1872D01*
G01X4707Y1865D01*
G01X4706Y1858D01*
G01X4704Y1851D01*
G01X4700Y1845D01*
G01X4696Y1839D01*
G01X4691Y1835D01*
G01X4685Y1831D01*
G01X4678Y1829D01*
G01X4671Y1827D01*
G01X4664D01*
G37*
G36*
G01X5404Y6359D02*
G01X5397D01*
G01X5391Y6361D01*
G01X5384Y6364D01*
G01X5379Y6368D01*
G01X5374Y6374D01*
G01X5370Y6379D01*
G01X5367Y6386D01*
G01X5365Y6393D01*
G01Y6400D01*
G01X5366Y6407D01*
G01X5368Y6414D01*
G01X5372Y6420D01*
G01X5376Y6425D01*
G01X5381Y6430D01*
G01X5387Y6434D01*
G01X5394Y6436D01*
G01X5401Y6437D01*
G01X5408D01*
G01X5415Y6436D01*
G01X5421Y6434D01*
G01X5428Y6430D01*
G01X5433Y6425D01*
G01X5437Y6420D01*
G01X5441Y6414D01*
G01X5443Y6407D01*
G01X5444Y6400D01*
G01X5443Y6393D01*
G01X5442Y6386D01*
G01X5439Y6379D01*
G01X5435Y6374D01*
G01X5430Y6368D01*
G01X5425Y6364D01*
G01X5418Y6361D01*
G01X5411Y6359D01*
G01X5404Y6359D01*
G37*
G36*
G01X1649Y7159D02*
G01X1642Y7160D01*
G01X1635Y7162D01*
G01X1629Y7165D01*
G01X1623Y7169D01*
G01X1618Y7174D01*
G01X1614Y7180D01*
G01X1611Y7186D01*
G01X1610Y7193D01*
G01Y7200D01*
G01X1611Y7207D01*
G01X1613Y7214D01*
G01X1616Y7220D01*
G01X1620Y7226D01*
G01X1626Y7230D01*
G01X1632Y7234D01*
G01X1638Y7236D01*
G01X1645Y7238D01*
G01X1652D01*
G01X1659Y7236D01*
G01X1666Y7234D01*
G01X1672Y7230D01*
G01X1677Y7226D01*
G01X1682Y7220D01*
G01X1685Y7214D01*
G01X1687Y7207D01*
G01X1688Y7200D01*
G01Y7193D01*
G01X1686Y7186D01*
G01X1684Y7180D01*
G01X1680Y7174D01*
G01X1675Y7169D01*
G01X1669Y7165D01*
G01X1663Y7162D01*
G01X1656Y7160D01*
G01X1649Y7159D01*
G37*
G36*
G01X8144Y1264D02*
G01X8136D01*
G01X8130Y1266D01*
G01X8123Y1268D01*
G01X8117Y1272D01*
G01X8112Y1277D01*
G01X8108Y1283D01*
G01X8105Y1289D01*
G01X8103Y1296D01*
G01X8102Y1303D01*
G01X8103Y1310D01*
G01X8105Y1317D01*
G01X8108Y1323D01*
G01X8112Y1329D01*
G01X8117Y1334D01*
G01X8123Y1338D01*
G01X8130Y1341D01*
G01X8136Y1342D01*
G01X8144D01*
G01X8151D01*
G01X8157Y1339D01*
G01X8163Y1336D01*
G01X8169Y1332D01*
G01X8174Y1326D01*
G01X8177Y1320D01*
G01X8180Y1314D01*
G01X8181Y1307D01*
G01Y1300D01*
G01X8180Y1293D01*
G01X8177Y1286D01*
G01X8174Y1280D01*
G01X8169Y1275D01*
G01X8163Y1270D01*
G01X8157Y1267D01*
G01X8151Y1265D01*
G01X8144Y1264D01*
G37*
G36*
G01X8136Y5595D02*
G01X8129D01*
G01X8122Y5596D01*
G01X8115Y5599D01*
G01X8109Y5603D01*
G01X8104Y5608D01*
G01X8100Y5614D01*
G01X8097Y5620D01*
G01X8095Y5627D01*
G01X8094Y5634D01*
G01X8095Y5641D01*
G01X8097Y5648D01*
G01X8100Y5654D01*
G01X8104Y5660D01*
G01X8109Y5665D01*
G01X8115Y5669D01*
G01X8122Y5671D01*
G01X8129Y5673D01*
G01X8136D01*
G01X8143Y5672D01*
G01X8149Y5670D01*
G01X8156Y5667D01*
G01X8161Y5662D01*
G01X8166Y5657D01*
G01X8169Y5651D01*
G01X8172Y5644D01*
G01X8173Y5637D01*
G01Y5630D01*
G01X8172Y5623D01*
G01X8169Y5617D01*
G01X8166Y5611D01*
G01X8161Y5605D01*
G01X8156Y5601D01*
G01X8149Y5598D01*
G01X8143Y5595D01*
G01X8136Y5595D01*
G37*
G36*
G01X7829Y1264D02*
G01X7821D01*
G01X7815Y1266D01*
G01X7808Y1268D01*
G01X7802Y1272D01*
G01X7797Y1277D01*
G01X7793Y1283D01*
G01X7790Y1289D01*
G01X7788Y1296D01*
G01X7787Y1303D01*
G01X7788Y1310D01*
G01X7790Y1317D01*
G01X7793Y1323D01*
G01X7797Y1329D01*
G01X7802Y1334D01*
G01X7808Y1338D01*
G01X7815Y1341D01*
G01X7821Y1342D01*
G01X7829D01*
G01X7836D01*
G01X7842Y1339D01*
G01X7848Y1336D01*
G01X7854Y1332D01*
G01X7859Y1326D01*
G01X7862Y1320D01*
G01X7865Y1314D01*
G01X7866Y1307D01*
G01Y1300D01*
G01X7865Y1293D01*
G01X7862Y1286D01*
G01X7859Y1280D01*
G01X7854Y1275D01*
G01X7848Y1270D01*
G01X7842Y1267D01*
G01X7836Y1265D01*
G01X7829Y1264D01*
G37*
G36*
G01X7514Y1473D02*
G01X7507D01*
G01X7500Y1475D01*
G01X7493Y1478D01*
G01X7487Y1482D01*
G01X7482Y1487D01*
G01X7478Y1492D01*
G01X7475Y1499D01*
G01X7473Y1505D01*
G01X7472Y1512D01*
G01X7473Y1519D01*
G01X7475Y1526D01*
G01X7478Y1533D01*
G01X7482Y1538D01*
G01X7487Y1543D01*
G01X7493Y1547D01*
G01X7500Y1550D01*
G01X7507Y1551D01*
G01X7514Y1552D01*
G01X7521Y1551D01*
G01X7527Y1549D01*
G01X7534Y1545D01*
G01X7539Y1541D01*
G01X7544Y1536D01*
G01X7547Y1530D01*
G01X7550Y1523D01*
G01X7551Y1516D01*
G01Y1509D01*
G01X7550Y1502D01*
G01X7547Y1495D01*
G01X7544Y1489D01*
G01X7539Y1484D01*
G01X7534Y1480D01*
G01X7527Y1476D01*
G01X7521Y1474D01*
G01X7514Y1473D01*
G37*
G36*
G01X1067Y1610D02*
G01X1060Y1611D01*
G01X1054Y1613D01*
G01X1048Y1616D01*
G01X1042Y1620D01*
G01X1037Y1626D01*
G01X1034Y1632D01*
G01X1031Y1638D01*
G01X1030Y1645D01*
G01Y1652D01*
G01X1031Y1659D01*
G01X1034Y1666D01*
G01X1037Y1672D01*
G01X1042Y1677D01*
G01X1048Y1682D01*
G01X1054Y1685D01*
G01X1060Y1687D01*
G01X1067Y1688D01*
G01X1075D01*
G01X1081Y1686D01*
G01X1088Y1684D01*
G01X1094Y1680D01*
G01X1099Y1675D01*
G01X1103Y1669D01*
G01X1106Y1663D01*
G01X1108Y1656D01*
G01X1109Y1649D01*
G01X1108Y1642D01*
G01X1106Y1635D01*
G01X1103Y1629D01*
G01X1099Y1623D01*
G01X1094Y1618D01*
G01X1088Y1614D01*
G01X1081Y1611D01*
G01X1075Y1610D01*
G01X1067Y1610D01*
G37*
G36*
G01X7200Y1610D02*
G01X7193D01*
G01X7186Y1611D01*
G01X7180Y1614D01*
G01X7174Y1618D01*
G01X7169Y1623D01*
G01X7165Y1629D01*
G01X7162Y1635D01*
G01X7160Y1642D01*
G01X7159Y1649D01*
G01X7160Y1656D01*
G01X7162Y1663D01*
G01X7165Y1669D01*
G01X7169Y1675D01*
G01X7174Y1680D01*
G01X7180Y1684D01*
G01X7186Y1686D01*
G01X7193Y1688D01*
G01X7200D01*
G01X7207Y1687D01*
G01X7214Y1685D01*
G01X7220Y1682D01*
G01X7226Y1677D01*
G01X7230Y1672D01*
G01X7234Y1666D01*
G01X7236Y1659D01*
G01X7238Y1652D01*
G01Y1645D01*
G01X7236Y1638D01*
G01X7234Y1632D01*
G01X7230Y1626D01*
G01X7226Y1620D01*
G01X7220Y1616D01*
G01X7214Y1613D01*
G01X7207Y1611D01*
G01X7200Y1610D01*
G37*
G36*
G01X6912Y1734D02*
G01X6905Y1735D01*
G01X6898Y1736D01*
G01X6891Y1739D01*
G01X6886Y1743D01*
G01X6881Y1748D01*
G01X6876Y1754D01*
G01X6873Y1760D01*
G01X6871Y1767D01*
G01Y1774D01*
G01Y1781D01*
G01X6873Y1788D01*
G01X6876Y1794D01*
G01X6881Y1800D01*
G01X6886Y1804D01*
G01X6891Y1808D01*
G01X6898Y1811D01*
G01X6905Y1813D01*
G01X6912D01*
G01X6919Y1812D01*
G01X6926Y1810D01*
G01X6932Y1807D01*
G01X6937Y1802D01*
G01X6942Y1797D01*
G01X6946Y1791D01*
G01X6948Y1784D01*
G01X6949Y1777D01*
G01Y1770D01*
G01X6948Y1763D01*
G01X6946Y1757D01*
G01X6942Y1751D01*
G01X6937Y1745D01*
G01X6932Y1741D01*
G01X6926Y1738D01*
G01X6919Y1735D01*
G01X6912Y1734D01*
G37*
G36*
G01X6681Y1947D02*
G01X6674Y1948D01*
G01X6667Y1949D01*
G01X6661Y1952D01*
G01X6655Y1956D01*
G01X6650Y1961D01*
G01X6645Y1967D01*
G01X6642Y1973D01*
G01X6641Y1980D01*
G01X6640Y1987D01*
G01X6641Y1994D01*
G01X6642Y2001D01*
G01X6645Y2007D01*
G01X6650Y2013D01*
G01X6655Y2018D01*
G01X6661Y2021D01*
G01X6667Y2024D01*
G01X6674Y2026D01*
G01X6681D01*
G01X6688Y2025D01*
G01X6695Y2023D01*
G01X6701Y2020D01*
G01X6706Y2015D01*
G01X6711Y2010D01*
G01X6715Y2004D01*
G01X6717Y1997D01*
G01X6719Y1990D01*
G01Y1983D01*
G01X6717Y1976D01*
G01X6715Y1970D01*
G01X6711Y1964D01*
G01X6706Y1958D01*
G01X6701Y1954D01*
G01X6695Y1951D01*
G01X6688Y1948D01*
G01X6681Y1947D01*
G37*
G36*
G01X1300Y87D02*
G01X1293Y88D01*
G01X1286Y91D01*
G01X1280Y94D01*
G01X1275Y99D01*
G01X1270Y104D01*
G01X1267Y111D01*
G01X1265Y117D01*
G01X1264Y124D01*
G01Y131D01*
G01X1266Y138D01*
G01X1268Y145D01*
G01X1272Y151D01*
G01X1277Y156D01*
G01X1283Y160D01*
G01X1289Y163D01*
G01X1296Y165D01*
G01X1303D01*
G01X1310D01*
G01X1317Y163D01*
G01X1323Y160D01*
G01X1329Y156D01*
G01X1334Y151D01*
G01X1338Y145D01*
G01X1341Y138D01*
G01X1342Y131D01*
G01Y124D01*
G01Y117D01*
G01X1339Y111D01*
G01X1336Y104D01*
G01X1332Y99D01*
G01X1326Y94D01*
G01X1320Y91D01*
G01X1314Y88D01*
G01X1307Y87D01*
G01X1300D01*
G37*
G36*
G01X1300Y402D02*
G01X1293Y403D01*
G01X1286Y405D01*
G01X1280Y409D01*
G01X1275Y414D01*
G01X1270Y419D01*
G01X1267Y425D01*
G01X1265Y432D01*
G01X1264Y439D01*
G01Y446D01*
G01X1266Y453D01*
G01X1268Y460D01*
G01X1272Y465D01*
G01X1277Y471D01*
G01X1283Y475D01*
G01X1289Y478D01*
G01X1296Y480D01*
G01X1303D01*
G01X1310D01*
G01X1317Y478D01*
G01X1323Y475D01*
G01X1329Y471D01*
G01X1334Y465D01*
G01X1338Y460D01*
G01X1341Y453D01*
G01X1342Y446D01*
G01Y439D01*
G01Y432D01*
G01X1339Y425D01*
G01X1336Y419D01*
G01X1332Y414D01*
G01X1326Y409D01*
G01X1320Y405D01*
G01X1314Y403D01*
G01X1307Y402D01*
G01X1300D01*
G37*
G36*
G01X1509Y717D02*
G01X1502Y718D01*
G01X1495Y720D01*
G01X1489Y724D01*
G01X1484Y729D01*
G01X1480Y734D01*
G01X1476Y740D01*
G01X1474Y747D01*
G01X1473Y754D01*
G01Y761D01*
G01X1475Y768D01*
G01X1478Y775D01*
G01X1482Y780D01*
G01X1487Y786D01*
G01X1492Y790D01*
G01X1499Y793D01*
G01X1505Y795D01*
G01X1512D01*
G01X1519D01*
G01X1526Y793D01*
G01X1533Y790D01*
G01X1538Y786D01*
G01X1543Y780D01*
G01X1547Y775D01*
G01X1550Y768D01*
G01X1551Y761D01*
G01X1552Y754D01*
G01X1551Y747D01*
G01X1549Y740D01*
G01X1545Y734D01*
G01X1541Y729D01*
G01X1536Y724D01*
G01X1530Y720D01*
G01X1523Y718D01*
G01X1516Y717D01*
G01X1509D01*
G37*
G36*
G01X1645Y1030D02*
G01X1638Y1031D01*
G01X1632Y1034D01*
G01X1626Y1037D01*
G01X1620Y1042D01*
G01X1616Y1048D01*
G01X1613Y1054D01*
G01X1611Y1060D01*
G01X1610Y1067D01*
G01Y1075D01*
G01X1611Y1081D01*
G01X1614Y1088D01*
G01X1618Y1094D01*
G01X1623Y1099D01*
G01X1629Y1103D01*
G01X1635Y1106D01*
G01X1642Y1108D01*
G01X1649Y1109D01*
G01X1656Y1108D01*
G01X1663Y1106D01*
G01X1669Y1103D01*
G01X1675Y1099D01*
G01X1680Y1094D01*
G01X1684Y1088D01*
G01X1686Y1081D01*
G01X1688Y1075D01*
G01Y1067D01*
G01X1687Y1060D01*
G01X1685Y1054D01*
G01X1682Y1048D01*
G01X1677Y1042D01*
G01X1672Y1037D01*
G01X1666Y1034D01*
G01X1659Y1031D01*
G01X1652Y1030D01*
G01X1645D01*
G37*
G36*
G01X6486Y5658D02*
G01X6479D01*
G01X6472Y5659D01*
G01X6466Y5662D01*
G01X6460Y5666D01*
G01X6455Y5671D01*
G01X6450Y5677D01*
G01X6447Y5683D01*
G01X6446Y5690D01*
G01X6445Y5697D01*
G01X6446Y5704D01*
G01X6447Y5711D01*
G01X6450Y5717D01*
G01X6455Y5723D01*
G01X6460Y5728D01*
G01X6466Y5732D01*
G01X6472Y5734D01*
G01X6479Y5736D01*
G01X6486D01*
G01X6493Y5735D01*
G01X6500Y5733D01*
G01X6506Y5730D01*
G01X6511Y5725D01*
G01X6516Y5720D01*
G01X6520Y5714D01*
G01X6522Y5707D01*
G01X6523Y5700D01*
G01Y5693D01*
G01X6522Y5686D01*
G01X6520Y5680D01*
G01X6516Y5674D01*
G01X6511Y5668D01*
G01X6506Y5664D01*
G01X6500Y5661D01*
G01X6493Y5658D01*
G01X6486Y5658D01*
G37*
G36*
G01X1090Y5504D02*
G01X1083Y5505D01*
G01X1076Y5507D01*
G01X1070Y5510D01*
G01X1065Y5515D01*
G01X1060Y5520D01*
G01X1056Y5526D01*
G01X1054Y5533D01*
G01X1053Y5540D01*
G01Y5547D01*
G01X1054Y5554D01*
G01X1056Y5560D01*
G01X1060Y5566D01*
G01X1065Y5572D01*
G01X1070Y5576D01*
G01X1076Y5579D01*
G01X1083Y5582D01*
G01X1090Y5583D01*
G01X1097Y5582D01*
G01X1104Y5581D01*
G01X1110Y5578D01*
G01X1116Y5574D01*
G01X1121Y5569D01*
G01X1126Y5563D01*
G01X1129Y5557D01*
G01X1130Y5550D01*
G01X1131Y5543D01*
G01X1130Y5536D01*
G01X1129Y5529D01*
G01X1126Y5523D01*
G01X1121Y5517D01*
G01X1116Y5512D01*
G01X1110Y5509D01*
G01X1104Y5506D01*
G01X1097Y5504D01*
G01X1090Y5504D01*
G37*
G36*
G01X1770Y1318D02*
G01X1763Y1320D01*
G01X1757Y1322D01*
G01X1751Y1326D01*
G01X1745Y1330D01*
G01X1741Y1336D01*
G01X1738Y1342D01*
G01X1735Y1349D01*
G01X1734Y1356D01*
G01X1735Y1363D01*
G01X1736Y1370D01*
G01X1739Y1376D01*
G01X1743Y1382D01*
G01X1748Y1387D01*
G01X1754Y1391D01*
G01X1760Y1394D01*
G01X1767Y1396D01*
G01X1774Y1397D01*
G01X1781Y1396D01*
G01X1788Y1394D01*
G01X1794Y1391D01*
G01X1800Y1387D01*
G01X1804Y1382D01*
G01X1808Y1376D01*
G01X1811Y1370D01*
G01X1813Y1363D01*
G01Y1356D01*
G01X1812Y1349D01*
G01X1810Y1342D01*
G01X1807Y1336D01*
G01X1802Y1330D01*
G01X1797Y1326D01*
G01X1791Y1322D01*
G01X1784Y1320D01*
G01X1777Y1318D01*
G01X1770D01*
G37*
G36*
G01X762Y2375D02*
G01X755Y2376D01*
G01X748Y2378D01*
G01X742Y2382D01*
G01X737Y2386D01*
G01X732Y2391D01*
G01X728Y2398D01*
G01X726Y2404D01*
G01X725Y2411D01*
G01Y2418D01*
G01X726Y2425D01*
G01X728Y2432D01*
G01X732Y2438D01*
G01X737Y2443D01*
G01X742Y2447D01*
G01X748Y2451D01*
G01X755Y2453D01*
G01X762Y2454D01*
G01X769D01*
G01X776Y2452D01*
G01X782Y2449D01*
G01X788Y2445D01*
G01X793Y2441D01*
G01X798Y2435D01*
G01X801Y2428D01*
G01X803Y2422D01*
G01Y2415D01*
G01Y2408D01*
G01X801Y2401D01*
G01X798Y2394D01*
G01X793Y2389D01*
G01X788Y2384D01*
G01X782Y2380D01*
G01X776Y2377D01*
G01X769Y2376D01*
G01X762Y2375D01*
G37*
G36*
G01X1983Y1549D02*
G01X1976Y1550D01*
G01X1970Y1553D01*
G01X1964Y1557D01*
G01X1958Y1561D01*
G01X1954Y1567D01*
G01X1951Y1573D01*
G01X1948Y1580D01*
G01X1947Y1587D01*
G01X1948Y1594D01*
G01X1949Y1601D01*
G01X1952Y1607D01*
G01X1956Y1613D01*
G01X1961Y1618D01*
G01X1967Y1622D01*
G01X1973Y1625D01*
G01X1980Y1627D01*
G01X1987Y1628D01*
G01X1994Y1627D01*
G01X2001Y1625D01*
G01X2007Y1622D01*
G01X2013Y1618D01*
G01X2018Y1613D01*
G01X2021Y1607D01*
G01X2024Y1601D01*
G01X2026Y1594D01*
G01Y1587D01*
G01X2025Y1580D01*
G01X2023Y1573D01*
G01X2020Y1567D01*
G01X2015Y1561D01*
G01X2010Y1557D01*
G01X2004Y1553D01*
G01X1997Y1550D01*
G01X1990Y1549D01*
G01X1983D01*
G37*
G36*
G01X2261Y1697D02*
G01X2254Y1698D01*
G01X2247Y1700D01*
G01X2241Y1704D01*
G01X2236Y1709D01*
G01X2231Y1714D01*
G01X2228Y1720D01*
G01X2226Y1727D01*
G01X2225Y1734D01*
G01Y1741D01*
G01X2227Y1748D01*
G01X2230Y1755D01*
G01X2233Y1760D01*
G01X2238Y1766D01*
G01X2244Y1770D01*
G01X2250Y1773D01*
G01X2257Y1775D01*
G01X2264D01*
G01X2271D01*
G01X2278Y1773D01*
G01X2284Y1770D01*
G01X2290Y1766D01*
G01X2295Y1760D01*
G01X2299Y1755D01*
G01X2302Y1748D01*
G01X2303Y1741D01*
G01X2304Y1734D01*
G01X2303Y1727D01*
G01X2300Y1720D01*
G01X2297Y1714D01*
G01X2293Y1709D01*
G01X2287Y1704D01*
G01X2281Y1700D01*
G01X2275Y1698D01*
G01X2268Y1697D01*
G01X2261D01*
G37*
G36*
G01X2567Y1744D02*
G01X2560Y1746D01*
G01X2554Y1748D01*
G01X2548Y1752D01*
G01X2542Y1756D01*
G01X2538Y1762D01*
G01X2535Y1768D01*
G01X2532Y1775D01*
G01Y1782D01*
G01Y1789D01*
G01X2533Y1796D01*
G01X2536Y1802D01*
G01X2540Y1808D01*
G01X2545Y1813D01*
G01X2551Y1817D01*
G01X2557Y1820D01*
G01X2564Y1822D01*
G01X2571Y1823D01*
G01X2578Y1822D01*
G01X2585Y1820D01*
G01X2591Y1817D01*
G01X2597Y1813D01*
G01X2602Y1808D01*
G01X2606Y1802D01*
G01X2608Y1796D01*
G01X2610Y1789D01*
G01Y1782D01*
G01X2609Y1775D01*
G01X2607Y1768D01*
G01X2604Y1762D01*
G01X2599Y1756D01*
G01X2594Y1752D01*
G01X2588Y1748D01*
G01X2581Y1746D01*
G01X2574Y1744D01*
G01X2567D01*
G37*
G36*
G01X1158Y2992D02*
G01X1151Y2993D01*
G01X1145Y2995D01*
G01X1138Y2998D01*
G01X1133Y3003D01*
G01X1128Y3008D01*
G01X1125Y3014D01*
G01X1122Y3021D01*
G01X1121Y3028D01*
G01Y3035D01*
G01X1122Y3042D01*
G01X1125Y3048D01*
G01X1128Y3054D01*
G01X1133Y3060D01*
G01X1138Y3064D01*
G01X1145Y3067D01*
G01X1151Y3070D01*
G01X1158Y3071D01*
G01X1165Y3070D01*
G01X1172Y3069D01*
G01X1179Y3066D01*
G01X1185Y3062D01*
G01X1190Y3057D01*
G01X1194Y3051D01*
G01X1197Y3045D01*
G01X1199Y3038D01*
G01Y3031D01*
G01Y3024D01*
G01X1197Y3017D01*
G01X1194Y3011D01*
G01X1190Y3005D01*
G01X1185Y3000D01*
G01X1179Y2996D01*
G01X1172Y2994D01*
G01X1165Y2992D01*
G01X1158Y2992D01*
G37*
G36*
G01X2860Y1830D02*
G01X2853Y1832D01*
G01X2846Y1834D01*
G01X2840Y1838D01*
G01X2835Y1842D01*
G01X2830Y1848D01*
G01X2827Y1854D01*
G01X2825Y1861D01*
G01X2824Y1868D01*
G01Y1875D01*
G01X2826Y1882D01*
G01X2829Y1888D01*
G01X2833Y1894D01*
G01X2837Y1899D01*
G01X2843Y1903D01*
G01X2849Y1906D01*
G01X2856Y1908D01*
G01X2863Y1909D01*
G01X2870Y1908D01*
G01X2877Y1906D01*
G01X2884Y1903D01*
G01X2889Y1899D01*
G01X2894Y1894D01*
G01X2898Y1888D01*
G01X2901Y1882D01*
G01X2902Y1875D01*
G01X2903Y1868D01*
G01X2902Y1861D01*
G01X2899Y1854D01*
G01X2896Y1848D01*
G01X2892Y1842D01*
G01X2886Y1838D01*
G01X2880Y1834D01*
G01X2874Y1832D01*
G01X2867Y1830D01*
G01X2860D01*
G37*
G36*
G01X2630Y95D02*
G01X2623Y96D01*
G01X2617Y98D01*
G01X2611Y102D01*
G01X2605Y107D01*
G01X2601Y112D01*
G01X2598Y118D01*
G01X2595Y125D01*
G01Y132D01*
G01Y139D01*
G01X2596Y146D01*
G01X2599Y153D01*
G01X2603Y158D01*
G01X2608Y164D01*
G01X2614Y168D01*
G01X2620Y171D01*
G01X2627Y173D01*
G01X2634D01*
G01X2641D01*
G01X2648Y171D01*
G01X2654Y168D01*
G01X2660Y164D01*
G01X2665Y158D01*
G01X2669Y153D01*
G01X2671Y146D01*
G01X2673Y139D01*
G01Y132D01*
G01X2672Y125D01*
G01X2670Y118D01*
G01X2667Y112D01*
G01X2662Y107D01*
G01X2657Y102D01*
G01X2651Y98D01*
G01X2644Y96D01*
G01X2637Y95D01*
G01X2630D01*
G37*
G36*
G01X5634Y7780D02*
G01X5627D01*
G01X5620Y7782D01*
G01X5614Y7785D01*
G01X5608Y7789D01*
G01X5603Y7794D01*
G01X5599Y7800D01*
G01X5596Y7807D01*
G01X5595Y7814D01*
G01Y7821D01*
G01Y7828D01*
G01X5598Y7834D01*
G01X5601Y7841D01*
G01X5605Y7846D01*
G01X5611Y7851D01*
G01X5617Y7854D01*
G01X5623Y7857D01*
G01X5630Y7858D01*
G01X5637D01*
G01X5644Y7857D01*
G01X5651Y7854D01*
G01X5657Y7851D01*
G01X5662Y7846D01*
G01X5667Y7841D01*
G01X5670Y7834D01*
G01X5672Y7828D01*
G01X5673Y7821D01*
G01Y7814D01*
G01X5671Y7807D01*
G01X5669Y7800D01*
G01X5665Y7794D01*
G01X5660Y7789D01*
G01X5654Y7785D01*
G01X5648Y7782D01*
G01X5641Y7780D01*
G01X5634Y7780D01*
G37*
G36*
G01X2630Y410D02*
G01X2623Y411D01*
G01X2617Y413D01*
G01X2611Y417D01*
G01X2605Y422D01*
G01X2601Y427D01*
G01X2598Y433D01*
G01X2595Y440D01*
G01Y447D01*
G01Y454D01*
G01X2596Y461D01*
G01X2599Y467D01*
G01X2603Y473D01*
G01X2608Y478D01*
G01X2614Y483D01*
G01X2620Y486D01*
G01X2627Y488D01*
G01X2634D01*
G01X2641D01*
G01X2648Y486D01*
G01X2654Y483D01*
G01X2660Y478D01*
G01X2665Y473D01*
G01X2669Y467D01*
G01X2671Y461D01*
G01X2673Y454D01*
G01Y447D01*
G01X2672Y440D01*
G01X2670Y433D01*
G01X2667Y427D01*
G01X2662Y422D01*
G01X2657Y417D01*
G01X2651Y413D01*
G01X2644Y411D01*
G01X2637Y410D01*
G01X2630D01*
G37*
G36*
G01X2411Y725D02*
G01X2404Y726D01*
G01X2398Y728D01*
G01X2391Y732D01*
G01X2386Y737D01*
G01X2382Y742D01*
G01X2378Y748D01*
G01X2376Y755D01*
G01X2375Y762D01*
G01X2376Y769D01*
G01X2377Y776D01*
G01X2380Y782D01*
G01X2384Y788D01*
G01X2389Y793D01*
G01X2394Y798D01*
G01X2401Y801D01*
G01X2408Y803D01*
G01X2415D01*
G01X2422D01*
G01X2428Y801D01*
G01X2435Y798D01*
G01X2441Y793D01*
G01X2445Y788D01*
G01X2449Y782D01*
G01X2452Y776D01*
G01X2454Y769D01*
G01Y762D01*
G01X2453Y755D01*
G01X2451Y748D01*
G01X2447Y742D01*
G01X2443Y737D01*
G01X2438Y732D01*
G01X2432Y728D01*
G01X2425Y726D01*
G01X2418Y725D01*
G01X2411D01*
G37*
G36*
G01X2417Y1008D02*
G01X2410Y1009D01*
G01X2403Y1012D01*
G01X2397Y1015D01*
G01X2392Y1020D01*
G01X2387Y1025D01*
G01X2384Y1032D01*
G01X2382Y1038D01*
G01X2381Y1045D01*
G01Y1052D01*
G01X2383Y1059D01*
G01X2385Y1066D01*
G01X2389Y1072D01*
G01X2394Y1077D01*
G01X2400Y1081D01*
G01X2406Y1084D01*
G01X2413Y1086D01*
G01X2420Y1087D01*
G01X2427Y1086D01*
G01X2434Y1084D01*
G01X2440Y1081D01*
G01X2446Y1077D01*
G01X2451Y1072D01*
G01X2455Y1066D01*
G01X2458Y1059D01*
G01X2459Y1052D01*
G01Y1045D01*
G01Y1038D01*
G01X2456Y1032D01*
G01X2453Y1025D01*
G01X2449Y1020D01*
G01X2443Y1015D01*
G01X2437Y1012D01*
G01X2431Y1009D01*
G01X2424Y1008D01*
G01X2417D01*
G37*
G36*
G01X3028Y1121D02*
G01X3021Y1122D01*
G01X3014Y1125D01*
G01X3008Y1128D01*
G01X3003Y1133D01*
G01X2998Y1138D01*
G01X2995Y1145D01*
G01X2993Y1151D01*
G01X2992Y1158D01*
G01Y1165D01*
G01X2994Y1172D01*
G01X2996Y1179D01*
G01X3000Y1185D01*
G01X3005Y1190D01*
G01X3011Y1194D01*
G01X3017Y1197D01*
G01X3024Y1199D01*
G01X3031D01*
G01X3038D01*
G01X3045Y1197D01*
G01X3051Y1194D01*
G01X3057Y1190D01*
G01X3062Y1185D01*
G01X3066Y1179D01*
G01X3069Y1172D01*
G01X3070Y1165D01*
G01X3071Y1158D01*
G01X3070Y1151D01*
G01X3067Y1145D01*
G01X3064Y1138D01*
G01X3060Y1133D01*
G01X3054Y1128D01*
G01X3048Y1125D01*
G01X3042Y1122D01*
G01X3035Y1121D01*
G01X3028D01*
G37*
G36*
G01X3597Y1827D02*
G01X3590Y1829D01*
G01X3583Y1831D01*
G01X3577Y1835D01*
G01X3572Y1839D01*
G01X3567Y1845D01*
G01X3564Y1851D01*
G01X3562Y1858D01*
G01X3561Y1865D01*
G01Y1872D01*
G01X3563Y1879D01*
G01X3566Y1885D01*
G01X3569Y1891D01*
G01X3574Y1896D01*
G01X3580Y1900D01*
G01X3586Y1903D01*
G01X3593Y1905D01*
G01X3600Y1906D01*
G01X3607Y1905D01*
G01X3614Y1903D01*
G01X3620Y1900D01*
G01X3626Y1896D01*
G01X3631Y1891D01*
G01X3635Y1885D01*
G01X3638Y1879D01*
G01X3639Y1872D01*
G01X3640Y1865D01*
G01X3639Y1858D01*
G01X3636Y1851D01*
G01X3633Y1845D01*
G01X3629Y1839D01*
G01X3623Y1835D01*
G01X3617Y1831D01*
G01X3611Y1829D01*
G01X3604Y1827D01*
G01X3597D01*
G37*
G36*
G01X2415Y7465D02*
G01X2408D01*
G01X2401Y7467D01*
G01X2394Y7470D01*
G01X2389Y7474D01*
G01X2384Y7479D01*
G01X2380Y7485D01*
G01X2377Y7492D01*
G01X2376Y7499D01*
G01X2375Y7506D01*
G01X2376Y7513D01*
G01X2378Y7519D01*
G01X2382Y7526D01*
G01X2386Y7531D01*
G01X2391Y7536D01*
G01X2398Y7539D01*
G01X2404Y7542D01*
G01X2411Y7543D01*
G01X2418D01*
G01X2425Y7542D01*
G01X2432Y7539D01*
G01X2438Y7536D01*
G01X2443Y7531D01*
G01X2447Y7526D01*
G01X2451Y7519D01*
G01X2453Y7513D01*
G01X2454Y7506D01*
G01Y7499D01*
G01X2452Y7492D01*
G01X2449Y7485D01*
G01X2445Y7479D01*
G01X2441Y7474D01*
G01X2435Y7470D01*
G01X2428Y7467D01*
G01X2422Y7465D01*
G01X2415Y7465D01*
G37*
G36*
G01X124Y1264D02*
G01X117Y1265D01*
G01X111Y1267D01*
G01X104Y1270D01*
G01X99Y1275D01*
G01X94Y1280D01*
G01X91Y1286D01*
G01X88Y1293D01*
G01X87Y1300D01*
G01Y1307D01*
G01X88Y1314D01*
G01X91Y1320D01*
G01X94Y1326D01*
G01X99Y1332D01*
G01X104Y1336D01*
G01X111Y1339D01*
G01X117Y1342D01*
G01X124D01*
G01X131D01*
G01X138Y1341D01*
G01X145Y1338D01*
G01X151Y1334D01*
G01X156Y1329D01*
G01X160Y1323D01*
G01X163Y1317D01*
G01X165Y1310D01*
G01Y1303D01*
G01Y1296D01*
G01X163Y1289D01*
G01X160Y1283D01*
G01X156Y1277D01*
G01X151Y1272D01*
G01X145Y1268D01*
G01X138Y1266D01*
G01X131Y1264D01*
G01X124Y1264D01*
G37*
G36*
G01X439Y1264D02*
G01X432Y1265D01*
G01X425Y1267D01*
G01X419Y1270D01*
G01X414Y1275D01*
G01X409Y1280D01*
G01X405Y1286D01*
G01X403Y1293D01*
G01X402Y1300D01*
G01Y1307D01*
G01X403Y1314D01*
G01X405Y1320D01*
G01X409Y1326D01*
G01X414Y1332D01*
G01X419Y1336D01*
G01X425Y1339D01*
G01X432Y1342D01*
G01X439D01*
G01X446D01*
G01X453Y1341D01*
G01X460Y1338D01*
G01X465Y1334D01*
G01X471Y1329D01*
G01X475Y1323D01*
G01X478Y1317D01*
G01X480Y1310D01*
G01Y1303D01*
G01Y1296D01*
G01X478Y1289D01*
G01X475Y1283D01*
G01X471Y1277D01*
G01X465Y1272D01*
G01X460Y1268D01*
G01X453Y1266D01*
G01X446Y1264D01*
G01X439Y1264D01*
G37*
G36*
G01X754Y1473D02*
G01X747Y1474D01*
G01X740Y1476D01*
G01X734Y1480D01*
G01X729Y1484D01*
G01X724Y1489D01*
G01X720Y1495D01*
G01X718Y1502D01*
G01X717Y1509D01*
G01Y1516D01*
G01X718Y1523D01*
G01X720Y1530D01*
G01X724Y1536D01*
G01X729Y1541D01*
G01X734Y1545D01*
G01X740Y1549D01*
G01X747Y1551D01*
G01X754Y1552D01*
G01X761Y1551D01*
G01X768Y1550D01*
G01X775Y1547D01*
G01X780Y1543D01*
G01X786Y1538D01*
G01X790Y1533D01*
G01X793Y1526D01*
G01X795Y1519D01*
G01Y1512D01*
G01Y1505D01*
G01X793Y1499D01*
G01X790Y1492D01*
G01X786Y1487D01*
G01X780Y1482D01*
G01X775Y1478D01*
G01X768Y1475D01*
G01X761Y1473D01*
G01X754Y1473D01*
G37*
G36*
G01X1356Y1734D02*
G01X1349Y1735D01*
G01X1342Y1738D01*
G01X1336Y1741D01*
G01X1330Y1745D01*
G01X1326Y1751D01*
G01X1322Y1757D01*
G01X1320Y1763D01*
G01X1318Y1770D01*
G01Y1777D01*
G01X1320Y1784D01*
G01X1322Y1791D01*
G01X1326Y1797D01*
G01X1330Y1802D01*
G01X1336Y1807D01*
G01X1342Y1810D01*
G01X1349Y1812D01*
G01X1356Y1813D01*
G01X1363D01*
G01X1370Y1811D01*
G01X1376Y1808D01*
G01X1382Y1804D01*
G01X1387Y1800D01*
G01X1391Y1794D01*
G01X1394Y1788D01*
G01X1396Y1781D01*
G01X1397Y1774D01*
G01X1396Y1767D01*
G01X1394Y1760D01*
G01X1391Y1754D01*
G01X1387Y1748D01*
G01X1382Y1743D01*
G01X1376Y1739D01*
G01X1370Y1736D01*
G01X1363Y1735D01*
G01X1356Y1734D01*
G37*
G36*
G01X1558Y6673D02*
G01X1551Y6674D01*
G01X1544Y6676D01*
G01X1538Y6679D01*
G01X1532Y6683D01*
G01X1527Y6688D01*
G01X1523Y6694D01*
G01X1521Y6700D01*
G01X1519Y6707D01*
G01Y6714D01*
G01X1520Y6721D01*
G01X1522Y6728D01*
G01X1525Y6734D01*
G01X1530Y6740D01*
G01X1535Y6744D01*
G01X1541Y6748D01*
G01X1548Y6751D01*
G01X1555Y6752D01*
G01X1562D01*
G01X1569Y6751D01*
G01X1575Y6748D01*
G01X1581Y6744D01*
G01X1587Y6740D01*
G01X1591Y6734D01*
G01X1594Y6728D01*
G01X1596Y6721D01*
G01X1597Y6714D01*
G01Y6707D01*
G01X1596Y6700D01*
G01X1593Y6694D01*
G01X1589Y6688D01*
G01X1584Y6683D01*
G01X1578Y6679D01*
G01X1572Y6676D01*
G01X1565Y6674D01*
G01X1558Y6673D01*
G37*
G36*
G01X1587Y1947D02*
G01X1580Y1948D01*
G01X1573Y1951D01*
G01X1567Y1954D01*
G01X1561Y1958D01*
G01X1557Y1964D01*
G01X1553Y1970D01*
G01X1550Y1976D01*
G01X1549Y1983D01*
G01Y1990D01*
G01X1550Y1997D01*
G01X1553Y2004D01*
G01X1557Y2010D01*
G01X1561Y2015D01*
G01X1567Y2020D01*
G01X1573Y2023D01*
G01X1580Y2025D01*
G01X1587Y2026D01*
G01X1594D01*
G01X1601Y2024D01*
G01X1607Y2021D01*
G01X1613Y2018D01*
G01X1618Y2013D01*
G01X1622Y2007D01*
G01X1625Y2001D01*
G01X1627Y1994D01*
G01X1628Y1987D01*
G01X1627Y1980D01*
G01X1625Y1973D01*
G01X1622Y1967D01*
G01X1618Y1961D01*
G01X1613Y1956D01*
G01X1607Y1952D01*
G01X1601Y1949D01*
G01X1594Y1948D01*
G01X1587Y1947D01*
G37*
G36*
G01X1734Y2225D02*
G01X1727Y2226D01*
G01X1720Y2228D01*
G01X1714Y2231D01*
G01X1709Y2236D01*
G01X1704Y2241D01*
G01X1700Y2247D01*
G01X1698Y2254D01*
G01X1697Y2261D01*
G01Y2268D01*
G01X1698Y2275D01*
G01X1700Y2281D01*
G01X1704Y2287D01*
G01X1709Y2293D01*
G01X1714Y2297D01*
G01X1720Y2300D01*
G01X1727Y2303D01*
G01X1734Y2304D01*
G01X1741Y2303D01*
G01X1748Y2302D01*
G01X1755Y2299D01*
G01X1760Y2295D01*
G01X1766Y2290D01*
G01X1770Y2284D01*
G01X1773Y2278D01*
G01X1775Y2271D01*
G01Y2264D01*
G01Y2257D01*
G01X1773Y2250D01*
G01X1770Y2244D01*
G01X1766Y2238D01*
G01X1760Y2233D01*
G01X1755Y2230D01*
G01X1748Y2227D01*
G01X1741Y2225D01*
G01X1734Y2225D01*
G37*
G36*
G01X1782Y2532D02*
G01X1775D01*
G01X1768Y2535D01*
G01X1762Y2538D01*
G01X1756Y2542D01*
G01X1752Y2548D01*
G01X1748Y2554D01*
G01X1746Y2560D01*
G01X1744Y2567D01*
G01Y2574D01*
G01X1746Y2581D01*
G01X1748Y2588D01*
G01X1752Y2594D01*
G01X1756Y2599D01*
G01X1762Y2604D01*
G01X1768Y2607D01*
G01X1775Y2609D01*
G01X1782Y2610D01*
G01X1789D01*
G01X1796Y2608D01*
G01X1802Y2606D01*
G01X1808Y2602D01*
G01X1813Y2597D01*
G01X1817Y2591D01*
G01X1820Y2585D01*
G01X1822Y2578D01*
G01X1823Y2571D01*
G01X1822Y2564D01*
G01X1820Y2557D01*
G01X1817Y2551D01*
G01X1813Y2545D01*
G01X1808Y2540D01*
G01X1802Y2536D01*
G01X1796Y2533D01*
G01X1789Y2532D01*
G01X1782Y2532D01*
G37*
G36*
G01X1868Y2824D02*
G01X1861Y2825D01*
G01X1854Y2827D01*
G01X1848Y2830D01*
G01X1842Y2835D01*
G01X1838Y2840D01*
G01X1834Y2846D01*
G01X1832Y2853D01*
G01X1830Y2860D01*
G01Y2867D01*
G01X1832Y2874D01*
G01X1834Y2880D01*
G01X1838Y2886D01*
G01X1842Y2892D01*
G01X1848Y2896D01*
G01X1854Y2899D01*
G01X1861Y2902D01*
G01X1868Y2903D01*
G01X1875Y2902D01*
G01X1882Y2901D01*
G01X1888Y2898D01*
G01X1894Y2894D01*
G01X1899Y2889D01*
G01X1903Y2884D01*
G01X1906Y2877D01*
G01X1908Y2870D01*
G01X1909Y2863D01*
G01X1908Y2856D01*
G01X1906Y2849D01*
G01X1903Y2843D01*
G01X1899Y2837D01*
G01X1894Y2833D01*
G01X1888Y2829D01*
G01X1882Y2826D01*
G01X1875Y2824D01*
G01X1868Y2824D01*
G37*
G36*
G01X132Y2595D02*
G01X125D01*
G01X118Y2598D01*
G01X112Y2601D01*
G01X107Y2605D01*
G01X102Y2611D01*
G01X98Y2617D01*
G01X96Y2623D01*
G01X95Y2630D01*
G01Y2637D01*
G01X96Y2644D01*
G01X98Y2651D01*
G01X102Y2657D01*
G01X107Y2662D01*
G01X112Y2667D01*
G01X118Y2670D01*
G01X125Y2672D01*
G01X132Y2673D01*
G01X139D01*
G01X146Y2671D01*
G01X153Y2669D01*
G01X158Y2665D01*
G01X164Y2660D01*
G01X168Y2654D01*
G01X171Y2648D01*
G01X173Y2641D01*
G01Y2634D01*
G01Y2627D01*
G01X171Y2620D01*
G01X168Y2614D01*
G01X164Y2608D01*
G01X158Y2603D01*
G01X153Y2599D01*
G01X146Y2596D01*
G01X139Y2595D01*
G01X132Y2595D01*
G37*
G36*
G01X447Y2595D02*
G01X440D01*
G01X433Y2598D01*
G01X427Y2601D01*
G01X422Y2605D01*
G01X417Y2611D01*
G01X413Y2617D01*
G01X411Y2623D01*
G01X410Y2630D01*
G01Y2637D01*
G01X411Y2644D01*
G01X413Y2651D01*
G01X417Y2657D01*
G01X422Y2662D01*
G01X427Y2667D01*
G01X433Y2670D01*
G01X440Y2672D01*
G01X447Y2673D01*
G01X454D01*
G01X461Y2671D01*
G01X467Y2669D01*
G01X473Y2665D01*
G01X478Y2660D01*
G01X483Y2654D01*
G01X486Y2648D01*
G01X488Y2641D01*
G01Y2634D01*
G01Y2627D01*
G01X486Y2620D01*
G01X483Y2614D01*
G01X478Y2608D01*
G01X473Y2603D01*
G01X467Y2599D01*
G01X461Y2596D01*
G01X454Y2595D01*
G01X447Y2595D01*
G37*
G36*
G01X1045Y2381D02*
G01X1038Y2382D01*
G01X1032Y2384D01*
G01X1025Y2387D01*
G01X1020Y2392D01*
G01X1015Y2397D01*
G01X1012Y2403D01*
G01X1009Y2410D01*
G01X1008Y2417D01*
G01Y2424D01*
G01X1009Y2431D01*
G01X1012Y2437D01*
G01X1015Y2443D01*
G01X1020Y2449D01*
G01X1025Y2453D01*
G01X1032Y2456D01*
G01X1038Y2459D01*
G01X1045D01*
G01X1052D01*
G01X1059Y2458D01*
G01X1066Y2455D01*
G01X1072Y2451D01*
G01X1077Y2446D01*
G01X1081Y2440D01*
G01X1084Y2434D01*
G01X1086Y2427D01*
G01X1087Y2420D01*
G01X1086Y2413D01*
G01X1084Y2406D01*
G01X1081Y2400D01*
G01X1077Y2394D01*
G01X1072Y2389D01*
G01X1066Y2385D01*
G01X1059Y2383D01*
G01X1052Y2381D01*
G01X1045Y2381D01*
G37*
G36*
G01X1090Y2685D02*
G01X1083Y2686D01*
G01X1076Y2688D01*
G01X1070Y2692D01*
G01X1065Y2696D01*
G01X1060Y2701D01*
G01X1056Y2707D01*
G01X1054Y2714D01*
G01X1053Y2721D01*
G01Y2728D01*
G01X1054Y2735D01*
G01X1056Y2742D01*
G01X1060Y2748D01*
G01X1065Y2753D01*
G01X1070Y2757D01*
G01X1076Y2761D01*
G01X1083Y2763D01*
G01X1090Y2764D01*
G01X1097D01*
G01X1104Y2762D01*
G01X1110Y2759D01*
G01X1116Y2755D01*
G01X1121Y2750D01*
G01X1126Y2745D01*
G01X1129Y2738D01*
G01X1130Y2732D01*
G01X1131Y2724D01*
G01X1130Y2717D01*
G01X1129Y2711D01*
G01X1126Y2704D01*
G01X1121Y2699D01*
G01X1116Y2694D01*
G01X1110Y2690D01*
G01X1104Y2687D01*
G01X1097Y2685D01*
G01X1090Y2685D01*
G37*
G36*
G01X1569Y4733D02*
G01X1562Y4734D01*
G01X1555Y4736D01*
G01X1549Y4740D01*
G01X1543Y4744D01*
G01X1539Y4749D01*
G01X1535Y4756D01*
G01X1533Y4762D01*
G01X1531Y4769D01*
G01Y4776D01*
G01X1533Y4783D01*
G01X1535Y4790D01*
G01X1539Y4796D01*
G01X1543Y4801D01*
G01X1549Y4805D01*
G01X1555Y4809D01*
G01X1562Y4811D01*
G01X1569Y4812D01*
G01X1576D01*
G01X1583Y4810D01*
G01X1589Y4807D01*
G01X1595Y4803D01*
G01X1600Y4799D01*
G01X1604Y4793D01*
G01X1607Y4786D01*
G01X1609Y4780D01*
G01X1610Y4773D01*
G01X1609Y4766D01*
G01X1607Y4759D01*
G01X1604Y4752D01*
G01X1600Y4747D01*
G01X1595Y4742D01*
G01X1589Y4738D01*
G01X1583Y4735D01*
G01X1576Y4734D01*
G01X1569Y4733D01*
G37*
G36*
G01X1324Y3259D02*
G01X1317Y3260D01*
G01X1310Y3262D01*
G01X1304Y3265D01*
G01X1299Y3270D01*
G01X1294Y3275D01*
G01X1290Y3281D01*
G01X1288Y3288D01*
G01X1287Y3295D01*
G01Y3302D01*
G01X1288Y3309D01*
G01X1290Y3315D01*
G01X1294Y3321D01*
G01X1299Y3327D01*
G01X1304Y3331D01*
G01X1310Y3334D01*
G01X1317Y3336D01*
G01X1324Y3337D01*
G01X1331D01*
G01X1338Y3336D01*
G01X1344Y3333D01*
G01X1350Y3329D01*
G01X1355Y3324D01*
G01X1360Y3318D01*
G01X1363Y3312D01*
G01X1365Y3305D01*
G01Y3298D01*
G01Y3291D01*
G01X1363Y3284D01*
G01X1360Y3278D01*
G01X1355Y3272D01*
G01X1350Y3267D01*
G01X1344Y3263D01*
G01X1338Y3261D01*
G01X1331Y3259D01*
G01X1324Y3259D01*
G37*
G36*
G01X1569Y3456D02*
G01X1562Y3457D01*
G01X1555Y3459D01*
G01X1549Y3462D01*
G01X1543Y3467D01*
G01X1539Y3472D01*
G01X1535Y3478D01*
G01X1533Y3485D01*
G01X1531Y3492D01*
G01Y3499D01*
G01X1533Y3506D01*
G01X1535Y3512D01*
G01X1539Y3518D01*
G01X1543Y3524D01*
G01X1549Y3528D01*
G01X1555Y3531D01*
G01X1562Y3534D01*
G01X1569D01*
G01X1576D01*
G01X1583Y3533D01*
G01X1589Y3530D01*
G01X1595Y3526D01*
G01X1600Y3521D01*
G01X1604Y3515D01*
G01X1607Y3509D01*
G01X1609Y3502D01*
G01X1610Y3495D01*
G01X1609Y3488D01*
G01X1607Y3481D01*
G01X1604Y3475D01*
G01X1600Y3469D01*
G01X1595Y3464D01*
G01X1589Y3460D01*
G01X1583Y3458D01*
G01X1576Y3456D01*
G01X1569Y3456D01*
G37*
G36*
G01X1865Y3561D02*
G01X1858Y3562D01*
G01X1851Y3564D01*
G01X1845Y3567D01*
G01X1839Y3572D01*
G01X1835Y3577D01*
G01X1831Y3583D01*
G01X1829Y3590D01*
G01X1827Y3597D01*
G01Y3604D01*
G01X1829Y3611D01*
G01X1831Y3617D01*
G01X1835Y3623D01*
G01X1839Y3629D01*
G01X1845Y3633D01*
G01X1851Y3636D01*
G01X1858Y3639D01*
G01X1865Y3640D01*
G01X1872Y3639D01*
G01X1879Y3638D01*
G01X1885Y3635D01*
G01X1891Y3631D01*
G01X1896Y3626D01*
G01X1900Y3620D01*
G01X1903Y3614D01*
G01X1905Y3607D01*
G01X1906Y3600D01*
G01X1905Y3593D01*
G01X1903Y3586D01*
G01X1900Y3580D01*
G01X1896Y3574D01*
G01X1891Y3569D01*
G01X1885Y3566D01*
G01X1879Y3563D01*
G01X1872Y3561D01*
G01X1865Y3561D01*
G37*
G36*
G01X294Y256D02*
G01X286Y257D01*
G01X280Y260D01*
G01X274Y263D01*
G01X268Y267D01*
G01X263Y273D01*
G01X260Y279D01*
G01X257Y285D01*
G01X256Y292D01*
G01Y299D01*
G01X257Y306D01*
G01X260Y313D01*
G01X263Y319D01*
G01X268Y324D01*
G01X274Y329D01*
G01X280Y332D01*
G01X286Y334D01*
G01X294Y335D01*
G01X301D01*
G01X307Y333D01*
G01X314Y331D01*
G01X320Y327D01*
G01X325Y322D01*
G01X329Y316D01*
G01X332Y310D01*
G01X334Y303D01*
G01X335Y296D01*
G01X334Y289D01*
G01X332Y282D01*
G01X329Y276D01*
G01X325Y270D01*
G01X320Y265D01*
G01X314Y261D01*
G01X307Y258D01*
G01X301Y257D01*
G01X294Y256D01*
G37*
G36*
G01X923Y888D02*
G01X916Y889D01*
G01X910Y891D01*
G01X904Y894D01*
G01X898Y899D01*
G01X893Y904D01*
G01X890Y910D01*
G01X887Y916D01*
G01X886Y923D01*
G01Y930D01*
G01X887Y937D01*
G01X890Y944D01*
G01X893Y950D01*
G01X898Y955D01*
G01X904Y960D01*
G01X910Y963D01*
G01X916Y965D01*
G01X923Y966D01*
G01X930D01*
G01X937Y964D01*
G01X944Y962D01*
G01X950Y958D01*
G01X955Y953D01*
G01X959Y947D01*
G01X962Y941D01*
G01X964Y934D01*
G01X965Y927D01*
G01X964Y920D01*
G01X962Y913D01*
G01X959Y907D01*
G01X955Y901D01*
G01X950Y896D01*
G01X944Y892D01*
G01X937Y890D01*
G01X930Y888D01*
G01X923Y888D01*
G37*
G36*
G01X1238Y1203D02*
G01X1231Y1204D01*
G01X1225Y1206D01*
G01X1218Y1210D01*
G01X1213Y1214D01*
G01X1208Y1219D01*
G01X1205Y1225D01*
G01X1202Y1232D01*
G01X1201Y1239D01*
G01Y1246D01*
G01X1202Y1253D01*
G01X1205Y1260D01*
G01X1208Y1266D01*
G01X1213Y1271D01*
G01X1218Y1275D01*
G01X1225Y1279D01*
G01X1231Y1281D01*
G01X1238Y1282D01*
G01X1245D01*
G01X1252Y1280D01*
G01X1259Y1277D01*
G01X1265Y1273D01*
G01X1270Y1268D01*
G01X1274Y1263D01*
G01X1277Y1256D01*
G01X1279Y1250D01*
G01X1280Y1243D01*
G01X1279Y1236D01*
G01X1277Y1229D01*
G01X1274Y1222D01*
G01X1270Y1217D01*
G01X1265Y1212D01*
G01X1259Y1208D01*
G01X1252Y1205D01*
G01X1245Y1204D01*
G01X1238Y1203D01*
G37*
G36*
G01X4773Y6658D02*
G01X4766Y6659D01*
G01X4759Y6660D01*
G01X4752Y6663D01*
G01X4747Y6668D01*
G01X4742Y6673D01*
G01X4738Y6679D01*
G01X4735Y6685D01*
G01X4734Y6692D01*
G01X4733Y6699D01*
G01X4734Y6706D01*
G01X4736Y6713D01*
G01X4740Y6719D01*
G01X4744Y6724D01*
G01X4749Y6729D01*
G01X4756Y6733D01*
G01X4762Y6735D01*
G01X4769Y6736D01*
G01X4776D01*
G01X4783Y6735D01*
G01X4790Y6733D01*
G01X4796Y6729D01*
G01X4801Y6724D01*
G01X4805Y6719D01*
G01X4809Y6713D01*
G01X4811Y6706D01*
G01X4812Y6699D01*
G01Y6692D01*
G01X4810Y6685D01*
G01X4807Y6679D01*
G01X4803Y6673D01*
G01X4799Y6668D01*
G01X4793Y6663D01*
G01X4786Y6660D01*
G01X4780Y6659D01*
G01X4773Y6658D01*
G37*
G36*
G01X1553Y1519D02*
G01X1546Y1520D01*
G01X1540Y1522D01*
G01X1533Y1525D01*
G01X1528Y1530D01*
G01X1523Y1535D01*
G01X1520Y1541D01*
G01X1517Y1548D01*
G01X1516Y1555D01*
G01Y1562D01*
G01X1517Y1569D01*
G01X1520Y1575D01*
G01X1523Y1581D01*
G01X1528Y1587D01*
G01X1533Y1591D01*
G01X1540Y1594D01*
G01X1546Y1596D01*
G01X1553Y1597D01*
G01X1560D01*
G01X1567Y1596D01*
G01X1574Y1593D01*
G01X1580Y1589D01*
G01X1585Y1584D01*
G01X1589Y1578D01*
G01X1592Y1572D01*
G01X1594Y1565D01*
G01Y1558D01*
G01Y1551D01*
G01X1592Y1544D01*
G01X1589Y1538D01*
G01X1585Y1532D01*
G01X1580Y1527D01*
G01X1574Y1523D01*
G01X1567Y1521D01*
G01X1560Y1519D01*
G01X1553Y1519D01*
G37*
G36*
G01X1868Y1834D02*
G01X1861Y1835D01*
G01X1855Y1837D01*
G01X1848Y1841D01*
G01X1843Y1845D01*
G01X1838Y1851D01*
G01X1835Y1857D01*
G01X1832Y1863D01*
G01X1831Y1870D01*
G01Y1877D01*
G01X1832Y1884D01*
G01X1835Y1891D01*
G01X1838Y1897D01*
G01X1843Y1902D01*
G01X1848Y1906D01*
G01X1855Y1910D01*
G01X1861Y1912D01*
G01X1868Y1913D01*
G01X1875D01*
G01X1882Y1911D01*
G01X1889Y1908D01*
G01X1895Y1904D01*
G01X1900Y1900D01*
G01X1904Y1894D01*
G01X1907Y1887D01*
G01X1909Y1881D01*
G01Y1874D01*
G01Y1867D01*
G01X1907Y1860D01*
G01X1904Y1853D01*
G01X1900Y1848D01*
G01X1895Y1843D01*
G01X1889Y1839D01*
G01X1882Y1836D01*
G01X1875Y1835D01*
G01X1868Y1834D01*
G37*
G36*
G01X2264Y6492D02*
G01X2257Y6493D01*
G01X2250Y6495D01*
G01X2244Y6498D01*
G01X2238Y6502D01*
G01X2233Y6507D01*
G01X2230Y6513D01*
G01X2227Y6520D01*
G01X2225Y6527D01*
G01Y6534D01*
G01X2226Y6541D01*
G01X2228Y6547D01*
G01X2231Y6554D01*
G01X2236Y6559D01*
G01X2241Y6564D01*
G01X2247Y6567D01*
G01X2254Y6570D01*
G01X2261Y6571D01*
G01X2268D01*
G01X2275Y6570D01*
G01X2281Y6567D01*
G01X2287Y6564D01*
G01X2293Y6559D01*
G01X2297Y6554D01*
G01X2300Y6547D01*
G01X2303Y6541D01*
G01X2304Y6534D01*
G01X2303Y6527D01*
G01X2302Y6520D01*
G01X2299Y6513D01*
G01X2295Y6507D01*
G01X2290Y6502D01*
G01X2284Y6498D01*
G01X2278Y6495D01*
G01X2271Y6493D01*
G01X2264Y6492D01*
G37*
G36*
G01X2571Y6445D02*
G01X2564Y6446D01*
G01X2557Y6447D01*
G01X2551Y6450D01*
G01X2545Y6455D01*
G01X2540Y6460D01*
G01X2536Y6466D01*
G01X2533Y6472D01*
G01X2532Y6479D01*
G01Y6486D01*
G01Y6493D01*
G01X2535Y6500D01*
G01X2538Y6506D01*
G01X2542Y6511D01*
G01X2548Y6516D01*
G01X2554Y6520D01*
G01X2560Y6522D01*
G01X2567Y6523D01*
G01X2574D01*
G01X2581Y6522D01*
G01X2588Y6520D01*
G01X2594Y6516D01*
G01X2599Y6511D01*
G01X2604Y6506D01*
G01X2607Y6500D01*
G01X2609Y6493D01*
G01X2610Y6486D01*
G01Y6479D01*
G01X2608Y6472D01*
G01X2606Y6466D01*
G01X2602Y6460D01*
G01X2597Y6455D01*
G01X2591Y6450D01*
G01X2585Y6447D01*
G01X2578Y6446D01*
G01X2571Y6445D01*
G37*
G36*
G01X2863Y6359D02*
G01X2856D01*
G01X2849Y6361D01*
G01X2843Y6364D01*
G01X2837Y6368D01*
G01X2833Y6374D01*
G01X2829Y6379D01*
G01X2826Y6386D01*
G01X2824Y6393D01*
G01Y6400D01*
G01X2825Y6407D01*
G01X2827Y6414D01*
G01X2830Y6420D01*
G01X2835Y6425D01*
G01X2840Y6430D01*
G01X2846Y6434D01*
G01X2853Y6436D01*
G01X2860Y6437D01*
G01X2867D01*
G01X2874Y6436D01*
G01X2880Y6434D01*
G01X2886Y6430D01*
G01X2892Y6425D01*
G01X2896Y6420D01*
G01X2899Y6414D01*
G01X2902Y6407D01*
G01X2903Y6400D01*
G01X2902Y6393D01*
G01X2901Y6386D01*
G01X2898Y6379D01*
G01X2894Y6374D01*
G01X2889Y6368D01*
G01X2884Y6364D01*
G01X2877Y6361D01*
G01X2870Y6359D01*
G01X2863Y6359D01*
G37*
G36*
G01X2634Y7780D02*
G01X2627D01*
G01X2620Y7782D01*
G01X2614Y7785D01*
G01X2608Y7789D01*
G01X2603Y7794D01*
G01X2599Y7800D01*
G01X2596Y7807D01*
G01X2595Y7814D01*
G01Y7821D01*
G01Y7828D01*
G01X2598Y7834D01*
G01X2601Y7841D01*
G01X2605Y7846D01*
G01X2611Y7851D01*
G01X2617Y7854D01*
G01X2623Y7857D01*
G01X2630Y7858D01*
G01X2637D01*
G01X2644Y7857D01*
G01X2651Y7854D01*
G01X2657Y7851D01*
G01X2662Y7846D01*
G01X2667Y7841D01*
G01X2670Y7834D01*
G01X2672Y7828D01*
G01X2673Y7821D01*
G01Y7814D01*
G01X2671Y7807D01*
G01X2669Y7800D01*
G01X2665Y7794D01*
G01X2660Y7789D01*
G01X2654Y7785D01*
G01X2648Y7782D01*
G01X2641Y7780D01*
G01X2634Y7780D01*
G37*
G36*
G01X2420Y7181D02*
G01X2413Y7182D01*
G01X2406Y7184D01*
G01X2400Y7187D01*
G01X2394Y7191D01*
G01X2389Y7196D01*
G01X2385Y7202D01*
G01X2383Y7208D01*
G01X2381Y7215D01*
G01Y7222D01*
G01X2382Y7229D01*
G01X2384Y7236D01*
G01X2387Y7242D01*
G01X2392Y7248D01*
G01X2397Y7252D01*
G01X2403Y7256D01*
G01X2410Y7259D01*
G01X2417Y7260D01*
G01X2424D01*
G01X2431Y7259D01*
G01X2437Y7256D01*
G01X2443Y7252D01*
G01X2449Y7248D01*
G01X2453Y7242D01*
G01X2456Y7236D01*
G01X2459Y7229D01*
G01Y7222D01*
G01Y7215D01*
G01X2458Y7208D01*
G01X2455Y7202D01*
G01X2451Y7196D01*
G01X2446Y7191D01*
G01X2440Y7187D01*
G01X2434Y7184D01*
G01X2427Y7182D01*
G01X2420Y7181D01*
G37*
G36*
G01X3031Y7068D02*
G01X3024Y7069D01*
G01X3017Y7071D01*
G01X3011Y7074D01*
G01X3005Y7078D01*
G01X3000Y7083D01*
G01X2996Y7089D01*
G01X2994Y7096D01*
G01X2992Y7102D01*
G01Y7109D01*
G01X2993Y7116D01*
G01X2995Y7123D01*
G01X2998Y7129D01*
G01X3003Y7135D01*
G01X3008Y7140D01*
G01X3014Y7143D01*
G01X3021Y7146D01*
G01X3028Y7147D01*
G01X3035D01*
G01X3042Y7146D01*
G01X3048Y7143D01*
G01X3054Y7140D01*
G01X3060Y7135D01*
G01X3064Y7129D01*
G01X3067Y7123D01*
G01X3070Y7116D01*
G01X3071Y7109D01*
G01X3070Y7102D01*
G01X3069Y7096D01*
G01X3066Y7089D01*
G01X3062Y7083D01*
G01X3057Y7078D01*
G01X3051Y7074D01*
G01X3045Y7071D01*
G01X3038Y7069D01*
G01X3031Y7068D01*
G37*
G36*
G01X6755Y7472D02*
G01X6748Y7473D01*
G01X6741Y7475D01*
G01X6735Y7478D01*
G01X6729Y7482D01*
G01X6725Y7487D01*
G01X6721Y7493D01*
G01X6718Y7500D01*
G01X6716Y7507D01*
G01Y7514D01*
G01X6717Y7521D01*
G01X6719Y7527D01*
G01X6722Y7534D01*
G01X6727Y7539D01*
G01X6732Y7544D01*
G01X6738Y7547D01*
G01X6745Y7550D01*
G01X6752Y7551D01*
G01X6759D01*
G01X6766Y7550D01*
G01X6772Y7547D01*
G01X6778Y7544D01*
G01X6784Y7539D01*
G01X6788Y7534D01*
G01X6791Y7527D01*
G01X6794Y7521D01*
G01X6795Y7514D01*
G01X6794Y7507D01*
G01X6793Y7500D01*
G01X6790Y7493D01*
G01X6786Y7487D01*
G01X6781Y7482D01*
G01X6775Y7478D01*
G01X6769Y7475D01*
G01X6762Y7473D01*
G01X6755Y7472D01*
G37*
G36*
G01X3298Y6903D02*
G01X3291D01*
G01X3284Y6905D01*
G01X3278Y6908D01*
G01X3272Y6912D01*
G01X3267Y6917D01*
G01X3263Y6923D01*
G01X3261Y6930D01*
G01X3259Y6937D01*
G01Y6944D01*
G01X3260Y6951D01*
G01X3262Y6957D01*
G01X3265Y6964D01*
G01X3270Y6969D01*
G01X3275Y6974D01*
G01X3281Y6977D01*
G01X3288Y6980D01*
G01X3295Y6981D01*
G01X3302D01*
G01X3309Y6980D01*
G01X3315Y6977D01*
G01X3321Y6974D01*
G01X3327Y6969D01*
G01X3331Y6964D01*
G01X3334Y6957D01*
G01X3336Y6951D01*
G01X3337Y6944D01*
G01Y6937D01*
G01X3336Y6930D01*
G01X3333Y6923D01*
G01X3329Y6917D01*
G01X3324Y6912D01*
G01X3318Y6908D01*
G01X3312Y6905D01*
G01X3305Y6903D01*
G01X3298Y6903D01*
G37*
G36*
G01X3495Y6658D02*
G01X3488Y6659D01*
G01X3481Y6660D01*
G01X3475Y6663D01*
G01X3469Y6668D01*
G01X3464Y6673D01*
G01X3460Y6679D01*
G01X3458Y6685D01*
G01X3456Y6692D01*
G01Y6699D01*
G01X3457Y6706D01*
G01X3459Y6713D01*
G01X3462Y6719D01*
G01X3467Y6724D01*
G01X3472Y6729D01*
G01X3478Y6733D01*
G01X3485Y6735D01*
G01X3492Y6736D01*
G01X3499D01*
G01X3506Y6735D01*
G01X3512Y6733D01*
G01X3518Y6729D01*
G01X3524Y6724D01*
G01X3528Y6719D01*
G01X3531Y6713D01*
G01X3534Y6706D01*
G01Y6699D01*
G01Y6692D01*
G01X3533Y6685D01*
G01X3530Y6679D01*
G01X3526Y6673D01*
G01X3521Y6668D01*
G01X3515Y6663D01*
G01X3509Y6660D01*
G01X3502Y6659D01*
G01X3495Y6658D01*
G37*
G36*
G01X3600Y6362D02*
G01X3593D01*
G01X3586Y6364D01*
G01X3580Y6367D01*
G01X3574Y6371D01*
G01X3569Y6377D01*
G01X3566Y6382D01*
G01X3563Y6389D01*
G01X3561Y6396D01*
G01Y6403D01*
G01X3562Y6410D01*
G01X3564Y6417D01*
G01X3567Y6423D01*
G01X3572Y6428D01*
G01X3577Y6433D01*
G01X3583Y6437D01*
G01X3590Y6439D01*
G01X3597Y6440D01*
G01X3604D01*
G01X3611Y6439D01*
G01X3617Y6437D01*
G01X3623Y6433D01*
G01X3629Y6428D01*
G01X3633Y6423D01*
G01X3636Y6417D01*
G01X3639Y6410D01*
G01X3640Y6403D01*
G01X3639Y6396D01*
G01X3638Y6389D01*
G01X3635Y6382D01*
G01X3631Y6377D01*
G01X3626Y6371D01*
G01X3620Y6367D01*
G01X3614Y6364D01*
G01X3607Y6362D01*
G01X3600Y6362D01*
G37*
G36*
G01X124Y6925D02*
G01X117Y6926D01*
G01X111Y6928D01*
G01X104Y6932D01*
G01X99Y6936D01*
G01X94Y6941D01*
G01X91Y6947D01*
G01X88Y6954D01*
G01X87Y6961D01*
G01Y6968D01*
G01X88Y6975D01*
G01X91Y6982D01*
G01X94Y6988D01*
G01X99Y6993D01*
G01X104Y6997D01*
G01X111Y7001D01*
G01X117Y7003D01*
G01X124Y7004D01*
G01X131D01*
G01X138Y7002D01*
G01X145Y6999D01*
G01X151Y6995D01*
G01X156Y6990D01*
G01X160Y6985D01*
G01X163Y6978D01*
G01X165Y6972D01*
G01Y6965D01*
G01Y6958D01*
G01X163Y6951D01*
G01X160Y6944D01*
G01X156Y6939D01*
G01X151Y6934D01*
G01X145Y6930D01*
G01X138Y6927D01*
G01X131Y6926D01*
G01X124Y6925D01*
G37*
G36*
G01X6003Y6492D02*
G01X5996Y6493D01*
G01X5990Y6495D01*
G01X5983Y6498D01*
G01X5978Y6502D01*
G01X5973Y6507D01*
G01X5969Y6513D01*
G01X5966Y6520D01*
G01X5964Y6527D01*
G01Y6534D01*
G01X5965Y6541D01*
G01X5967Y6547D01*
G01X5971Y6554D01*
G01X5975Y6559D01*
G01X5980Y6564D01*
G01X5986Y6567D01*
G01X5993Y6570D01*
G01X6000Y6571D01*
G01X6007D01*
G01X6014Y6570D01*
G01X6021Y6567D01*
G01X6027Y6564D01*
G01X6032Y6559D01*
G01X6036Y6554D01*
G01X6040Y6547D01*
G01X6042Y6541D01*
G01X6043Y6534D01*
G01X6042Y6527D01*
G01X6041Y6520D01*
G01X6038Y6513D01*
G01X6034Y6507D01*
G01X6029Y6502D01*
G01X6024Y6498D01*
G01X6017Y6495D01*
G01X6010Y6493D01*
G01X6003Y6492D01*
G37*
G36*
G01X439Y6925D02*
G01X432Y6926D01*
G01X425Y6928D01*
G01X419Y6932D01*
G01X414Y6936D01*
G01X409Y6941D01*
G01X405Y6947D01*
G01X403Y6954D01*
G01X402Y6961D01*
G01Y6968D01*
G01X403Y6975D01*
G01X405Y6982D01*
G01X409Y6988D01*
G01X414Y6993D01*
G01X419Y6997D01*
G01X425Y7001D01*
G01X432Y7003D01*
G01X439Y7004D01*
G01X446D01*
G01X453Y7002D01*
G01X460Y6999D01*
G01X465Y6995D01*
G01X471Y6990D01*
G01X475Y6985D01*
G01X478Y6978D01*
G01X480Y6972D01*
G01Y6965D01*
G01Y6958D01*
G01X478Y6951D01*
G01X475Y6944D01*
G01X471Y6939D01*
G01X465Y6934D01*
G01X460Y6930D01*
G01X453Y6927D01*
G01X446Y6926D01*
G01X439Y6925D01*
G37*
G36*
G01X754Y6716D02*
G01X747Y6717D01*
G01X740Y6719D01*
G01X734Y6722D01*
G01X729Y6727D01*
G01X724Y6732D01*
G01X720Y6738D01*
G01X718Y6745D01*
G01X717Y6752D01*
G01Y6759D01*
G01X718Y6766D01*
G01X720Y6772D01*
G01X724Y6778D01*
G01X729Y6784D01*
G01X734Y6788D01*
G01X740Y6791D01*
G01X747Y6794D01*
G01X754Y6795D01*
G01X761Y6794D01*
G01X768Y6793D01*
G01X775Y6790D01*
G01X780Y6786D01*
G01X786Y6781D01*
G01X790Y6775D01*
G01X793Y6769D01*
G01X795Y6762D01*
G01Y6755D01*
G01Y6748D01*
G01X793Y6741D01*
G01X790Y6735D01*
G01X786Y6729D01*
G01X780Y6725D01*
G01X775Y6721D01*
G01X768Y6718D01*
G01X761Y6716D01*
G01X754Y6716D01*
G37*
G36*
G01X1067Y6579D02*
G01X1060Y6580D01*
G01X1054Y6583D01*
G01X1048Y6586D01*
G01X1042Y6590D01*
G01X1037Y6596D01*
G01X1034Y6602D01*
G01X1031Y6608D01*
G01X1030Y6615D01*
G01Y6622D01*
G01X1031Y6629D01*
G01X1034Y6636D01*
G01X1037Y6642D01*
G01X1042Y6647D01*
G01X1048Y6652D01*
G01X1054Y6655D01*
G01X1060Y6657D01*
G01X1067Y6658D01*
G01X1075D01*
G01X1081Y6656D01*
G01X1088Y6653D01*
G01X1094Y6650D01*
G01X1099Y6645D01*
G01X1103Y6639D01*
G01X1106Y6633D01*
G01X1108Y6626D01*
G01X1109Y6619D01*
G01X1108Y6612D01*
G01X1106Y6605D01*
G01X1103Y6599D01*
G01X1099Y6593D01*
G01X1094Y6588D01*
G01X1088Y6584D01*
G01X1081Y6581D01*
G01X1075Y6580D01*
G01X1067Y6579D01*
G37*
G36*
G01X1356Y6455D02*
G01X1349Y6456D01*
G01X1342Y6458D01*
G01X1336Y6461D01*
G01X1330Y6466D01*
G01X1326Y6471D01*
G01X1322Y6477D01*
G01X1320Y6484D01*
G01X1318Y6490D01*
G01Y6498D01*
G01X1320Y6504D01*
G01X1322Y6511D01*
G01X1326Y6517D01*
G01X1330Y6522D01*
G01X1336Y6527D01*
G01X1342Y6530D01*
G01X1349Y6532D01*
G01X1356Y6533D01*
G01X1363D01*
G01X1370Y6531D01*
G01X1376Y6529D01*
G01X1382Y6525D01*
G01X1387Y6520D01*
G01X1391Y6514D01*
G01X1394Y6508D01*
G01X1396Y6501D01*
G01X1397Y6494D01*
G01X1396Y6487D01*
G01X1394Y6480D01*
G01X1391Y6474D01*
G01X1387Y6468D01*
G01X1382Y6463D01*
G01X1376Y6459D01*
G01X1370Y6457D01*
G01X1363Y6455D01*
G01X1356Y6455D01*
G37*
G36*
G01X1587Y6242D02*
G01X1580Y6243D01*
G01X1573Y6245D01*
G01X1567Y6248D01*
G01X1561Y6252D01*
G01X1557Y6258D01*
G01X1553Y6264D01*
G01X1550Y6270D01*
G01X1549Y6277D01*
G01Y6284D01*
G01X1550Y6291D01*
G01X1553Y6298D01*
G01X1557Y6304D01*
G01X1561Y6309D01*
G01X1567Y6314D01*
G01X1573Y6317D01*
G01X1580Y6319D01*
G01X1587Y6320D01*
G01X1594D01*
G01X1601Y6318D01*
G01X1607Y6316D01*
G01X1613Y6312D01*
G01X1618Y6307D01*
G01X1622Y6301D01*
G01X1625Y6295D01*
G01X1627Y6288D01*
G01X1628Y6281D01*
G01X1627Y6274D01*
G01X1625Y6267D01*
G01X1622Y6261D01*
G01X1618Y6255D01*
G01X1613Y6250D01*
G01X1607Y6246D01*
G01X1601Y6243D01*
G01X1594Y6242D01*
G01X1587Y6242D01*
G37*
G36*
G01X8144Y6925D02*
G01X8136Y6926D01*
G01X8130Y6927D01*
G01X8123Y6930D01*
G01X8117Y6934D01*
G01X8112Y6939D01*
G01X8108Y6944D01*
G01X8105Y6951D01*
G01X8103Y6958D01*
G01X8102Y6965D01*
G01X8103Y6972D01*
G01X8105Y6978D01*
G01X8108Y6985D01*
G01X8112Y6990D01*
G01X8117Y6995D01*
G01X8123Y6999D01*
G01X8130Y7002D01*
G01X8136Y7004D01*
G01X8144D01*
G01X8151Y7003D01*
G01X8157Y7001D01*
G01X8163Y6997D01*
G01X8169Y6993D01*
G01X8174Y6988D01*
G01X8177Y6982D01*
G01X8180Y6975D01*
G01X8181Y6968D01*
G01Y6961D01*
G01X8180Y6954D01*
G01X8177Y6947D01*
G01X8174Y6941D01*
G01X8169Y6936D01*
G01X8163Y6932D01*
G01X8157Y6928D01*
G01X8151Y6926D01*
G01X8144Y6925D01*
G37*
G36*
G01X1734Y5964D02*
G01X1727Y5965D01*
G01X1720Y5967D01*
G01X1714Y5971D01*
G01X1709Y5975D01*
G01X1704Y5980D01*
G01X1700Y5986D01*
G01X1698Y5993D01*
G01X1697Y6000D01*
G01Y6007D01*
G01X1698Y6014D01*
G01X1700Y6021D01*
G01X1704Y6027D01*
G01X1709Y6032D01*
G01X1714Y6036D01*
G01X1720Y6040D01*
G01X1727Y6042D01*
G01X1734Y6043D01*
G01X1741Y6042D01*
G01X1748Y6041D01*
G01X1755Y6038D01*
G01X1760Y6034D01*
G01X1766Y6029D01*
G01X1770Y6024D01*
G01X1773Y6017D01*
G01X1775Y6010D01*
G01Y6003D01*
G01Y5996D01*
G01X1773Y5990D01*
G01X1770Y5983D01*
G01X1766Y5978D01*
G01X1760Y5973D01*
G01X1755Y5969D01*
G01X1748Y5966D01*
G01X1741Y5964D01*
G01X1734Y5964D01*
G37*
G36*
G01X1782Y5658D02*
G01X1775D01*
G01X1768Y5661D01*
G01X1762Y5664D01*
G01X1756Y5668D01*
G01X1752Y5674D01*
G01X1748Y5680D01*
G01X1746Y5686D01*
G01X1744Y5693D01*
G01Y5700D01*
G01X1746Y5707D01*
G01X1748Y5714D01*
G01X1752Y5720D01*
G01X1756Y5725D01*
G01X1762Y5730D01*
G01X1768Y5733D01*
G01X1775Y5735D01*
G01X1782Y5736D01*
G01X1789D01*
G01X1796Y5734D01*
G01X1802Y5732D01*
G01X1808Y5728D01*
G01X1813Y5723D01*
G01X1817Y5717D01*
G01X1820Y5711D01*
G01X1822Y5704D01*
G01X1823Y5697D01*
G01X1822Y5690D01*
G01X1820Y5683D01*
G01X1817Y5677D01*
G01X1813Y5671D01*
G01X1808Y5666D01*
G01X1802Y5662D01*
G01X1796Y5659D01*
G01X1789Y5658D01*
G01X1782Y5658D01*
G37*
G36*
G01X1868Y5365D02*
G01X1861Y5366D01*
G01X1854Y5368D01*
G01X1848Y5372D01*
G01X1842Y5376D01*
G01X1838Y5381D01*
G01X1834Y5387D01*
G01X1832Y5394D01*
G01X1830Y5401D01*
G01Y5408D01*
G01X1832Y5415D01*
G01X1834Y5421D01*
G01X1838Y5428D01*
G01X1842Y5433D01*
G01X1848Y5437D01*
G01X1854Y5441D01*
G01X1861Y5443D01*
G01X1868Y5444D01*
G01X1875Y5443D01*
G01X1882Y5442D01*
G01X1888Y5439D01*
G01X1894Y5435D01*
G01X1899Y5430D01*
G01X1903Y5425D01*
G01X1906Y5418D01*
G01X1908Y5411D01*
G01X1909Y5404D01*
G01X1908Y5397D01*
G01X1906Y5391D01*
G01X1903Y5384D01*
G01X1899Y5379D01*
G01X1894Y5374D01*
G01X1888Y5370D01*
G01X1882Y5367D01*
G01X1875Y5365D01*
G01X1868Y5365D01*
G37*
G36*
G01X132Y5595D02*
G01X125D01*
G01X118Y5598D01*
G01X112Y5601D01*
G01X107Y5605D01*
G01X102Y5611D01*
G01X98Y5617D01*
G01X96Y5623D01*
G01X95Y5630D01*
G01Y5637D01*
G01X96Y5644D01*
G01X98Y5651D01*
G01X102Y5657D01*
G01X107Y5662D01*
G01X112Y5667D01*
G01X118Y5670D01*
G01X125Y5672D01*
G01X132Y5673D01*
G01X139D01*
G01X146Y5671D01*
G01X153Y5669D01*
G01X158Y5665D01*
G01X164Y5660D01*
G01X168Y5654D01*
G01X171Y5648D01*
G01X173Y5641D01*
G01Y5634D01*
G01Y5627D01*
G01X171Y5620D01*
G01X168Y5614D01*
G01X164Y5608D01*
G01X158Y5603D01*
G01X153Y5599D01*
G01X146Y5596D01*
G01X139Y5595D01*
G01X132Y5595D01*
G37*
G36*
G01X6912Y6455D02*
G01X6905D01*
G01X6898Y6457D01*
G01X6891Y6459D01*
G01X6886Y6463D01*
G01X6881Y6468D01*
G01X6876Y6474D01*
G01X6873Y6480D01*
G01X6871Y6487D01*
G01Y6494D01*
G01Y6501D01*
G01X6873Y6508D01*
G01X6876Y6514D01*
G01X6881Y6520D01*
G01X6886Y6525D01*
G01X6891Y6529D01*
G01X6898Y6531D01*
G01X6905Y6533D01*
G01X6912D01*
G01X6919Y6532D01*
G01X6926Y6530D01*
G01X6932Y6527D01*
G01X6937Y6522D01*
G01X6942Y6517D01*
G01X6946Y6511D01*
G01X6948Y6504D01*
G01X6949Y6498D01*
G01Y6490D01*
G01X6948Y6484D01*
G01X6946Y6477D01*
G01X6942Y6471D01*
G01X6937Y6466D01*
G01X6932Y6461D01*
G01X6926Y6458D01*
G01X6919Y6456D01*
G01X6912Y6455D01*
G37*
G36*
G01X447Y5595D02*
G01X440D01*
G01X433Y5598D01*
G01X427Y5601D01*
G01X422Y5605D01*
G01X417Y5611D01*
G01X413Y5617D01*
G01X411Y5623D01*
G01X410Y5630D01*
G01Y5637D01*
G01X411Y5644D01*
G01X413Y5651D01*
G01X417Y5657D01*
G01X422Y5662D01*
G01X427Y5667D01*
G01X433Y5670D01*
G01X440Y5672D01*
G01X447Y5673D01*
G01X454D01*
G01X461Y5671D01*
G01X467Y5669D01*
G01X473Y5665D01*
G01X478Y5660D01*
G01X483Y5654D01*
G01X486Y5648D01*
G01X488Y5641D01*
G01Y5634D01*
G01Y5627D01*
G01X486Y5620D01*
G01X483Y5614D01*
G01X478Y5608D01*
G01X473Y5603D01*
G01X467Y5599D01*
G01X461Y5596D01*
G01X454Y5595D01*
G01X447Y5595D01*
G37*
G36*
G01X762Y5814D02*
G01X755Y5815D01*
G01X748Y5817D01*
G01X742Y5820D01*
G01X737Y5825D01*
G01X732Y5830D01*
G01X728Y5836D01*
G01X726Y5843D01*
G01X725Y5850D01*
G01Y5857D01*
G01X726Y5864D01*
G01X728Y5870D01*
G01X732Y5876D01*
G01X737Y5882D01*
G01X742Y5886D01*
G01X748Y5889D01*
G01X755Y5891D01*
G01X762Y5892D01*
G01X769D01*
G01X776Y5891D01*
G01X782Y5888D01*
G01X788Y5884D01*
G01X793Y5879D01*
G01X798Y5873D01*
G01X801Y5867D01*
G01X803Y5860D01*
G01Y5853D01*
G01Y5846D01*
G01X801Y5839D01*
G01X798Y5833D01*
G01X793Y5827D01*
G01X788Y5822D01*
G01X782Y5818D01*
G01X776Y5816D01*
G01X769Y5814D01*
G01X762Y5814D01*
G37*
G36*
G01X1045Y5808D02*
G01X1038Y5809D01*
G01X1032Y5811D01*
G01X1025Y5815D01*
G01X1020Y5819D01*
G01X1015Y5824D01*
G01X1012Y5831D01*
G01X1009Y5837D01*
G01X1008Y5844D01*
G01Y5851D01*
G01X1009Y5858D01*
G01X1012Y5865D01*
G01X1015Y5871D01*
G01X1020Y5876D01*
G01X1025Y5880D01*
G01X1032Y5884D01*
G01X1038Y5886D01*
G01X1045Y5887D01*
G01X1052D01*
G01X1059Y5885D01*
G01X1066Y5882D01*
G01X1072Y5878D01*
G01X1077Y5873D01*
G01X1081Y5868D01*
G01X1084Y5861D01*
G01X1086Y5855D01*
G01X1087Y5848D01*
G01X1086Y5841D01*
G01X1084Y5834D01*
G01X1081Y5827D01*
G01X1077Y5822D01*
G01X1072Y5817D01*
G01X1066Y5813D01*
G01X1059Y5810D01*
G01X1052Y5809D01*
G01X1045Y5808D01*
G37*
G36*
G01X1158Y5197D02*
G01X1151Y5198D01*
G01X1145Y5200D01*
G01X1138Y5204D01*
G01X1133Y5208D01*
G01X1128Y5213D01*
G01X1125Y5219D01*
G01X1122Y5226D01*
G01X1121Y5233D01*
G01Y5240D01*
G01X1122Y5247D01*
G01X1125Y5254D01*
G01X1128Y5260D01*
G01X1133Y5265D01*
G01X1138Y5269D01*
G01X1145Y5273D01*
G01X1151Y5275D01*
G01X1158Y5276D01*
G01X1165D01*
G01X1172Y5274D01*
G01X1179Y5271D01*
G01X1185Y5267D01*
G01X1190Y5262D01*
G01X1194Y5257D01*
G01X1197Y5250D01*
G01X1199Y5244D01*
G01Y5237D01*
G01Y5229D01*
G01X1197Y5223D01*
G01X1194Y5216D01*
G01X1190Y5211D01*
G01X1185Y5206D01*
G01X1179Y5202D01*
G01X1172Y5199D01*
G01X1165Y5198D01*
G01X1158Y5197D01*
G37*
G36*
G01X1324Y4930D02*
G01X1317Y4931D01*
G01X1310Y4933D01*
G01X1304Y4937D01*
G01X1299Y4941D01*
G01X1294Y4946D01*
G01X1290Y4953D01*
G01X1288Y4959D01*
G01X1287Y4966D01*
G01Y4973D01*
G01X1288Y4980D01*
G01X1290Y4987D01*
G01X1294Y4993D01*
G01X1299Y4998D01*
G01X1304Y5003D01*
G01X1310Y5006D01*
G01X1317Y5008D01*
G01X1324Y5009D01*
G01X1331D01*
G01X1338Y5007D01*
G01X1344Y5004D01*
G01X1350Y5000D01*
G01X1355Y4996D01*
G01X1360Y4990D01*
G01X1363Y4984D01*
G01X1365Y4977D01*
G01Y4970D01*
G01Y4963D01*
G01X1363Y4956D01*
G01X1360Y4949D01*
G01X1355Y4944D01*
G01X1350Y4939D01*
G01X1344Y4935D01*
G01X1338Y4932D01*
G01X1331Y4931D01*
G01X1324Y4930D01*
G37*
G36*
G01X1243Y6988D02*
G01X1236Y6989D01*
G01X1229Y6991D01*
G01X1222Y6994D01*
G01X1217Y6998D01*
G01X1212Y7003D01*
G01X1208Y7009D01*
G01X1205Y7015D01*
G01X1204Y7022D01*
G01X1203Y7029D01*
G01X1204Y7036D01*
G01X1206Y7043D01*
G01X1210Y7049D01*
G01X1214Y7055D01*
G01X1219Y7059D01*
G01X1225Y7063D01*
G01X1232Y7066D01*
G01X1239Y7067D01*
G01X1246D01*
G01X1253Y7066D01*
G01X1260Y7063D01*
G01X1266Y7059D01*
G01X1271Y7055D01*
G01X1275Y7049D01*
G01X1279Y7043D01*
G01X1281Y7036D01*
G01X1282Y7029D01*
G01Y7022D01*
G01X1280Y7015D01*
G01X1277Y7009D01*
G01X1273Y7003D01*
G01X1268Y6998D01*
G01X1263Y6994D01*
G01X1256Y6991D01*
G01X1250Y6989D01*
G01X1243Y6988D01*
G37*
G36*
G01X1874Y6358D02*
G01X1867Y6359D01*
G01X1860Y6361D01*
G01X1853Y6364D01*
G01X1848Y6368D01*
G01X1843Y6373D01*
G01X1839Y6379D01*
G01X1836Y6385D01*
G01X1835Y6392D01*
G01X1834Y6399D01*
G01X1835Y6406D01*
G01X1837Y6413D01*
G01X1841Y6419D01*
G01X1845Y6425D01*
G01X1851Y6429D01*
G01X1857Y6433D01*
G01X1863Y6436D01*
G01X1870Y6437D01*
G01X1877D01*
G01X1884Y6436D01*
G01X1891Y6433D01*
G01X1897Y6429D01*
G01X1902Y6425D01*
G01X1906Y6419D01*
G01X1910Y6413D01*
G01X1912Y6406D01*
G01X1913Y6399D01*
G01Y6392D01*
G01X1911Y6385D01*
G01X1908Y6379D01*
G01X1904Y6373D01*
G01X1900Y6368D01*
G01X1894Y6364D01*
G01X1887Y6361D01*
G01X1881Y6359D01*
G01X1874Y6358D01*
G37*
G36*
G01X296Y7933D02*
G01X289Y7934D01*
G01X282Y7936D01*
G01X276Y7939D01*
G01X270Y7943D01*
G01X265Y7948D01*
G01X261Y7954D01*
G01X258Y7960D01*
G01X257Y7967D01*
G01X256Y7974D01*
G01X257Y7981D01*
G01X260Y7988D01*
G01X263Y7994D01*
G01X267Y8000D01*
G01X273Y8004D01*
G01X279Y8008D01*
G01X285Y8010D01*
G01X292Y8012D01*
G01X299D01*
G01X306Y8010D01*
G01X313Y8008D01*
G01X319Y8004D01*
G01X324Y8000D01*
G01X329Y7994D01*
G01X332Y7988D01*
G01X334Y7981D01*
G01X335Y7974D01*
G01Y7967D01*
G01X333Y7960D01*
G01X331Y7954D01*
G01X327Y7948D01*
G01X322Y7943D01*
G01X316Y7939D01*
G01X310Y7936D01*
G01X303Y7934D01*
G01X296Y7933D01*
G37*
G36*
G01X6699Y4733D02*
G01X6692Y4734D01*
G01X6685Y4735D01*
G01X6679Y4738D01*
G01X6673Y4742D01*
G01X6668Y4747D01*
G01X6663Y4752D01*
G01X6660Y4759D01*
G01X6659Y4766D01*
G01X6658Y4773D01*
G01X6659Y4780D01*
G01X6660Y4786D01*
G01X6663Y4793D01*
G01X6668Y4799D01*
G01X6673Y4803D01*
G01X6679Y4807D01*
G01X6685Y4810D01*
G01X6692Y4812D01*
G01X6699D01*
G01X6706Y4811D01*
G01X6713Y4809D01*
G01X6719Y4805D01*
G01X6724Y4801D01*
G01X6729Y4796D01*
G01X6733Y4790D01*
G01X6735Y4783D01*
G01X6736Y4776D01*
G01Y4769D01*
G01X6735Y4762D01*
G01X6733Y4756D01*
G01X6729Y4749D01*
G01X6724Y4744D01*
G01X6719Y4740D01*
G01X6713Y4736D01*
G01X6706Y4734D01*
G01X6699Y4733D01*
G37*
G36*
G01X611Y7618D02*
G01X604Y7619D01*
G01X598Y7621D01*
G01X591Y7624D01*
G01X586Y7628D01*
G01X581Y7633D01*
G01X577Y7639D01*
G01X574Y7645D01*
G01X572Y7652D01*
G01Y7659D01*
G01X573Y7666D01*
G01X575Y7673D01*
G01X579Y7679D01*
G01X583Y7685D01*
G01X588Y7689D01*
G01X594Y7693D01*
G01X601Y7695D01*
G01X608Y7697D01*
G01X615D01*
G01X622Y7695D01*
G01X628Y7693D01*
G01X635Y7689D01*
G01X640Y7685D01*
G01X644Y7679D01*
G01X648Y7673D01*
G01X650Y7666D01*
G01X651Y7659D01*
G01X650Y7652D01*
G01X649Y7645D01*
G01X646Y7639D01*
G01X642Y7633D01*
G01X637Y7628D01*
G01X632Y7624D01*
G01X625Y7621D01*
G01X618Y7619D01*
G01X611Y7618D01*
G37*
G36*
G01X927Y7303D02*
G01X920Y7304D01*
G01X913Y7306D01*
G01X907Y7309D01*
G01X901Y7313D01*
G01X896Y7318D01*
G01X892Y7324D01*
G01X890Y7330D01*
G01X888Y7337D01*
G01Y7344D01*
G01X889Y7351D01*
G01X891Y7358D01*
G01X894Y7364D01*
G01X899Y7370D01*
G01X904Y7374D01*
G01X910Y7378D01*
G01X916Y7380D01*
G01X923Y7382D01*
G01X930D01*
G01X937Y7380D01*
G01X944Y7378D01*
G01X950Y7374D01*
G01X955Y7370D01*
G01X960Y7364D01*
G01X963Y7358D01*
G01X965Y7351D01*
G01X966Y7344D01*
G01Y7337D01*
G01X964Y7330D01*
G01X962Y7324D01*
G01X958Y7318D01*
G01X953Y7313D01*
G01X947Y7309D01*
G01X941Y7306D01*
G01X934Y7304D01*
G01X927Y7303D01*
G37*
G36*
G01X1303Y7787D02*
G01X1296Y7788D01*
G01X1289Y7790D01*
G01X1283Y7793D01*
G01X1277Y7797D01*
G01X1272Y7802D01*
G01X1268Y7808D01*
G01X1266Y7815D01*
G01X1264Y7821D01*
G01Y7829D01*
G01X1265Y7836D01*
G01X1267Y7842D01*
G01X1270Y7848D01*
G01X1275Y7854D01*
G01X1280Y7859D01*
G01X1286Y7862D01*
G01X1293Y7865D01*
G01X1300Y7866D01*
G01X1307D01*
G01X1314Y7865D01*
G01X1320Y7862D01*
G01X1326Y7859D01*
G01X1332Y7854D01*
G01X1336Y7848D01*
G01X1339Y7842D01*
G01X1342Y7836D01*
G01Y7829D01*
G01Y7821D01*
G01X1341Y7815D01*
G01X1338Y7808D01*
G01X1334Y7802D01*
G01X1329Y7797D01*
G01X1323Y7793D01*
G01X1317Y7790D01*
G01X1310Y7788D01*
G01X1303Y7787D01*
G37*
G36*
G01X1512Y7472D02*
G01X1505Y7473D01*
G01X1499Y7475D01*
G01X1492Y7478D01*
G01X1487Y7482D01*
G01X1482Y7487D01*
G01X1478Y7493D01*
G01X1475Y7500D01*
G01X1473Y7507D01*
G01Y7514D01*
G01X1474Y7521D01*
G01X1476Y7527D01*
G01X1480Y7534D01*
G01X1484Y7539D01*
G01X1489Y7544D01*
G01X1495Y7547D01*
G01X1502Y7550D01*
G01X1509Y7551D01*
G01X1516D01*
G01X1523Y7550D01*
G01X1530Y7547D01*
G01X1536Y7544D01*
G01X1541Y7539D01*
G01X1545Y7534D01*
G01X1549Y7527D01*
G01X1551Y7521D01*
G01X1552Y7514D01*
G01X1551Y7507D01*
G01X1550Y7500D01*
G01X1547Y7493D01*
G01X1543Y7487D01*
G01X1538Y7482D01*
G01X1533Y7478D01*
G01X1526Y7475D01*
G01X1519Y7473D01*
G01X1512Y7472D01*
G37*
G36*
G01X1987Y6640D02*
G01X1980Y6641D01*
G01X1973Y6642D01*
G01X1967Y6645D01*
G01X1961Y6650D01*
G01X1956Y6655D01*
G01X1952Y6661D01*
G01X1949Y6667D01*
G01X1948Y6674D01*
G01X1947Y6681D01*
G01X1948Y6688D01*
G01X1951Y6695D01*
G01X1954Y6701D01*
G01X1958Y6706D01*
G01X1964Y6711D01*
G01X1970Y6715D01*
G01X1976Y6717D01*
G01X1983Y6719D01*
G01X1990D01*
G01X1997Y6717D01*
G01X2004Y6715D01*
G01X2010Y6711D01*
G01X2015Y6706D01*
G01X2020Y6701D01*
G01X2023Y6695D01*
G01X2025Y6688D01*
G01X2026Y6681D01*
G01Y6674D01*
G01X2024Y6667D01*
G01X2021Y6661D01*
G01X2018Y6655D01*
G01X2013Y6650D01*
G01X2007Y6645D01*
G01X2001Y6642D01*
G01X1994Y6641D01*
G01X1987Y6640D01*
G37*
G36*
G01X4130Y1516D02*
G01X4123Y1517D01*
G01X4117Y1520D01*
G01X4111Y1523D01*
G01X4105Y1528D01*
G01X4101Y1533D01*
G01X4098Y1540D01*
G01X4095Y1546D01*
G01Y1553D01*
G01Y1560D01*
G01X4096Y1567D01*
G01X4099Y1574D01*
G01X4103Y1580D01*
G01X4108Y1585D01*
G01X4114Y1589D01*
G01X4120Y1592D01*
G01X4127Y1594D01*
G01X4134D01*
G01X4141D01*
G01X4148Y1592D01*
G01X4154Y1589D01*
G01X4160Y1585D01*
G01X4165Y1580D01*
G01X4169Y1574D01*
G01X4171Y1567D01*
G01X4173Y1560D01*
G01Y1553D01*
G01X4172Y1546D01*
G01X4170Y1540D01*
G01X4167Y1533D01*
G01X4162Y1528D01*
G01X4157Y1523D01*
G01X4151Y1520D01*
G01X4144Y1517D01*
G01X4137Y1516D01*
G01X4130D01*
G37*
G36*
G01X7829Y6925D02*
G01X7821Y6926D01*
G01X7815Y6927D01*
G01X7808Y6930D01*
G01X7802Y6934D01*
G01X7797Y6939D01*
G01X7793Y6944D01*
G01X7790Y6951D01*
G01X7788Y6958D01*
G01X7787Y6965D01*
G01X7788Y6972D01*
G01X7790Y6978D01*
G01X7793Y6985D01*
G01X7797Y6990D01*
G01X7802Y6995D01*
G01X7808Y6999D01*
G01X7815Y7002D01*
G01X7821Y7004D01*
G01X7829D01*
G01X7836Y7003D01*
G01X7842Y7001D01*
G01X7848Y6997D01*
G01X7854Y6993D01*
G01X7859Y6988D01*
G01X7862Y6982D01*
G01X7865Y6975D01*
G01X7866Y6968D01*
G01Y6961D01*
G01X7865Y6954D01*
G01X7862Y6947D01*
G01X7859Y6941D01*
G01X7854Y6936D01*
G01X7848Y6932D01*
G01X7842Y6928D01*
G01X7836Y6926D01*
G01X7829Y6925D01*
G37*
G36*
G01X6681Y6242D02*
G01X6674D01*
G01X6667Y6243D01*
G01X6661Y6246D01*
G01X6655Y6250D01*
G01X6650Y6255D01*
G01X6645Y6261D01*
G01X6642Y6267D01*
G01X6641Y6274D01*
G01X6640Y6281D01*
G01X6641Y6288D01*
G01X6642Y6295D01*
G01X6645Y6301D01*
G01X6650Y6307D01*
G01X6655Y6312D01*
G01X6661Y6316D01*
G01X6667Y6318D01*
G01X6674Y6320D01*
G01X6681D01*
G01X6688Y6319D01*
G01X6695Y6317D01*
G01X6701Y6314D01*
G01X6706Y6309D01*
G01X6711Y6304D01*
G01X6715Y6298D01*
G01X6717Y6291D01*
G01X6719Y6284D01*
G01Y6277D01*
G01X6717Y6270D01*
G01X6715Y6264D01*
G01X6711Y6258D01*
G01X6706Y6252D01*
G01X6701Y6248D01*
G01X6695Y6245D01*
G01X6688Y6243D01*
G01X6681Y6242D01*
G37*
G36*
G01X6534Y5964D02*
G01X6527D01*
G01X6520Y5966D01*
G01X6513Y5969D01*
G01X6507Y5973D01*
G01X6502Y5978D01*
G01X6498Y5983D01*
G01X6495Y5990D01*
G01X6493Y5996D01*
G01X6492Y6003D01*
G01X6493Y6010D01*
G01X6495Y6017D01*
G01X6498Y6024D01*
G01X6502Y6029D01*
G01X6507Y6034D01*
G01X6513Y6038D01*
G01X6520Y6041D01*
G01X6527Y6042D01*
G01X6534Y6043D01*
G01X6541Y6042D01*
G01X6547Y6040D01*
G01X6554Y6036D01*
G01X6559Y6032D01*
G01X6564Y6027D01*
G01X6567Y6021D01*
G01X6570Y6014D01*
G01X6571Y6007D01*
G01Y6000D01*
G01X6570Y5993D01*
G01X6567Y5986D01*
G01X6564Y5980D01*
G01X6559Y5975D01*
G01X6554Y5971D01*
G01X6547Y5967D01*
G01X6541Y5965D01*
G01X6534Y5964D01*
G37*
G36*
G01X6400Y5365D02*
G01X6393D01*
G01X6386Y5367D01*
G01X6379Y5370D01*
G01X6374Y5374D01*
G01X6368Y5379D01*
G01X6364Y5384D01*
G01X6361Y5391D01*
G01X6359Y5397D01*
G01Y5404D01*
G01Y5411D01*
G01X6361Y5418D01*
G01X6364Y5425D01*
G01X6368Y5430D01*
G01X6374Y5435D01*
G01X6379Y5439D01*
G01X6386Y5442D01*
G01X6393Y5443D01*
G01X6400Y5444D01*
G01X6407Y5443D01*
G01X6414Y5441D01*
G01X6420Y5437D01*
G01X6425Y5433D01*
G01X6430Y5428D01*
G01X6434Y5421D01*
G01X6436Y5415D01*
G01X6437Y5408D01*
G01Y5401D01*
G01X6436Y5394D01*
G01X6434Y5387D01*
G01X6430Y5381D01*
G01X6425Y5376D01*
G01X6420Y5372D01*
G01X6414Y5368D01*
G01X6407Y5366D01*
G01X6400Y5365D01*
G37*
G36*
G01X7821Y5595D02*
G01X7814D01*
G01X7807Y5596D01*
G01X7800Y5599D01*
G01X7794Y5603D01*
G01X7789Y5608D01*
G01X7785Y5614D01*
G01X7782Y5620D01*
G01X7780Y5627D01*
G01Y5634D01*
G01Y5641D01*
G01X7782Y5648D01*
G01X7785Y5654D01*
G01X7789Y5660D01*
G01X7794Y5665D01*
G01X7800Y5669D01*
G01X7807Y5671D01*
G01X7814Y5673D01*
G01X7821D01*
G01X7828Y5672D01*
G01X7834Y5670D01*
G01X7841Y5667D01*
G01X7846Y5662D01*
G01X7851Y5657D01*
G01X7854Y5651D01*
G01X7857Y5644D01*
G01X7858Y5637D01*
G01Y5630D01*
G01X7857Y5623D01*
G01X7854Y5617D01*
G01X7851Y5611D01*
G01X7846Y5605D01*
G01X7841Y5601D01*
G01X7834Y5598D01*
G01X7828Y5595D01*
G01X7821Y5595D01*
G37*
G36*
G01X7222Y5808D02*
G01X7215Y5809D01*
G01X7208Y5810D01*
G01X7202Y5813D01*
G01X7196Y5817D01*
G01X7191Y5822D01*
G01X7187Y5827D01*
G01X7184Y5834D01*
G01X7182Y5841D01*
G01X7181Y5848D01*
G01X7182Y5855D01*
G01X7184Y5861D01*
G01X7187Y5868D01*
G01X7191Y5873D01*
G01X7196Y5878D01*
G01X7202Y5882D01*
G01X7208Y5885D01*
G01X7215Y5887D01*
G01X7222D01*
G01X7229Y5886D01*
G01X7236Y5884D01*
G01X7242Y5880D01*
G01X7248Y5876D01*
G01X7252Y5871D01*
G01X7256Y5865D01*
G01X7259Y5858D01*
G01X7260Y5851D01*
G01Y5844D01*
G01X7259Y5837D01*
G01X7256Y5831D01*
G01X7252Y5824D01*
G01X7248Y5819D01*
G01X7242Y5815D01*
G01X7236Y5811D01*
G01X7229Y5809D01*
G01X7222Y5808D01*
G37*
G36*
G01X7178Y5504D02*
G01X7171D01*
G01X7164Y5506D01*
G01X7157Y5509D01*
G01X7151Y5512D01*
G01X7146Y5517D01*
G01X7142Y5523D01*
G01X7139Y5529D01*
G01X7137Y5536D01*
G01Y5543D01*
G01Y5550D01*
G01X7139Y5557D01*
G01X7142Y5563D01*
G01X7146Y5569D01*
G01X7151Y5574D01*
G01X7157Y5578D01*
G01X7164Y5581D01*
G01X7171Y5582D01*
G01X7178Y5583D01*
G01X7185Y5582D01*
G01X7191Y5579D01*
G01X7198Y5576D01*
G01X7203Y5572D01*
G01X7208Y5566D01*
G01X7211Y5560D01*
G01X7214Y5554D01*
G01X7215Y5547D01*
G01Y5540D01*
G01X7214Y5533D01*
G01X7211Y5526D01*
G01X7208Y5520D01*
G01X7203Y5515D01*
G01X7198Y5510D01*
G01X7191Y5507D01*
G01X7185Y5505D01*
G01X7178Y5504D01*
G37*
G36*
G01X7109Y5197D02*
G01X7102Y5198D01*
G01X7096Y5199D01*
G01X7089Y5202D01*
G01X7083Y5206D01*
G01X7078Y5211D01*
G01X7074Y5216D01*
G01X7071Y5223D01*
G01X7069Y5229D01*
G01X7068Y5237D01*
G01X7069Y5244D01*
G01X7071Y5250D01*
G01X7074Y5257D01*
G01X7078Y5262D01*
G01X7083Y5267D01*
G01X7089Y5271D01*
G01X7096Y5274D01*
G01X7102Y5276D01*
G01X7109D01*
G01X7116Y5275D01*
G01X7123Y5273D01*
G01X7129Y5269D01*
G01X7135Y5265D01*
G01X7140Y5260D01*
G01X7143Y5254D01*
G01X7146Y5247D01*
G01X7147Y5240D01*
G01Y5233D01*
G01X7146Y5226D01*
G01X7143Y5219D01*
G01X7140Y5213D01*
G01X7135Y5208D01*
G01X7129Y5204D01*
G01X7123Y5200D01*
G01X7116Y5198D01*
G01X7109Y5197D01*
G37*
G36*
G01X5848Y7181D02*
G01X5841Y7182D01*
G01X5834Y7184D01*
G01X5827Y7187D01*
G01X5822Y7191D01*
G01X5817Y7196D01*
G01X5813Y7202D01*
G01X5810Y7208D01*
G01X5809Y7215D01*
G01X5808Y7222D01*
G01X5809Y7229D01*
G01X5811Y7236D01*
G01X5815Y7242D01*
G01X5819Y7248D01*
G01X5824Y7252D01*
G01X5831Y7256D01*
G01X5837Y7259D01*
G01X5844Y7260D01*
G01X5851D01*
G01X5858Y7259D01*
G01X5865Y7256D01*
G01X5871Y7252D01*
G01X5876Y7248D01*
G01X5880Y7242D01*
G01X5884Y7236D01*
G01X5886Y7229D01*
G01X5887Y7222D01*
G01Y7215D01*
G01X5885Y7208D01*
G01X5882Y7202D01*
G01X5878Y7196D01*
G01X5873Y7191D01*
G01X5868Y7187D01*
G01X5861Y7184D01*
G01X5855Y7182D01*
G01X5848Y7181D01*
G37*
G36*
G01X6944Y4930D02*
G01X6937Y4931D01*
G01X6930Y4932D01*
G01X6923Y4935D01*
G01X6917Y4939D01*
G01X6912Y4944D01*
G01X6908Y4949D01*
G01X6905Y4956D01*
G01X6903Y4963D01*
G01Y4970D01*
G01Y4977D01*
G01X6905Y4984D01*
G01X6908Y4990D01*
G01X6912Y4996D01*
G01X6917Y5000D01*
G01X6923Y5004D01*
G01X6930Y5007D01*
G01X6937Y5009D01*
G01X6944D01*
G01X6951Y5008D01*
G01X6957Y5006D01*
G01X6964Y5003D01*
G01X6969Y4998D01*
G01X6974Y4993D01*
G01X6977Y4987D01*
G01X6980Y4980D01*
G01X6981Y4973D01*
G01Y4966D01*
G01X6980Y4959D01*
G01X6977Y4953D01*
G01X6974Y4946D01*
G01X6969Y4941D01*
G01X6964Y4937D01*
G01X6957Y4933D01*
G01X6951Y4931D01*
G01X6944Y4930D01*
G37*
G36*
G01X6403Y4628D02*
G01X6396D01*
G01X6389Y4630D01*
G01X6382Y4633D01*
G01X6377Y4637D01*
G01X6371Y4642D01*
G01X6367Y4647D01*
G01X6364Y4654D01*
G01X6362Y4660D01*
G01Y4667D01*
G01Y4674D01*
G01X6364Y4681D01*
G01X6367Y4688D01*
G01X6371Y4693D01*
G01X6377Y4698D01*
G01X6382Y4702D01*
G01X6389Y4705D01*
G01X6396Y4706D01*
G01X6403Y4707D01*
G01X6410Y4706D01*
G01X6417Y4704D01*
G01X6423Y4700D01*
G01X6428Y4696D01*
G01X6433Y4691D01*
G01X6437Y4685D01*
G01X6439Y4678D01*
G01X6440Y4671D01*
G01Y4664D01*
G01X6439Y4657D01*
G01X6437Y4650D01*
G01X6433Y4644D01*
G01X6428Y4639D01*
G01X6423Y4635D01*
G01X6417Y4631D01*
G01X6410Y4629D01*
G01X6403Y4628D01*
G37*
G36*
G01X6965Y8102D02*
G01X6958Y8103D01*
G01X6951Y8105D01*
G01X6944Y8108D01*
G01X6939Y8112D01*
G01X6934Y8117D01*
G01X6930Y8123D01*
G01X6927Y8130D01*
G01X6926Y8136D01*
G01X6925Y8144D01*
G01X6926Y8151D01*
G01X6928Y8157D01*
G01X6932Y8163D01*
G01X6936Y8169D01*
G01X6941Y8174D01*
G01X6947Y8177D01*
G01X6954Y8180D01*
G01X6961Y8181D01*
G01X6968D01*
G01X6975Y8180D01*
G01X6982Y8177D01*
G01X6988Y8174D01*
G01X6993Y8169D01*
G01X6997Y8163D01*
G01X7001Y8157D01*
G01X7003Y8151D01*
G01X7004Y8144D01*
G01Y8136D01*
G01X7002Y8130D01*
G01X6999Y8123D01*
G01X6995Y8117D01*
G01X6990Y8112D01*
G01X6985Y8108D01*
G01X6978Y8105D01*
G01X6972Y8103D01*
G01X6965Y8102D01*
G37*
G36*
G01X6965Y7787D02*
G01X6958Y7788D01*
G01X6951Y7790D01*
G01X6944Y7793D01*
G01X6939Y7797D01*
G01X6934Y7802D01*
G01X6930Y7808D01*
G01X6927Y7815D01*
G01X6926Y7821D01*
G01X6925Y7829D01*
G01X6926Y7836D01*
G01X6928Y7842D01*
G01X6932Y7848D01*
G01X6936Y7854D01*
G01X6941Y7859D01*
G01X6947Y7862D01*
G01X6954Y7865D01*
G01X6961Y7866D01*
G01X6968D01*
G01X6975Y7865D01*
G01X6982Y7862D01*
G01X6988Y7859D01*
G01X6993Y7854D01*
G01X6997Y7848D01*
G01X7001Y7842D01*
G01X7003Y7836D01*
G01X7004Y7829D01*
G01Y7821D01*
G01X7002Y7815D01*
G01X6999Y7808D01*
G01X6995Y7802D01*
G01X6990Y7797D01*
G01X6985Y7793D01*
G01X6978Y7790D01*
G01X6972Y7788D01*
G01X6965Y7787D01*
G37*
G36*
G01X7974Y7933D02*
G01X7967D01*
G01X7960Y7934D01*
G01X7954Y7937D01*
G01X7948Y7941D01*
G01X7943Y7946D01*
G01X7939Y7952D01*
G01X7936Y7958D01*
G01X7934Y7965D01*
G01X7933Y7972D01*
G01X7934Y7979D01*
G01X7936Y7986D01*
G01X7939Y7992D01*
G01X7943Y7998D01*
G01X7948Y8003D01*
G01X7954Y8007D01*
G01X7960Y8009D01*
G01X7967Y8011D01*
G01X7974D01*
G01X7981Y8010D01*
G01X7988Y8008D01*
G01X7994Y8005D01*
G01X8000Y8000D01*
G01X8004Y7995D01*
G01X8008Y7989D01*
G01X8010Y7982D01*
G01X8012Y7975D01*
G01Y7968D01*
G01X8010Y7961D01*
G01X8008Y7955D01*
G01X8004Y7949D01*
G01X8000Y7943D01*
G01X7994Y7939D01*
G01X7988Y7936D01*
G01X7981Y7934D01*
G01X7974Y7933D01*
G37*
G36*
G01X6619Y7159D02*
G01X6612Y7160D01*
G01X6605Y7162D01*
G01X6599Y7165D01*
G01X6593Y7169D01*
G01X6588Y7174D01*
G01X6584Y7180D01*
G01X6581Y7186D01*
G01X6580Y7193D01*
G01X6579Y7200D01*
G01X6580Y7207D01*
G01X6583Y7214D01*
G01X6586Y7220D01*
G01X6590Y7226D01*
G01X6596Y7230D01*
G01X6602Y7234D01*
G01X6608Y7236D01*
G01X6615Y7238D01*
G01X6622D01*
G01X6629Y7236D01*
G01X6636Y7234D01*
G01X6642Y7230D01*
G01X6647Y7226D01*
G01X6652Y7220D01*
G01X6655Y7214D01*
G01X6657Y7207D01*
G01X6658Y7200D01*
G01Y7193D01*
G01X6656Y7186D01*
G01X6653Y7180D01*
G01X6650Y7174D01*
G01X6645Y7169D01*
G01X6639Y7165D01*
G01X6633Y7162D01*
G01X6626Y7160D01*
G01X6619Y7159D01*
G37*
G36*
G01X6494Y6871D02*
G01X6487D01*
G01X6480Y6873D01*
G01X6474Y6876D01*
G01X6468Y6881D01*
G01X6463Y6886D01*
G01X6459Y6891D01*
G01X6457Y6898D01*
G01X6455Y6905D01*
G01Y6912D01*
G01X6456Y6919D01*
G01X6458Y6926D01*
G01X6461Y6932D01*
G01X6466Y6937D01*
G01X6471Y6942D01*
G01X6477Y6946D01*
G01X6484Y6948D01*
G01X6490Y6949D01*
G01X6498D01*
G01X6504Y6948D01*
G01X6511Y6946D01*
G01X6517Y6942D01*
G01X6522Y6937D01*
G01X6527Y6932D01*
G01X6530Y6926D01*
G01X6532Y6919D01*
G01X6533Y6912D01*
G01Y6905D01*
G01X6531Y6898D01*
G01X6529Y6891D01*
G01X6525Y6886D01*
G01X6520Y6881D01*
G01X6514Y6876D01*
G01X6508Y6873D01*
G01X6501Y6871D01*
G01X6494Y6871D01*
G37*
G36*
G01X6281Y6640D02*
G01X6274Y6641D01*
G01X6267Y6642D01*
G01X6261Y6645D01*
G01X6255Y6650D01*
G01X6250Y6655D01*
G01X6246Y6661D01*
G01X6243Y6667D01*
G01X6242Y6674D01*
G01Y6681D01*
G01X6243Y6688D01*
G01X6245Y6695D01*
G01X6248Y6701D01*
G01X6252Y6706D01*
G01X6258Y6711D01*
G01X6264Y6715D01*
G01X6270Y6717D01*
G01X6277Y6719D01*
G01X6284D01*
G01X6291Y6717D01*
G01X6298Y6715D01*
G01X6304Y6711D01*
G01X6309Y6706D01*
G01X6314Y6701D01*
G01X6317Y6695D01*
G01X6319Y6688D01*
G01X6320Y6681D01*
G01Y6674D01*
G01X6318Y6667D01*
G01X6316Y6661D01*
G01X6312Y6655D01*
G01X6307Y6650D01*
G01X6301Y6645D01*
G01X6295Y6642D01*
G01X6288Y6641D01*
G01X6281Y6640D01*
G37*
G36*
G01X5697Y6445D02*
G01X5690Y6446D01*
G01X5683Y6447D01*
G01X5677Y6450D01*
G01X5671Y6455D01*
G01X5666Y6460D01*
G01X5662Y6466D01*
G01X5659Y6472D01*
G01X5658Y6479D01*
G01Y6486D01*
G01Y6493D01*
G01X5661Y6500D01*
G01X5664Y6506D01*
G01X5668Y6511D01*
G01X5674Y6516D01*
G01X5680Y6520D01*
G01X5686Y6522D01*
G01X5693Y6523D01*
G01X5700D01*
G01X5707Y6522D01*
G01X5714Y6520D01*
G01X5720Y6516D01*
G01X5725Y6511D01*
G01X5730Y6506D01*
G01X5733Y6500D01*
G01X5735Y6493D01*
G01X5736Y6486D01*
G01Y6479D01*
G01X5734Y6472D01*
G01X5732Y6466D01*
G01X5728Y6460D01*
G01X5723Y6455D01*
G01X5717Y6450D01*
G01X5711Y6447D01*
G01X5704Y6446D01*
G01X5697Y6445D01*
G37*
G36*
G01X5543Y7137D02*
G01X5536D01*
G01X5529Y7139D01*
G01X5523Y7142D01*
G01X5517Y7146D01*
G01X5512Y7151D01*
G01X5509Y7157D01*
G01X5506Y7164D01*
G01X5504Y7171D01*
G01Y7178D01*
G01X5505Y7185D01*
G01X5507Y7191D01*
G01X5510Y7198D01*
G01X5515Y7203D01*
G01X5520Y7208D01*
G01X5526Y7211D01*
G01X5533Y7214D01*
G01X5540Y7215D01*
G01X5547D01*
G01X5554Y7214D01*
G01X5560Y7211D01*
G01X5566Y7208D01*
G01X5572Y7203D01*
G01X5576Y7198D01*
G01X5579Y7191D01*
G01X5582Y7185D01*
G01X5583Y7178D01*
G01X5582Y7171D01*
G01X5581Y7164D01*
G01X5578Y7157D01*
G01X5574Y7151D01*
G01X5569Y7146D01*
G01X5563Y7142D01*
G01X5557Y7139D01*
G01X5550Y7137D01*
G01X5543Y7137D01*
G37*
G36*
G01X5634Y8094D02*
G01X5627Y8095D01*
G01X5620Y8097D01*
G01X5614Y8100D01*
G01X5608Y8104D01*
G01X5603Y8109D01*
G01X5599Y8115D01*
G01X5596Y8122D01*
G01X5595Y8129D01*
G01Y8136D01*
G01Y8143D01*
G01X5598Y8149D01*
G01X5601Y8156D01*
G01X5605Y8161D01*
G01X5611Y8166D01*
G01X5617Y8169D01*
G01X5623Y8172D01*
G01X5630Y8173D01*
G01X5637D01*
G01X5644Y8172D01*
G01X5651Y8169D01*
G01X5657Y8166D01*
G01X5662Y8161D01*
G01X5667Y8156D01*
G01X5670Y8149D01*
G01X5672Y8143D01*
G01X5673Y8136D01*
G01Y8129D01*
G01X5671Y8122D01*
G01X5669Y8115D01*
G01X5665Y8109D01*
G01X5660Y8104D01*
G01X5654Y8100D01*
G01X5648Y8097D01*
G01X5641Y8095D01*
G01X5634Y8094D01*
G37*
G36*
G01X5853Y7465D02*
G01X5846D01*
G01X5839Y7467D01*
G01X5833Y7470D01*
G01X5827Y7474D01*
G01X5822Y7479D01*
G01X5818Y7485D01*
G01X5816Y7492D01*
G01X5814Y7499D01*
G01Y7506D01*
G01X5815Y7513D01*
G01X5817Y7519D01*
G01X5820Y7526D01*
G01X5825Y7531D01*
G01X5830Y7536D01*
G01X5836Y7539D01*
G01X5843Y7542D01*
G01X5850Y7543D01*
G01X5857D01*
G01X5864Y7542D01*
G01X5870Y7539D01*
G01X5876Y7536D01*
G01X5882Y7531D01*
G01X5886Y7526D01*
G01X5889Y7519D01*
G01X5891Y7513D01*
G01X5892Y7506D01*
G01Y7499D01*
G01X5891Y7492D01*
G01X5888Y7485D01*
G01X5884Y7479D01*
G01X5879Y7474D01*
G01X5873Y7470D01*
G01X5867Y7467D01*
G01X5860Y7465D01*
G01X5853Y7465D01*
G37*
G36*
G01X5237Y7068D02*
G01X5229Y7069D01*
G01X5223Y7071D01*
G01X5216Y7074D01*
G01X5211Y7078D01*
G01X5206Y7083D01*
G01X5202Y7089D01*
G01X5199Y7096D01*
G01X5198Y7102D01*
G01X5197Y7109D01*
G01X5198Y7116D01*
G01X5200Y7123D01*
G01X5204Y7129D01*
G01X5208Y7135D01*
G01X5213Y7140D01*
G01X5219Y7143D01*
G01X5226Y7146D01*
G01X5233Y7147D01*
G01X5240D01*
G01X5247Y7146D01*
G01X5254Y7143D01*
G01X5260Y7140D01*
G01X5265Y7135D01*
G01X5269Y7129D01*
G01X5273Y7123D01*
G01X5275Y7116D01*
G01X5276Y7109D01*
G01Y7102D01*
G01X5274Y7096D01*
G01X5271Y7089D01*
G01X5267Y7083D01*
G01X5262Y7078D01*
G01X5257Y7074D01*
G01X5250Y7071D01*
G01X5244Y7069D01*
G01X5237Y7068D01*
G37*
G36*
G01X4970Y6903D02*
G01X4963D01*
G01X4956Y6905D01*
G01X4949Y6908D01*
G01X4944Y6912D01*
G01X4939Y6917D01*
G01X4935Y6923D01*
G01X4932Y6930D01*
G01X4931Y6937D01*
G01X4930Y6944D01*
G01X4931Y6951D01*
G01X4933Y6957D01*
G01X4937Y6964D01*
G01X4941Y6969D01*
G01X4946Y6974D01*
G01X4953Y6977D01*
G01X4959Y6980D01*
G01X4966Y6981D01*
G01X4973D01*
G01X4980Y6980D01*
G01X4987Y6977D01*
G01X4993Y6974D01*
G01X4998Y6969D01*
G01X5003Y6964D01*
G01X5006Y6957D01*
G01X5008Y6951D01*
G01X5009Y6944D01*
G01Y6937D01*
G01X5007Y6930D01*
G01X5004Y6923D01*
G01X5000Y6917D01*
G01X4996Y6912D01*
G01X4990Y6908D01*
G01X4984Y6905D01*
G01X4977Y6903D01*
G01X4970Y6903D01*
G37*
G36*
G01X4667Y6362D02*
G01X4660D01*
G01X4654Y6364D01*
G01X4647Y6367D01*
G01X4642Y6371D01*
G01X4637Y6377D01*
G01X4633Y6382D01*
G01X4630Y6389D01*
G01X4628Y6396D01*
G01Y6403D01*
G01X4629Y6410D01*
G01X4631Y6417D01*
G01X4635Y6423D01*
G01X4639Y6428D01*
G01X4644Y6433D01*
G01X4650Y6437D01*
G01X4657Y6439D01*
G01X4664Y6440D01*
G01X4671D01*
G01X4678Y6439D01*
G01X4685Y6437D01*
G01X4691Y6433D01*
G01X4696Y6428D01*
G01X4700Y6423D01*
G01X4704Y6417D01*
G01X4706Y6410D01*
G01X4707Y6403D01*
G01X4706Y6396D01*
G01X4705Y6389D01*
G01X4702Y6382D01*
G01X4698Y6377D01*
G01X4693Y6371D01*
G01X4688Y6367D01*
G01X4681Y6364D01*
G01X4674Y6362D01*
G01X4667Y6362D01*
G37*
G36*
G01X7659Y7617D02*
G01X7652D01*
G01X7645Y7619D01*
G01X7639Y7622D01*
G01X7633Y7626D01*
G01X7628Y7630D01*
G01X7624Y7636D01*
G01X7621Y7642D01*
G01X7619Y7649D01*
G01X7618Y7656D01*
G01X7619Y7663D01*
G01X7621Y7670D01*
G01X7624Y7676D01*
G01X7628Y7682D01*
G01X7633Y7687D01*
G01X7639Y7691D01*
G01X7645Y7694D01*
G01X7652Y7695D01*
G01X7659Y7696D01*
G01X7666Y7695D01*
G01X7673Y7693D01*
G01X7679Y7689D01*
G01X7685Y7685D01*
G01X7689Y7679D01*
G01X7693Y7673D01*
G01X7695Y7667D01*
G01X7697Y7660D01*
G01Y7653D01*
G01X7695Y7646D01*
G01X7693Y7639D01*
G01X7689Y7633D01*
G01X7685Y7628D01*
G01X7679Y7623D01*
G01X7673Y7620D01*
G01X7666Y7618D01*
G01X7659Y7617D01*
G37*
G36*
G01X7344Y7301D02*
G01X7337Y7302D01*
G01X7330Y7303D01*
G01X7324Y7306D01*
G01X7318Y7310D01*
G01X7313Y7315D01*
G01X7309Y7321D01*
G01X7306Y7327D01*
G01X7304Y7334D01*
G01X7303Y7341D01*
G01X7304Y7348D01*
G01X7306Y7355D01*
G01X7309Y7361D01*
G01X7313Y7367D01*
G01X7318Y7372D01*
G01X7324Y7375D01*
G01X7330Y7378D01*
G01X7337Y7380D01*
G01X7344D01*
G01X7351Y7379D01*
G01X7358Y7377D01*
G01X7364Y7374D01*
G01X7370Y7369D01*
G01X7374Y7364D01*
G01X7378Y7358D01*
G01X7380Y7351D01*
G01X7382Y7344D01*
G01Y7337D01*
G01X7380Y7330D01*
G01X7378Y7324D01*
G01X7374Y7318D01*
G01X7370Y7312D01*
G01X7364Y7308D01*
G01X7358Y7305D01*
G01X7351Y7302D01*
G01X7344Y7301D01*
G37*
G36*
G01X7029Y6986D02*
G01X7022D01*
G01X7015Y6988D01*
G01X7009Y6991D01*
G01X7003Y6994D01*
G01X6998Y6999D01*
G01X6994Y7005D01*
G01X6991Y7011D01*
G01X6989Y7018D01*
G01X6988Y7025D01*
G01X6989Y7032D01*
G01X6991Y7039D01*
G01X6994Y7045D01*
G01X6998Y7051D01*
G01X7003Y7056D01*
G01X7009Y7060D01*
G01X7015Y7063D01*
G01X7022Y7064D01*
G01X7029Y7065D01*
G01X7036Y7064D01*
G01X7043Y7061D01*
G01X7049Y7058D01*
G01X7055Y7054D01*
G01X7059Y7048D01*
G01X7063Y7042D01*
G01X7066Y7036D01*
G01X7067Y7029D01*
G01Y7022D01*
G01X7066Y7015D01*
G01X7063Y7008D01*
G01X7059Y7002D01*
G01X7055Y6997D01*
G01X7049Y6992D01*
G01X7043Y6989D01*
G01X7036Y6987D01*
G01X7029Y6986D01*
G37*
G36*
G01X6714Y6670D02*
G01X6707Y6671D01*
G01X6700Y6672D01*
G01X6694Y6675D01*
G01X6688Y6679D01*
G01X6683Y6684D01*
G01X6679Y6689D01*
G01X6676Y6696D01*
G01X6674Y6703D01*
G01X6673Y6710D01*
G01X6674Y6717D01*
G01X6676Y6723D01*
G01X6679Y6730D01*
G01X6683Y6736D01*
G01X6688Y6740D01*
G01X6694Y6744D01*
G01X6700Y6747D01*
G01X6707Y6749D01*
G01X6714D01*
G01X6721Y6748D01*
G01X6728Y6746D01*
G01X6734Y6742D01*
G01X6740Y6738D01*
G01X6744Y6733D01*
G01X6748Y6727D01*
G01X6751Y6720D01*
G01X6752Y6713D01*
G01Y6706D01*
G01X6751Y6699D01*
G01X6748Y6693D01*
G01X6744Y6686D01*
G01X6740Y6681D01*
G01X6734Y6677D01*
G01X6728Y6673D01*
G01X6721Y6671D01*
G01X6714Y6670D01*
G37*
G36*
G01X6399Y6355D02*
G01X6392D01*
G01X6385Y6357D01*
G01X6379Y6359D01*
G01X6373Y6363D01*
G01X6368Y6368D01*
G01X6364Y6374D01*
G01X6361Y6380D01*
G01X6359Y6387D01*
G01X6358Y6394D01*
G01X6359Y6401D01*
G01X6361Y6408D01*
G01X6364Y6414D01*
G01X6368Y6420D01*
G01X6373Y6425D01*
G01X6379Y6429D01*
G01X6385Y6431D01*
G01X6392Y6433D01*
G01X6399D01*
G01X6406Y6432D01*
G01X6413Y6430D01*
G01X6419Y6427D01*
G01X6425Y6423D01*
G01X6429Y6417D01*
G01X6433Y6411D01*
G01X6436Y6405D01*
G01X6437Y6398D01*
G01Y6391D01*
G01X6436Y6384D01*
G01X6433Y6377D01*
G01X6429Y6371D01*
G01X6425Y6366D01*
G01X6419Y6361D01*
G01X6413Y6358D01*
G01X6406Y6356D01*
G01X6399Y6355D01*
G37*
G36*
G01X4130Y256D02*
G01X4123Y257D01*
G01X4117Y260D01*
G01X4111Y263D01*
G01X4105Y268D01*
G01X4101Y274D01*
G01X4098Y280D01*
G01X4095Y286D01*
G01Y294D01*
G01Y301D01*
G01X4096Y307D01*
G01X4099Y314D01*
G01X4103Y320D01*
G01X4108Y325D01*
G01X4114Y329D01*
G01X4120Y332D01*
G01X4127Y334D01*
G01X4134Y335D01*
G01X4141Y334D01*
G01X4148Y332D01*
G01X4154Y329D01*
G01X4160Y325D01*
G01X4165Y320D01*
G01X4169Y314D01*
G01X4171Y307D01*
G01X4173Y301D01*
G01Y294D01*
G01X4172Y286D01*
G01X4170Y280D01*
G01X4167Y274D01*
G01X4162Y268D01*
G01X4157Y263D01*
G01X4151Y260D01*
G01X4144Y257D01*
G01X4137Y256D01*
G01X4130D01*
G37*
G36*
G01X4130Y1831D02*
G01X4123Y1832D01*
G01X4117Y1835D01*
G01X4111Y1838D01*
G01X4105Y1843D01*
G01X4101Y1848D01*
G01X4098Y1855D01*
G01X4095Y1861D01*
G01Y1868D01*
G01Y1875D01*
G01X4096Y1882D01*
G01X4099Y1889D01*
G01X4103Y1895D01*
G01X4108Y1900D01*
G01X4114Y1904D01*
G01X4120Y1907D01*
G01X4127Y1909D01*
G01X4134D01*
G01X4141D01*
G01X4148Y1907D01*
G01X4154Y1904D01*
G01X4160Y1900D01*
G01X4165Y1895D01*
G01X4169Y1889D01*
G01X4171Y1882D01*
G01X4173Y1875D01*
G01Y1868D01*
G01X4172Y1861D01*
G01X4170Y1855D01*
G01X4167Y1848D01*
G01X4162Y1843D01*
G01X4157Y1838D01*
G01X4151Y1835D01*
G01X4144Y1832D01*
G01X4137Y1831D01*
G01X4130D01*
G37*
G36*
G01X7974Y4095D02*
G01X7967D01*
G01X7960Y4096D01*
G01X7954Y4099D01*
G01X7948Y4103D01*
G01X7943Y4108D01*
G01X7939Y4114D01*
G01X7936Y4120D01*
G01X7934Y4127D01*
G01X7933Y4134D01*
G01X7934Y4141D01*
G01X7936Y4148D01*
G01X7939Y4154D01*
G01X7943Y4160D01*
G01X7948Y4165D01*
G01X7954Y4169D01*
G01X7960Y4171D01*
G01X7967Y4173D01*
G01X7974D01*
G01X7981Y4172D01*
G01X7988Y4170D01*
G01X7994Y4167D01*
G01X8000Y4162D01*
G01X8004Y4157D01*
G01X8008Y4151D01*
G01X8010Y4144D01*
G01X8012Y4137D01*
G01Y4130D01*
G01X8010Y4123D01*
G01X8008Y4117D01*
G01X8004Y4111D01*
G01X8000Y4105D01*
G01X7994Y4101D01*
G01X7988Y4098D01*
G01X7981Y4095D01*
G01X7974Y4095D01*
G37*
G36*
G01X6714Y4095D02*
G01X6707D01*
G01X6700Y4096D01*
G01X6694Y4099D01*
G01X6688Y4103D01*
G01X6683Y4108D01*
G01X6679Y4114D01*
G01X6676Y4120D01*
G01X6674Y4127D01*
G01X6673Y4134D01*
G01X6674Y4141D01*
G01X6676Y4148D01*
G01X6679Y4154D01*
G01X6683Y4160D01*
G01X6688Y4165D01*
G01X6694Y4169D01*
G01X6700Y4171D01*
G01X6707Y4173D01*
G01X6714D01*
G01X6721Y4172D01*
G01X6728Y4170D01*
G01X6734Y4167D01*
G01X6740Y4162D01*
G01X6744Y4157D01*
G01X6748Y4151D01*
G01X6751Y4144D01*
G01X6752Y4137D01*
G01Y4130D01*
G01X6751Y4123D01*
G01X6748Y4117D01*
G01X6744Y4111D01*
G01X6740Y4105D01*
G01X6734Y4101D01*
G01X6728Y4098D01*
G01X6721Y4095D01*
G01X6714Y4095D01*
G37*
G36*
G01X6399Y4095D02*
G01X6392D01*
G01X6385Y4096D01*
G01X6379Y4099D01*
G01X6373Y4103D01*
G01X6368Y4108D01*
G01X6364Y4114D01*
G01X6361Y4120D01*
G01X6359Y4127D01*
G01X6358Y4134D01*
G01X6359Y4141D01*
G01X6361Y4148D01*
G01X6364Y4154D01*
G01X6368Y4160D01*
G01X6373Y4165D01*
G01X6379Y4169D01*
G01X6385Y4171D01*
G01X6392Y4173D01*
G01X6399D01*
G01X6406Y4172D01*
G01X6413Y4170D01*
G01X6419Y4167D01*
G01X6425Y4162D01*
G01X6429Y4157D01*
G01X6433Y4151D01*
G01X6436Y4144D01*
G01X6437Y4137D01*
G01Y4130D01*
G01X6436Y4123D01*
G01X6433Y4117D01*
G01X6429Y4111D01*
G01X6425Y4105D01*
G01X6419Y4101D01*
G01X6413Y4098D01*
G01X6406Y4095D01*
G01X6399Y4095D01*
G37*
G36*
G01X4134Y7933D02*
G01X4127Y7934D01*
G01X4120Y7936D01*
G01X4114Y7939D01*
G01X4108Y7943D01*
G01X4103Y7948D01*
G01X4099Y7954D01*
G01X4096Y7960D01*
G01X4095Y7967D01*
G01Y7974D01*
G01Y7981D01*
G01X4098Y7988D01*
G01X4101Y7994D01*
G01X4105Y8000D01*
G01X4111Y8004D01*
G01X4117Y8008D01*
G01X4123Y8010D01*
G01X4130Y8012D01*
G01X4137D01*
G01X4144Y8010D01*
G01X4151Y8008D01*
G01X4157Y8004D01*
G01X4162Y8000D01*
G01X4167Y7994D01*
G01X4170Y7988D01*
G01X4172Y7981D01*
G01X4173Y7974D01*
G01Y7967D01*
G01X4171Y7960D01*
G01X4169Y7954D01*
G01X4165Y7948D01*
G01X4160Y7943D01*
G01X4154Y7939D01*
G01X4148Y7936D01*
G01X4141Y7934D01*
G01X4134Y7933D01*
G37*
G36*
G01X4134Y6673D02*
G01X4127Y6674D01*
G01X4120Y6676D01*
G01X4114Y6679D01*
G01X4108Y6683D01*
G01X4103Y6688D01*
G01X4099Y6694D01*
G01X4096Y6700D01*
G01X4095Y6707D01*
G01Y6714D01*
G01Y6721D01*
G01X4098Y6728D01*
G01X4101Y6734D01*
G01X4105Y6740D01*
G01X4111Y6744D01*
G01X4117Y6748D01*
G01X4123Y6751D01*
G01X4130Y6752D01*
G01X4137D01*
G01X4144Y6751D01*
G01X4151Y6748D01*
G01X4157Y6744D01*
G01X4162Y6740D01*
G01X4167Y6734D01*
G01X4170Y6728D01*
G01X4172Y6721D01*
G01X4173Y6714D01*
G01Y6707D01*
G01X4171Y6700D01*
G01X4169Y6694D01*
G01X4165Y6688D01*
G01X4160Y6683D01*
G01X4154Y6679D01*
G01X4148Y6676D01*
G01X4141Y6674D01*
G01X4134Y6673D01*
G37*
G36*
G01X4134Y6358D02*
G01X4127Y6359D01*
G01X4120Y6361D01*
G01X4114Y6364D01*
G01X4108Y6368D01*
G01X4103Y6373D01*
G01X4099Y6379D01*
G01X4096Y6385D01*
G01X4095Y6392D01*
G01Y6399D01*
G01Y6406D01*
G01X4098Y6413D01*
G01X4101Y6419D01*
G01X4105Y6425D01*
G01X4111Y6429D01*
G01X4117Y6433D01*
G01X4123Y6436D01*
G01X4130Y6437D01*
G01X4137D01*
G01X4144Y6436D01*
G01X4151Y6433D01*
G01X4157Y6429D01*
G01X4162Y6425D01*
G01X4167Y6419D01*
G01X4170Y6413D01*
G01X4172Y6406D01*
G01X4173Y6399D01*
G01Y6392D01*
G01X4171Y6385D01*
G01X4169Y6379D01*
G01X4165Y6373D01*
G01X4160Y6368D01*
G01X4154Y6364D01*
G01X4148Y6361D01*
G01X4141Y6359D01*
G01X4134Y6358D01*
G37*
G36*
G01X294Y4095D02*
G01X286D01*
G01X280Y4098D01*
G01X274Y4101D01*
G01X268Y4105D01*
G01X263Y4111D01*
G01X260Y4117D01*
G01X257Y4123D01*
G01X256Y4130D01*
G01Y4137D01*
G01X257Y4144D01*
G01X260Y4151D01*
G01X263Y4157D01*
G01X268Y4162D01*
G01X274Y4167D01*
G01X280Y4170D01*
G01X286Y4172D01*
G01X294Y4173D01*
G01X301D01*
G01X307Y4171D01*
G01X314Y4169D01*
G01X320Y4165D01*
G01X325Y4160D01*
G01X329Y4154D01*
G01X332Y4148D01*
G01X334Y4141D01*
G01X335Y4134D01*
G01X334Y4127D01*
G01X332Y4120D01*
G01X329Y4114D01*
G01X325Y4108D01*
G01X320Y4103D01*
G01X314Y4099D01*
G01X307Y4096D01*
G01X301Y4095D01*
G01X294Y4095D01*
G37*
G36*
G01X1553Y4095D02*
G01X1546D01*
G01X1540Y4098D01*
G01X1533Y4101D01*
G01X1528Y4105D01*
G01X1523Y4111D01*
G01X1520Y4117D01*
G01X1517Y4123D01*
G01X1516Y4130D01*
G01Y4137D01*
G01X1517Y4144D01*
G01X1520Y4151D01*
G01X1523Y4157D01*
G01X1528Y4162D01*
G01X1533Y4167D01*
G01X1540Y4170D01*
G01X1546Y4172D01*
G01X1553Y4173D01*
G01X1560D01*
G01X1567Y4171D01*
G01X1574Y4169D01*
G01X1580Y4165D01*
G01X1585Y4160D01*
G01X1589Y4154D01*
G01X1592Y4148D01*
G01X1594Y4141D01*
G01Y4134D01*
G01Y4127D01*
G01X1592Y4120D01*
G01X1589Y4114D01*
G01X1585Y4108D01*
G01X1580Y4103D01*
G01X1574Y4099D01*
G01X1567Y4096D01*
G01X1560Y4095D01*
G01X1553Y4095D01*
G37*
G36*
G01X1868Y4095D02*
G01X1861D01*
G01X1855Y4098D01*
G01X1848Y4101D01*
G01X1843Y4105D01*
G01X1838Y4111D01*
G01X1835Y4117D01*
G01X1832Y4123D01*
G01X1831Y4130D01*
G01Y4137D01*
G01X1832Y4144D01*
G01X1835Y4151D01*
G01X1838Y4157D01*
G01X1843Y4162D01*
G01X1848Y4167D01*
G01X1855Y4170D01*
G01X1861Y4172D01*
G01X1868Y4173D01*
G01X1875D01*
G01X1882Y4171D01*
G01X1889Y4169D01*
G01X1895Y4165D01*
G01X1900Y4160D01*
G01X1904Y4154D01*
G01X1907Y4148D01*
G01X1909Y4141D01*
G01Y4134D01*
G01Y4127D01*
G01X1907Y4120D01*
G01X1904Y4114D01*
G01X1900Y4108D01*
G01X1895Y4103D01*
G01X1889Y4099D01*
G01X1882Y4096D01*
G01X1875Y4095D01*
G01X1868Y4095D01*
G37*
M02*

